<svg version="1.1" xmlns="http://www.w3.org/2000/svg" xmlns:xlink="http://www.w3.org/1999/xlink" width="322.78727" height="295.05895" viewBox="0,0,322.78727,295.05895"><defs><linearGradient x1="115.75161" y1="87.74392" x2="115.75161" y2="144.05418" gradientUnits="userSpaceOnUse" id="color-1"><stop offset="0" stop-color="#ebebeb"/><stop offset="1" stop-color="#ffffff"/></linearGradient><linearGradient x1="187.839" y1="114.46568" x2="187.839" y2="139.22169" gradientUnits="userSpaceOnUse" id="color-2"><stop offset="0" stop-color="#ebebeb"/><stop offset="1" stop-color="#ffffff"/></linearGradient></defs><g transform="translate(-78.31892,-32.36937)"><g data-paper-data="{&quot;isPaintingLayer&quot;:true}" fill="none" fill-rule="nonzero" stroke="none" stroke-width="none" stroke-linecap="none" stroke-linejoin="miter" stroke-miterlimit="10" stroke-dasharray="" stroke-dashoffset="0" font-family="none" font-weight="none" font-size="none" text-anchor="none" style="mix-blend-mode: normal"><g data-paper-data="{&quot;origPos&quot;:null}" stroke="#ff0000" stroke-width="0" stroke-linecap="round"><path d="M90.96496,120.91487l-7,-16.2l-3.2,-14.8l-0.8,-15.13333l0.8,-20.06667l1.6,-8.8l3.2,-4.6l8.2,7.4l6.4,6.2l8.6,14.2l-4.4,-2l0.4,5.8l2.8,6.4l-5.2,12.26667l-4.6,15.8l-2.8,7.8z" data-paper-data="{&quot;origPos&quot;:null}" fill="#5f4d4d"/><path d="M98.16496,106.18154l-4.8,-3l-5.2,-5.6l-0.6,-2.6l5,1l2,-1.2l-6,-6.8l-2.4,-4.8l1.8,-10.6l1.2,-1l1.2,-6l3,-5.8l6.4,3.2l5,4.4l0.2,5.8l2.6,6l-5.6,12.8z" data-paper-data="{&quot;origPos&quot;:null}" fill="#cacaca"/><path d="M93.96496,103.4482c0,0 -0.83055,-2.71148 -1.10611,-4.31895c-0.19275,-1.12436 -0.09389,-2.68105 -0.09389,-2.68105l2.2,-1.6l-4,-4c0,0 -0.24422,-3.41558 -0.01649,-5.60172c0.16254,-1.56038 1.01649,-3.99828 1.01649,-3.99828c0,0 1.85926,0.65185 2.53724,1.45311c1.03918,1.22812 1.86276,3.74689 1.86276,3.74689c0,0 0.06197,-4.1131 0.61368,-6.48968c0.46298,-1.99437 1.98633,-4.71032 1.98633,-4.71032c0,0 1.34378,0.64296 1.81985,1.18249c0.69473,0.78736 1.18015,2.21751 1.18015,2.21751c0,0 1.04673,-1.843 1.71669,-2.63858c0.57888,-0.68742 1.48331,-1.16142 1.48331,-1.16142l3,4.8l-6.2,12.4l-3.4,14.2z" data-paper-data="{&quot;origPos&quot;:null}" fill="#a1a1a1"/></g><path d="M148.186,248.09823l-1.52543,15.25424l-0.72951,13.39643l0.16854,15.89888l1.51685,13.48315l2.35955,6.91011l3.53729,5.46304l4.79381,0.77319l4.02061,-1.08247l41.13402,-40.05155l65.67011,5.25773l1.59793,13.91753l-0.61855,12.98969l1.70103,5.41237l5.10309,3.40206l6.03093,-1.23712l8.50516,-6.03093l8.35052,-14.07216l9.12371,-30.20619l-8.09279,-2.06185z" data-paper-data="{&quot;origPos&quot;:null}" fill="#4f4f4f" stroke="#3dff00" stroke-width="0" stroke-linecap="round"/><path d="M85.93752,41.39785l13.54838,14.03226l11.12904,17.09677l-2.90323,6.93549l-5.64516,12.74194l-3.87096,14.19355l-3.22581,9.51613l-4.67742,5.64516l-5.32258,1.7742l-5.16129,0.32258l0.64516,9.35484l4.67742,6.45161l-3.06451,-1.6129l-1.29032,0.48387l4.35484,10l-2.74193,0.48387l0.64516,2.41935l8.3871,14.03225l3.44086,6.6129l10.64516,8.87097l16.7742,10.96775l9.19355,3.87096l1.93548,5.48388l5.80646,-3.70968l1.45161,3.54838l3.06452,4.03226l-1.93548,18.06452l0.48387,10.86022l0.48387,3.87097l4.03226,9.67742l10.96774,14.08602l11.77419,9.83871l-1.12903,9.03226l-4.19355,19.19355l-1.61291,9.03226l-0.64516,9.19354l2.74194,5.96775l5.64516,2.90322l8.49462,-0.86021l12.41935,-6.12903l10.96774,-10l10.64516,-17.41935l5.1613,-9.35484l14.46236,1.6129l13.3871,0.80646l13.38709,0.32258l12.09677,-3.22581l6.88172,-2.15054l18.54839,-10.80645l5.32258,-2.58065l7.15053,9.62365l5.64516,9.51613l1.93548,9.08602l0.80646,10.96774l0.32258,9.83871l2.09678,5.16129l4.51612,3.2258l5.96774,-1.6129l9.03226,-6.29032l9.35484,-15.32259l4.83871,-9.56989l0.96774,-12.41935l-1.93548,-3.06451l-3.3871,-3.06452l-5.16129,-5.69892l-3.70968,-13.70968l0.96774,-25l-1.12903,-15.21506l11.12903,-0.96774l5.32258,-1.29032l7.90323,-4.67742l2.74194,-3.22581l-9.19355,0.16129l-6.29032,-2.41935l8.70968,-2.31182l9.67742,-5l6.29032,-9.83871l1.29032,-16.50537l-1.12903,-20.53764l-2.41935,-18.01075l4.67742,0.75269l9.19355,-2.58065l8.70968,-7.90323l3.3871,-9.35484l-2.74193,-13.11828l-5.64517,-6.45161l-6.45161,-3.70968l-6.77419,-2.09677l9.67742,-0.48387l-4.83871,-4.51613l-6.45162,-2.58064l-6.29032,-0.32258l-5.32258,1.93549l-4.73118,3.87097l-7.74194,6.93549l-1.7742,2.58064l2.90323,-10.16129l-10.64516,6.29032l-6.61291,10.80645l-1.29032,11.12904l1.93549,12.15054l3.2258,14.19355l0.80645,13.54838l-1.6129,8.44086l-4.51613,7.90323l-6.12903,4.51613l-17.58065,5.32258l-12.043,-6.45161l-15.80646,-3.70968l-12.95699,-1.45162l-15.48387,1.12904l-17.04301,2.95699l7.25806,-9.03226l5.80645,-12.41936l1.45162,-9.56989l3.22581,-7.41935l0.80645,-8.70968l-3.65591,0.32259l-5.16129,-1.12904l-11.12903,-10.48387l-16.29032,-17.41936l25.86022,-57.63441l-8.70968,-1.45161l-13.06451,1.29032l-15.16129,6.6129l-11.7742,6.7742l-8.54838,7.74193l-15,-3.54839l-14.51613,-1.45161l-18.54839,0.64516l-7.41935,0.64516l2.957,2.74194l-2.25807,1.12903l-14.35484,-7.25806l-19.67742,-6.93548l-8.22581,-1.93548l-4.51612,0.32258z" data-paper-data="{&quot;origPos&quot;:null}" fill="#7a7a7a" stroke="#3dff00" stroke-width="0" stroke-linecap="round"/><g data-paper-data="{&quot;origPos&quot;:null}" stroke="#ff0000" stroke-width="0" stroke-linecap="round"><path d="M245.63162,35.11487l-10,3.8l-15,10l-8.4,9.4l-2.8,6.33334l-0.2,8.6l3.6,8.8l10,12.66667l16.4,17.8l8.2,7.00001l9.2,-17.60001l2.2,-11.4l-0.8,-21.86666l-3.4,-15.93333l-3.4,-11.4l-3,-5.8z" data-paper-data="{&quot;origPos&quot;:null}" fill="#5f4d4d"/><path d="M209.09829,73.8482l4,8.4l9.8,13l12.6,13.33334l6.8,-5.4l2,-5.2l-8.4,1.4l-3.8,-0.4l9,-8l4,-6.2l-3,-13.73333l-1.6,4.6l-0.4,-8.4l-4,-6.8l-5.2,8l-6.8,5l-0.6,-7.6l-6,1.6l-5.4,3z" data-paper-data="{&quot;origPos&quot;:null}" fill="#cacaca"/><path d="M214.09829,83.4482c0,0 3.72186,-0.16092 5.72,-1.16c1.90448,-0.95224 4.28,-3.84 4.28,-3.84l-0.4,7.8c0,0 2.46737,-1.1501 4.81467,-1.5022c2.33585,-0.35038 7.18533,-0.2978 7.18533,-0.2978c0,0 -1.85539,3.73282 -3.42697,5.60998c-1.23832,1.4791 -3.77303,2.99001 -3.77303,2.99001c0,0 2.81008,0.91709 4.60867,0.99203c1.94794,0.08116 4.99133,-0.59203 4.99133,-0.59203l-6.2,5.6l3.4,0.4c0,0 -1.33301,1.46505 -1.54615,2.53077c-0.33322,1.66612 0.14615,4.46923 0.14615,4.46923l-7.8,-8.2l-4.8,-5.6l-5.8,-7.4l-2.8,-3.6l-3.4,-7.6l2.8,-3.8l2.4,-1.2c0,0 -1.29506,3.42205 -1.3559,5.61233c-0.09527,3.4295 0.9559,8.78766 0.9559,8.78766z" data-paper-data="{&quot;origPos&quot;:null}" fill="#a1a1a1"/></g><path d="M93.6443,168.95109c0,0 24.58758,24.07036 65.04343,25.48514c22.20457,0.77651 79.6141,-25.69062 79.6141,-25.69062l17.0548,-3.49315c0,0 -12.60403,29.9922 -38.15071,45.31133c-34.12598,20.46373 -75.47943,12.15443 -75.47943,12.15443l2.05479,-17.67123l-3.28767,-4.38356l-1.13787,-4.12255l-5.60606,4.39394l-2.42424,-5.15152l-9.09091,-3.98989l-16.81819,-10.60606l-10,-8.63636z" data-paper-data="{&quot;origPos&quot;:null}" fill="#616161" stroke="#3dff00" stroke-width="0" stroke-linecap="round"/><path d="M368.56191,99.19401c-16.52108,-5.71699 -10.91392,19.06473 -10.91392,19.06473c0,0 5.03052,11.31979 8.49337,15.64835c3.3544,4.193 10.3041,6.94659 10.3041,6.94659l-2.08861,-12.53164l-7.59494,-2.65823l-7.97468,-7.02531c0,0 9.376,-2.62773 13.87291,-7.20324c4.10926,-4.18108 4.06219,-9.41738 -4.09824,-12.24123z" data-paper-data="{&quot;origPos&quot;:null}" fill="#616161" stroke="#3dff00" stroke-width="0" stroke-linecap="round"/><g data-paper-data="{&quot;origPos&quot;:null}" stroke="#3d00ff" stroke-width="0" stroke-linecap="round"><path d="M141.63434,155.1351l-2.84211,2.52631l-4.10527,10.26316l-3.15789,10.89473l-1.42105,7.42106l-8.84211,-10.57895l-4.10527,-8.21052l1.26316,-7.42105l4.26316,-5.68421l3.94737,-2.05263l-7.26316,-0.63158l7.89474,-4.73684l17.52632,-0.47369l9.94737,-1.42105l7.57895,2.68421l3.47368,3l-6.63158,-0.47368l6.1579,7.89473l1.89473,8.36843l-0.63157,6.31578l-5.21053,7.57895l-7.57895,4.42105l-0.31579,-10.73684l-4.26316,-10.57895z" data-paper-data="{&quot;origPos&quot;:null}" fill="#cacaca"/><path d="M126.79223,151.97721c0,0 0.37518,1.8786 1.12061,2.17145c0.97994,0.38497 3.30044,-0.4346 3.30044,-0.4346c0,0 -0.52958,1.17052 -1.07067,1.91971c-1.06105,1.46914 -3.03459,3.7645 -3.03459,3.7645c0,0 2.27163,-1.59804 3.9277,-2.11557c1.3017,-0.40679 3.65124,-0.25286 3.65124,-0.25286c0,0 -0.81643,1.57206 -0.73262,2.47719c0.2243,2.42237 1.5221,6.04913 1.5221,6.04913l3.63158,-8.36842l2.52632,-1.73684l7.89473,8.21052c0,0 1.01328,-2.13687 1.25759,-4.00988c0.12542,-0.96153 -0.31021,-3.25328 -0.31021,-3.25328c0,0 1.74099,1.54039 3.05744,2.12207c1.33323,0.5891 3.73203,0.87793 3.73203,0.87793c0,0 -0.61999,-3.13472 -1.42105,-4.73685c-0.73944,-1.47889 -2.52631,-3.15789 -2.52631,-3.15789c0,0 1.86498,0.84566 3.15972,0.88163c0.9236,0.02566 2.52449,-0.72374 2.52449,-0.72374l3.63158,-2.84211l-2.68421,-2.68421l-5.21052,-1.10526l-9.31579,1.42105l-17.68421,0.63158l-5.68421,1.42105l-2.68421,3.15789z" data-paper-data="{&quot;origPos&quot;:null}" fill="#a1a1a1"/></g><g data-paper-data="{&quot;origPos&quot;:null}" stroke="#3d00ff" stroke-width="0" stroke-linecap="round"><path d="M157.87528,122.06654l6.60551,-9.90825l4.40367,-3.7156l3.44037,-5.50459l-5.77982,-1.37615h-3.71559l-6.88074,4.6789l-3.16514,3.57798l-0.82569,-8.3945l-4.12844,3.44037l-0.96331,6.05505l0.41285,6.19266l-4.6789,-1.65138l3.02752,5.09175l3.7156,3.02752z" data-paper-data="{&quot;origPos&quot;:null}" fill="#cacaca"/><path d="M154.57253,122.47938c0,0 -2.48458,-1.06619 -3.72251,-2.01284c-0.58807,-0.4497 -0.95639,-1.56514 -0.95639,-1.56514l2.06422,-0.41284c0,0 -0.73617,-2.77101 -0.59079,-4.54459c0.12315,-1.50248 1.27887,-3.84991 1.27887,-3.84991c0,0 2.20568,1.69203 3.08894,3.12734c0.83533,1.3574 1.31472,4.02863 1.31472,4.02863c0,0 2.08812,-1.75695 3.60079,-2.7934c1.38745,-0.95067 3.83041,-2.29834 3.83041,-2.29834l-6.46789,9.90825z" data-paper-data="{&quot;origPos&quot;:null}" fill="#a1a1a1"/></g><g data-paper-data="{&quot;origPos&quot;:null}" stroke="#3d00ff" stroke-width="0" stroke-linecap="round"><path d="M110.2606,82.52526l-3.57798,-3.99083l-1.51376,-5.22935l-0.41284,-5.91743l5.6422,4.26606l2.75229,-10.59633l4.81651,-4.26606l5.6422,-1.78899l0.27523,13.0734z" data-paper-data="{&quot;origPos&quot;:null}" fill="#cacaca"/><path d="M110.53583,82.52526c0,0 6.04747,-0.61948 8.25478,-2.9048c4.9505,-5.12545 4.95623,-11.68237 4.95623,-11.68237v-1.9266c0,0 -2.7175,1.67692 -3.75219,3.19064c-1.86542,2.72905 -3.679,7.68092 -3.679,7.68092c0,0 -1.22495,-1.79005 -2.3613,-2.49537c-0.42112,-0.26139 -1.62953,0.01831 -1.62953,0.01831c0,0 -1.07778,1.49344 -1.32721,2.62546c-0.44875,2.03662 -0.46178,5.49381 -0.46178,5.49381z" data-paper-data="{&quot;origPos&quot;:null}" fill="#a1a1a1"/></g><g data-paper-data="{&quot;origPos&quot;:null}" stroke="#ff0000" stroke-width="0" stroke-linecap="butt"><path d="M130.91625,117.63522c2.52713,28.14059 0.88657,25.97826 -13.91304,26.41304c-9.36079,0.275 -17.39131,-9.0513 -17.39131,-24.23913c0,-15.18783 6.50473,-32.06522 15.86956,-32.06522c9.36483,0 14.00948,14.01999 15.43478,29.89131z" data-paper-data="{&quot;origPos&quot;:null}" fill="url(#color-1)"/><path d="M108.52494,120.46131c0,4.2622 -2.33591,7.71739 -5.21739,7.71739c-2.88148,0 -3.47826,-3.67258 -3.47826,-7.93478c0,-4.2622 0.59678,-7.5 3.47826,-7.5c2.88148,0 5.21739,3.4552 5.21739,7.71739z" data-paper-data="{&quot;origPos&quot;:null}" fill="#000000"/><path d="M109.39451,120.7874c0,1.92099 -1.36261,3.47826 -3.04348,3.47826c-1.68086,0 -3.04348,-1.55727 -3.04348,-3.47826c0,-1.92099 1.36262,-3.47826 3.04348,-3.47826c1.68086,0 3.04348,1.55727 3.04348,3.47826z" data-paper-data="{&quot;origPos&quot;:null}" fill="#ffffff"/></g><g data-paper-data="{&quot;origPos&quot;:null}" stroke="#ff0000" stroke-width="0"><path d="M160.5181,120.68237c0,0 15.93109,-5.24214 25.80418,-6.00841c12.16142,-0.94387 30.6565,1.62639 30.6565,1.62639c0,0 0.00497,5.70303 -0.6391,9.24539c-0.53988,2.96933 -2.39461,7.44 -2.39461,7.44c0,0 -16.01767,0.67927 -25.08319,1.76128c-11.32462,1.35165 -27.16401,4.47467 -27.16401,4.47467c0,0 -2.73926,-5.96671 -2.98228,-9.7857c-0.2174,-3.41621 1.8025,-8.75362 1.8025,-8.75362z" data-paper-data="{&quot;origPos&quot;:null}" fill="url(#color-2)" stroke-linecap="round"/><path d="M168.77653,128.26664c0,4.561 -2.226,8.25843 -4.97191,8.25843c-2.74591,0 -4.97191,-3.69742 -4.97191,-8.25843c0,-4.561 2.226,-8.25843 4.97191,-8.25843c2.74591,0 4.97191,3.69742 4.97191,8.25843z" data-paper-data="{&quot;origPos&quot;:null}" fill="#000000" stroke-linecap="butt"/><path d="M169.61922,127.00259c0,1.81509 -1.35824,3.28651 -3.0337,3.28651c-1.67547,0 -3.03371,-1.47142 -3.03371,-3.28651c0,-1.8151 1.35824,-3.28652 3.03371,-3.28652c1.67547,0 3.0337,1.47142 3.0337,3.28652z" data-paper-data="{&quot;origPos&quot;:null}" fill="#ffffff" stroke-linecap="butt"/></g><g data-paper-data="{&quot;origPos&quot;:null}" fill="none" stroke="#000000" stroke-width="2.5" stroke-linecap="round"><path d="M168.27414,271.16954c0,0 -18.61362,-15.58921 -24.125,-29.27849c-4.29092,-10.65789 -0.60753,-35.80039 -0.60753,-35.80039" data-paper-data="{&quot;origPos&quot;:null}"/><path d="M226.35437,261.51212c0,0 -20.60019,68.18763 -56.93148,64.52366c-11.99246,-1.20943 -6.56835,-19.32043 -3.14431,-34.29657c3.8099,-16.66383 4.62849,-38.98966 4.62849,-38.98966" data-paper-data="{&quot;origPos&quot;:null}"/><path d="M161.78053,318.11245c0,0 -4.78793,1.17403 -6.51244,0.84324c-13.89512,-2.66534 -7.34559,-68.90234 -7.34559,-68.90234" data-paper-data="{&quot;origPos&quot;:null}"/><path d="M300.08684,267.36693c0,0 -21.30487,14.48189 -33.89877,16.74899c-17.76853,3.19859 -46.96242,-0.90711 -46.96242,-0.90711" data-paper-data="{&quot;origPos&quot;:null}"/><path d="M306.56202,273.93933c0,0 -8.35003,46.23288 -28.31467,44.6419c-9.5534,-0.7613 -7.54527,-7.89679 -7.82355,-16.98348c-0.23038,-7.5226 -1.21016,-17.27207 -1.21016,-17.27207" data-paper-data="{&quot;origPos&quot;:null}"/><path d="M238.76753,168.98935c0,0 53.41551,-17.44397 88.00559,19.1625c25.80324,27.30742 6.63679,55.27771 16.91252,77.24953c4.84731,10.36462 9.62214,7.9418 10.426,15.02405c1.83481,16.16547 -15.49935,44.37067 -29.02966,43.32348c-12.24702,-0.94788 -4.22202,-19.43958 -10.24538,-36.78184c-4.24445,-12.22048 -24.66588,-32.86944 -24.66588,-32.86944" data-paper-data="{&quot;origPos&quot;:null}"/><path d="M311.80678,175.08298c0,0 21.45063,-1.79578 26.95089,-13.91747c8.37689,-18.46129 -5.52324,-40.1521 -2.2384,-60.15713c2.28554,-13.91916 17.83853,-19.70091 17.83853,-19.70091l-4.28571,11.93878c0,0 10.90941,-15.28866 21.37273,-16.45901c11.44884,-1.28058 17.1987,7.27534 17.1987,7.27534c0,0 -3.52604,-0.72777 -5.78288,-0.60578c-2.16348,0.11694 -5.54365,1.21802 -5.54365,1.21802c0,0 21.26972,-0.05224 22.5392,23.6332c0.43827,8.1771 -5.82209,18.61284 -20.33853,20.81319c-9.16769,1.38961 -21.79251,-10.77292 -21.79251,-10.77292c0,0 4.99825,-0.50939 7.80551,-1.81509c2.32987,-1.08366 5.35776,-4.30736 5.35776,-4.30736" data-paper-data="{&quot;origPos&quot;:null}"/><path d="M374.56187,130.89931c0,0 7.31563,36.81764 1.06256,54.84738c-4.44375,12.81285 -24.02174,14.94854 -24.02174,14.94854c0,0 3.89798,1.52988 6.58882,1.92127c3.87992,0.56435 10.24792,0.52771 10.24792,0.52771c0,0 -6.93166,6.21863 -11.56422,7.84766c-6.23905,2.19395 -16.29292,1.94826 -16.29292,1.94826" data-paper-data="{&quot;origPos&quot;:null}"/><path d="M244.60012,35.27583c0,0 -37.79986,13.2898 -35.43156,36.54317c1.3753,13.50354 23.95849,33.48755 36.86154,46.76365c4.28623,4.41015 11.3961,2.70767 11.3961,2.70767c0,0 -0.86642,8.39946 -2.82909,12.75147c-1.93996,4.30165 -7.17091,9.42245 -7.17091,9.42245l5.43479,-4.13043c0,0 -3.4253,28.28927 -35.17559,45.50592c-35.91754,19.47634 -65.8389,16.74046 -65.8389,16.74046" data-paper-data="{&quot;origPos&quot;:null}"/><path d="M152.71606,196.79757c0,0 -1.35394,4.39389 -2.42265,6.39772c-0.96744,1.81396 -2.79475,3.38489 -2.79475,3.38489c0,0 -4.7532,-1.76925 -6.4817,-4.31651c-1.49541,-2.20377 -1.77918,-7.8574 -1.77918,-7.8574c0,0 -1.25906,3.21406 -2.46917,4.56379c-0.99572,1.11061 -3.183,1.74055 -3.183,1.74055c0,0 -1.42105,-2.4532 -1.42105,-4.02337c0,-2.24761 1.42105,-5.75923 1.42105,-5.75923" data-paper-data="{&quot;origPos&quot;:null}"/><path d="M131.41171,195.71061c0,0 -21.73634,-9.77202 -32.2515,-19.71921c-8.85658,-8.37819 -17.38618,-27.2373 -17.38618,-27.2373l3.91304,-0.43478c0,0 -2.03566,-2.83891 -2.99158,-4.88729c-0.82572,-1.7694 -1.57364,-4.89532 -1.57364,-4.89532l3.91305,1.30434c0,0 -3.14732,-2.98051 -4.23638,-6.16058c-1.03193,-3.01323 -1.1984,-9.70898 -1.1984,-9.70898c0,0 9.38429,-0.08028 12.73026,-5.22122c6.24237,-9.59113 6.52821,-16.36473 10.22435,-27.19504c1.41612,-4.14946 4.87148,-10.33736 4.87148,-10.33736" data-paper-data="{&quot;origPos&quot;:null}"/><path d="M110.46968,82.30482c0,0 -3.34398,-2.68318 -4.53996,-5.50228c-1.17953,-2.78032 -1.54699,-8.84554 -1.54699,-8.84554c0,0 2.77367,0.56056 3.76202,1.5489c1.21749,1.21749 2.54234,2.79892 2.54234,2.79892c0,0 -0.11207,-8.04822 3.06664,-12.30305c2.25104,-3.01311 10.19422,-5.01579 10.19422,-5.01579l-0.21739,12.39131" data-paper-data="{&quot;origPos&quot;:null}"/><path d="M125.0349,63.24685c0,0 3.75775,-3.20119 6.54693,-4.99409c1.95166,-1.25454 5.60089,-2.8146 5.60089,-2.8146" data-paper-data="{&quot;origPos&quot;:null}"/><path d="M143.73055,64.3338c0,0 -3.47935,2.16631 -6.21837,2.7848c-2.52105,0.56927 -7.25989,0.25868 -7.25989,0.25868c0,0 2.19676,-4.30191 5.13893,-6.41529c3.08146,-2.21344 10.29585,-4.67167 10.29585,-4.67167c0,0 -4.63031,-0.10314 -7.46594,-1.06523c-1.9154,-0.64987 -4.70797,-3.0652 -4.70797,-3.0652c0,0 18.74584,-1.96201 30.23209,-1.16962c10.28928,0.70981 25.56501,5.0188 25.56501,5.0188c0,0 27.8866,-27.57301 55.94203,-21.52174c8.63792,1.86311 15.79125,43.26882 12.11707,62.8196c-1.83468,9.76255 -9.94316,22.10794 -9.94316,22.10794" data-paper-data="{&quot;origPos&quot;:null}"/><path d="M134.56453,55.92801c0,0 -39.87734,-20.41616 -48.69565,-14.56522c-6.83801,4.53701 -6.282,29.73609 -5.12,48.07979c0.80225,12.66453 9.03304,30.61587 9.03304,30.61587" data-paper-data="{&quot;origPos&quot;:null}"/><path d="M86.95584,42.44974c0,0 6.68456,6.02772 10.19496,10.39781c4.80389,5.98036 11.10939,16.12393 11.10939,16.12393" data-paper-data="{&quot;origPos&quot;:null}"/><path d="M97.60801,106.21786c0,0 -4.6865,-2.57129 -6.85125,-4.91275c-1.9924,-2.15505 -3.80092,-6.60899 -3.80092,-6.60899c0,0 3.03266,1.0335 4.97371,1.13842c1.19801,0.06476 3.06976,-0.70364 3.06976,-0.70364c0,0 -7.04719,-5.67644 -8.35749,-10.28364c-1.31973,-4.64033 1.61837,-13.41201 1.61837,-13.41201l1.52174,5c0,0 -0.41084,-5.18376 0.30019,-8.36249c0.73125,-3.26909 3.39547,-8.15925 3.39547,-8.15925c0,0 3.24867,1.48736 5.46713,2.99591c2.02353,1.376 5.40243,4.3954 5.40243,4.3954" data-paper-data="{&quot;origPos&quot;:null}"/><path d="M209.85439,72.7396c0,0 3.92591,-3.77701 6.99526,-5.35964c2.3604,-1.21708 6.91778,-1.81426 6.91778,-1.81426c0,0 -0.43478,1.85572 -0.43478,3.04348c0,1.78164 0.43478,4.56522 0.43478,4.56522c0,0 4.07879,-1.6026 6.41114,-4.01977c2.33383,-2.4187 5.54538,-8.37154 5.54538,-8.37154c0,0 3.16935,4.33153 3.94562,7.10393c1.00537,3.59058 0.6196,9.20042 0.6196,9.20042l1.52174,-5.86956c0,0 4.89517,10.07314 1.14096,16.88554c-3.00578,5.45429 -10.70618,10.50576 -10.70618,10.50576c0,0 2.34068,0.30001 5.23026,0.21376c2.79469,-0.08343 7.37844,-1.51811 7.37844,-1.51811c0,0 -1.65474,3.79996 -3.13128,5.67556c-1.66253,2.11186 -4.9122,4.54183 -4.9122,4.54183" data-paper-data="{&quot;origPos&quot;:null}"/><path d="M157.68715,122.33105c0,0 -6.90411,1.56258 -9.82687,0.19369c-3.08324,-1.44405 -5.56274,-7.40148 -5.56274,-7.40148l5.06493,1.94805c0,0 -1.26439,-6.00926 -0.32807,-9.48143c0.88829,-3.29407 5.0034,-7.85623 5.0034,-7.85623c0,0 -0.32458,3.24804 -0.15826,5.32695c0.13779,1.72235 0.93748,4.41331 0.93748,4.41331c0,0 6.08314,-6.24697 10.10135,-7.62696c3.50829,-1.20486 9.18436,1.00359 9.18436,1.00359c0,0 -1.7596,3.54396 -3.25989,5.31354c-1.4647,1.72759 -4.33751,3.6475 -4.33751,3.6475" data-paper-data="{&quot;origPos&quot;:null}"/><path d="M144.44039,146.6817c0,0 9.7657,-1.59083 12.89911,-0.73876c5.53347,1.50472 9.30868,6.77772 9.30868,6.77772c0,0 -3.27226,-1.8148 -5.1173,-2.35294c-1.80417,-0.52622 -4.23335,-0.37434 -4.23335,-0.37434c0,0 10.68651,6.67419 9.99765,17.89664c-0.64142,10.44965 -12.72492,17.1683 -12.72492,17.1683c0,0 -0.55218,-11.02399 -3.02525,-16.70836c-2.62062,-6.02351 -10.0267,-13.29164 -10.0267,-13.29164l-0.1948,-5.64936v5.25974c0,0 -4.82219,7.72857 -6.66179,12.92461c-2.49384,7.04402 -4.44212,18.43903 -4.44212,18.43903c0,0 -12.50832,-10.65589 -12.49423,-19.26779c0.0199,-12.16591 9.76696,-14.43351 9.76696,-14.43351c0,0 -2.147,-0.68 -3.64587,-0.74118c-2.22636,-0.09087 -5.89959,0.35157 -5.89959,0.35157c0,0 4.03456,-3.45363 8.2378,-4.54198c4.31159,-1.11639 13.58039,-1.10737 13.58039,-1.10737h2.92208z" data-paper-data="{&quot;origPos&quot;:null}"/></g></g></g></svg>