<svg version="1.1" xmlns="http://www.w3.org/2000/svg" xmlns:xlink="http://www.w3.org/1999/xlink" width="289.36677" height="254.1705" viewBox="0,0,289.36677,254.1705"><defs><linearGradient x1="208.32135" y1="110.73926" x2="208.32135" y2="145.81213" gradientUnits="userSpaceOnUse" id="color-1"><stop offset="0" stop-color="#e7ddd2"/><stop offset="1" stop-color="#ffffff"/></linearGradient><linearGradient x1="141.89024" y1="108.88741" x2="141.89024" y2="143.3502" gradientUnits="userSpaceOnUse" id="color-2"><stop offset="0" stop-color="#e7ddd2"/><stop offset="1" stop-color="#ffffff"/></linearGradient></defs><g transform="translate(-95.52136,-52.97954)"><g data-paper-data="{&quot;isPaintingLayer&quot;:true}" fill="none" fill-rule="nonzero" stroke="none" stroke-width="none" stroke-linecap="none" stroke-linejoin="miter" stroke-miterlimit="10" stroke-dasharray="" stroke-dashoffset="0" font-family="none" font-weight="none" font-size="none" text-anchor="none" style="mix-blend-mode: normal"><path d="M234.39004,82.03825l11.19718,-9.92957l16.05634,-7.1831l16.90141,-2.74648l14.57746,-0.84507l0.6338,8.87324l-5.28169,17.11267l-7.8169,17.11268l-8.66197,15.42253l-12.88732,-12.04225l-14.15493,-12.46479l-9.29578,-10.35211z" data-paper-data="{&quot;origPos&quot;:null}" fill="#cea796" stroke="#ff0000" stroke-width="0" stroke-linecap="round"/><path d="M97.84075,68.09459l14.78873,7.39436l11.19718,9.71831l8.66197,8.4507l-5.49295,10.98592l-6.33803,12.67606l-4.01409,5.70422l-12.25352,-22.39437l-6.76056,-17.53521l-1.26761,-8.66197v-4.43662z" data-paper-data="{&quot;origPos&quot;:null}" fill="#cea796" stroke="#ff0000" stroke-width="0" stroke-linecap="round"/><path d="M103.6074,133.97541l7.89473,-6.31579l6.05263,-6.05263l3.1579,-4.47369l13.15789,-26.31579l12.80702,-19.03509l10.52631,-10l11.05264,-5.26316l10.08772,-2.63158l15.78948,0.78948l20.52631,5.26316l2.63158,1.57895l13.15789,4.73684l4.21052,16.57895l12.63158,14.73684l26.8421,23.68421l7.89474,8.68421l-5.52632,-0.52632l-4.21052,1.31579l4.21052,9.47368v4.73684l-8.68421,11.05264l16.22807,-3.24562l16.84211,1.31579l15.52631,5.26316l8.94737,7.01754l14.73684,-1.31579l13.1579,-2.36842l11.05264,37.63158l-10.78948,2.63158l-6.84211,1.05263l2.7193,15.35088l1.05263,18.42105l2.63158,12.98246l1.84211,4.47369l6.8421,5.78947l0.52632,6.57895l-0.26316,2.45614l-7.10527,18.15789l-25.52631,1.84211l-1.57895,-16.31579l-6.8421,-11.40351l-9.21052,-12.10526l-74.29825,13.68421l-5.61403,10.61403l-9.21053,13.42105l-7.36842,6.84211l-5.26316,3.42105l-24.73684,-8.94737l5,-20.52631l2.01755,-14.64912l-23.68421,-61.57895l-12.36842,-4.29825l-10.57684,-4.78587l-8.63368,-6.26676l-15.52632,-16.57895l-6.84211,-9.73684l-2.10526,7.63158l-5,-6.05263l-1.57895,-3.42105l1.31579,-8.24561l2.89474,-6.31579z" data-paper-data="{&quot;origPos&quot;:null}" fill="#7c6b5b" stroke="#ff0000" stroke-width="0" stroke-linecap="round"/><path d="M136.77885,177.02419c0,0 9.37894,-2.81719 13.94318,-10.39562c6.21311,-10.31619 6.76065,-28.23417 18.8033,-28.26636c11.30768,-0.03022 13.41814,17.55059 25.22351,28.79838c8.85499,8.43676 23.36804,20.07486 23.36804,20.07486l-19.01409,3.38028c0,0 -7.65366,21.66058 -9.51402,33.08808c-2.84172,17.45567 3.38726,23.81333 3.38726,23.81333l-0.84507,7.1831l-10.35211,-7.46479l-12.04226,-16.05634l-2.11267,-15.42254l0.6338,-23.4507l-13.52113,-4.85915l-9.92957,-4.85916z" data-paper-data="{&quot;origPos&quot;:null}" fill="#ffffff" stroke="#00ff14" stroke-width="0" stroke-linecap="round"/><path d="M171.91969,234.41855l9.50704,12.67606l11.19718,7.8169l-2.74648,15.21127l-4.43662,19.43662l-12.04226,-4.85915l-1.9014,-15.21127l-0.42254,-21.97183z" data-paper-data="{&quot;origPos&quot;:null}" fill="#604a3f" stroke="#ff0000" stroke-width="0" stroke-linecap="round"/><path d="M284.31406,264.55939l-0.42253,15.21127l25.77465,4.64789l4.64788,-10.35211l3.38029,-15.84507l-5.70423,-7.81691l-5.70423,3.59155l-9.92957,5.70422z" data-paper-data="{&quot;origPos&quot;:null}" fill="#604a3f" stroke="#ff0000" stroke-width="0" stroke-linecap="round"/><path d="M180.01828,296.4608l5.49296,-0.6338v-5.9155l2.11267,-12.04225c0,0 -3.83687,-0.94692 -6.83355,-0.74167c-3.02216,0.207 -8.58899,1.79801 -8.58899,1.79801l1.90141,10.14084l2.53521,6.12676l2.11267,1.05634z" data-paper-data="{&quot;origPos&quot;:null}" fill="#c8b0ac" stroke="#00ff14" stroke-width="0" stroke-linecap="round"/><path d="M186.56758,282.51714c0,0 10.52167,-0.9004 15.63341,1.49819c5.60675,2.63086 11.83138,11.38913 11.83138,11.38913l-7.18309,4.64789l-8.87324,2.74648l-8.66197,-0.84507l-3.16902,-2.95774l-1.05634,-4.22536l0.84507,-5.91549z" data-paper-data="{&quot;origPos&quot;:null}" fill="#ffffff" stroke="#00ff14" stroke-width="0" stroke-linecap="round"/><path d="M283.8211,278.71432c0,0 6.05419,-6.51757 13.75743,-6.30286c5.61527,0.15651 13.28482,8.62681 13.28482,8.62681l-4.64789,8.23944l-7.39437,5.91549l-6.76056,1.90141l-5.28169,-2.95775l-2.74648,-9.71831z" data-paper-data="{&quot;origPos&quot;:null}" fill="#c8b0ac" stroke="#00ff14" stroke-width="0" stroke-linecap="round"/><path d="M328.8211,283.57348c0,0 7.99738,-3.28983 12.71044,-2.55583c5.34582,0.83255 13.06421,6.56992 13.06421,6.56992l-6.5493,11.61972l-6.33803,5.28169l-5.91549,1.69014l-4.85915,-2.32394l-1.90141,-7.39437z" data-paper-data="{&quot;origPos&quot;:null}" fill="#ffffff" stroke="#00ff14" stroke-width="0" stroke-linecap="round"/><path d="M239.59575,258.15094l-2.53521,6.12676l21.12676,1.47887l19.85915,-0.42253l9.08451,-1.26761l13.09859,-6.12676l11.61972,-7.39437l-3.16902,-5.49296c0,0 -9.93589,-1.16826 -15.90625,0.31752c-13.29465,3.30851 -20.14023,8.78989 -33.60057,11.342c-7.31064,1.38612 -19.57769,1.43907 -19.57769,1.43907z" data-paper-data="{&quot;origPos&quot;:null}" fill="#ffffff" stroke="#00ff14" stroke-width="0" stroke-linecap="round"/><g data-paper-data="{&quot;origPos&quot;:null}" stroke="#001fff" stroke-width="0" stroke-linecap="round"><path d="M153.7708,65.12858l-18.23077,-2.07692l-16.15385,-0.69231l-12.46153,1.15385l-6.46154,2.07692l-2.76923,2.30769l15.46154,8.30769l19.15385,17.3077l5.07692,-7.61539c0,0 2.55262,3.88784 4.45687,5.83537c2.05842,2.1052 5.69698,4.54924 5.69698,4.54924c0,0 -1.21794,-8.48399 -1.32137,-13.91418c-0.07669,-4.02618 0.85983,-10.31659 0.85983,-10.31659z" data-paper-data="{&quot;origPos&quot;:null}" fill="#382f2a"/><path d="M165.30926,57.28243c0,0 -2.77792,10.11447 -3.09854,17.0849c-0.58435,12.70401 8.86777,25.60741 8.86777,25.60741c0,0 4.94128,-18.05814 10.26752,-27.9936c4.04008,-7.5363 13.73248,-16.77563 13.73248,-16.77563l-16.84616,-1.38461z" data-paper-data="{&quot;origPos&quot;:null}" fill="#382f2a"/><path d="M158.61695,98.35935c0,0 -0.54743,4.01102 0.46154,6.23077c1.00897,2.21975 4.15384,3.92308 4.15384,3.92308c0,0 0.08287,-4.63459 -1.08109,-7.1953c-0.63726,-1.40196 -3.5343,-2.95855 -3.5343,-2.95855z" data-paper-data="{&quot;origPos&quot;:null}" fill="#382f2a"/><path d="M183.7708,98.59012c0,0 -4.2412,2.48397 -5.33312,4.34428c-1.33972,2.28248 -0.89765,6.27111 -0.89765,6.27111c0,0 4.65378,-0.93721 6,-3.23077c1.34622,-2.29356 0.23077,-7.38461 0.23077,-7.38461z" data-paper-data="{&quot;origPos&quot;:null}" fill="#382f2a"/><path d="M194.38618,95.35935c0,0 -0.01728,-11.06051 2.76923,-17.30769c2.78651,-6.24718 11.53846,-14.76923 11.53846,-14.76923c0,0 2.1666,14.58264 -0.36811,20.26529c-3.04906,6.83579 -13.93959,11.81163 -13.93959,11.81163z" data-paper-data="{&quot;origPos&quot;:null}" fill="#382f2a"/><path d="M217.23234,60.59012c0,0 6.47198,5.60758 9.66782,9.60238c3.28852,4.11065 6.94756,11.16685 6.94756,11.16685l11.53846,-9.46154l16.61539,-6.92308l16.30769,-2.76923l14.30769,-0.46153l-4.84615,-4.61538l-8.3077,-2.07693l-9.46154,-0.92307l-18.23077,0.92307l-19.61539,2.76923z" data-paper-data="{&quot;origPos&quot;:null}" fill="#382f2a"/><path d="M227.54003,121.74397c0,0 11.60503,-3.39782 18.49195,-7.87138c3.65017,-2.37105 8.50805,-9.66708 8.50805,-9.66708l17.53846,15l10.61538,11.07692l-6.23077,-1.61538l-3.92307,1.61538c0,0 -4.57195,-4.03698 -10.55746,-4.49105c-11.64411,-0.88333 -37.44254,9.3372 -37.44254,9.3372z" data-paper-data="{&quot;origPos&quot;:null}" fill="#382f2a"/><path d="M218.54003,151.35935c0,0 22.8249,-5.33542 31.349,-6.31637c14.17118,-1.63081 26.80485,-0.37593 26.80485,-0.37593l-2.53846,5.07692l-5.76923,6l13.38462,-3c0,0 9.19525,12.66518 8.99384,27.43058c-0.22708,16.64738 -17.5323,32.80019 -17.5323,32.80019c0,0 -1.19781,-20.70309 -4.53369,-33.00756c-2.15782,-7.95917 -9.54323,-18.91551 -9.54323,-18.91551c0,0 -14.22583,-1.67345 -22.11409,-3.55588c-7.96241,-1.90012 -18.50129,-6.13644 -18.50129,-6.13644z" data-paper-data="{&quot;origPos&quot;:null}" fill="#382f2a"/><path d="M209.61695,162.66704c0,0 3.74527,7.63657 8.30769,9.46154c4.56242,1.82497 15.92308,0.23077 15.92308,0.23077c0,0 -7.13521,-5.60056 -12.37822,-7.69777c-4.21336,-1.68535 -11.85255,-1.99454 -11.85255,-1.99454z" data-paper-data="{&quot;origPos&quot;:null}" fill="#382f2a"/><path d="M130.00157,166.35935c0,0 3.4951,-3.84817 6.13781,-5.49986c2.40069,-1.50043 6.78527,-2.57706 6.78527,-2.57706c0,0 -1.6684,5.77352 -4.61538,7.61539c-2.94698,1.84187 -8.3077,0.46153 -8.3077,0.46153z" data-paper-data="{&quot;origPos&quot;:null}" fill="#382f2a"/><path d="M141.7708,149.35935c0,0 -6.86159,3.04041 -11.65903,4.31033c-4.38875,1.16173 -11.87943,1.92045 -11.87943,1.92045l-2.53846,-5.76923l-2.76923,9l-6,-6l-1.84615,-3.46154l2.30769,-9.92307c0,0 9.44912,4.23841 16.03793,6.13988c6.83023,1.97114 18.34669,3.78319 18.34669,3.78319z" data-paper-data="{&quot;origPos&quot;:null}" fill="#382f2a"/><path d="M114.30926,124.74397l5.30769,-6.23077l4.61538,-8.76923c0,0 1.05103,3.352 2.67031,4.82134c3.244,2.94363 9.79123,6.48636 9.79123,6.48636l-6.92308,7.84615c0,0 -6.52054,-0.46841 -10.15313,-1.44433c-2.40148,-0.64517 -5.30841,-2.70951 -5.30841,-2.70951z" data-paper-data="{&quot;origPos&quot;:null}" fill="#382f2a"/><path d="M170.85097,248.63749c0,0 7.46418,0.36595 11.43031,1.95241c4.27886,1.71155 9.69645,6.4983 9.69645,6.4983l-1.05633,6.76056c0,0 -5.46738,-1.47233 -8.96677,-1.73859c-4.08599,-0.31089 -10.46985,0.25972 -10.46985,0.25972z" data-paper-data="{&quot;origPos&quot;:null}" fill="#2d201a"/><path d="M191.83689,258.9896c0,0 11.49289,-0.81785 16.68537,1.90401c5.03131,2.63738 9.51182,11.82838 9.51182,11.82838c0,0 -6.84961,-2.04926 -12.04505,-2.54956c-5.9353,-0.57155 -16.47608,-0.19691 -16.47608,-0.19691l1.26761,-5.70423z" data-paper-data="{&quot;origPos&quot;:null}" fill="#382f2a"/><path d="M193.94956,236.45439l-1.26761,14.3662c0,0 13.26367,-1.7962 21.34743,-0.91753c7.08702,0.77033 17.5258,5.14289 17.5258,5.14289c0,0 -1.25634,-13.24495 -11.39052,-18.06283c-7.98141,-3.79443 -26.21511,-0.52873 -26.21511,-0.52873z" data-paper-data="{&quot;origPos&quot;:null}" fill="#382f2a"/><path d="M229.30168,182.4403c0,0 0.34583,9.90151 1.37852,15.96854c0.94611,5.55841 3.6919,13.8202 3.6919,13.8202c0,0 8.32446,-6.1935 11.21854,-14.34954c2.54762,-7.17964 2.72513,-24.94624 2.72513,-24.94624l-7.8169,4.85915z" data-paper-data="{&quot;origPos&quot;:null}" fill="#382f2a"/><path d="M298.4566,153.84875h2.74648l15.42254,5.2817l2.95775,2.32394c0,0 0.6247,13.13756 -0.86857,17.21916c-2.21697,6.05973 -8.63847,8.76675 -8.63847,8.76675c0,0 0.79434,-8.62807 -1.5369,-15.36747c-2.2035,-6.37013 -10.08282,-18.22408 -10.08282,-18.22408z" data-paper-data="{&quot;origPos&quot;:null}" fill="#382f2a"/><path d="M320.99182,242.01777c0,0 11.06419,-4.12098 17.46972,-11.08573c3.98316,-4.33089 9.15,-17.85793 9.15,-17.85793l1.47888,6.76056l1.26761,17.74648c0,0 -7.70383,4.93478 -12.49944,5.6593c-6.66492,1.00693 -16.86676,-1.22269 -16.86676,-1.22269z" data-paper-data="{&quot;origPos&quot;:null}" fill="#382f2a"/><path d="M304.30167,255.60932c0,0 3.90359,1.60498 6.53731,1.95614c2.31328,0.30844 6.13875,-0.266 6.13875,-0.266l-5.28169,-6.76056z" data-paper-data="{&quot;origPos&quot;:null}" fill="#2d201a"/><path d="M337.68196,262.58115c0,0 6.95878,-2.72053 10.73664,-5.27314c2.32343,-1.56988 4.89716,-5.29024 4.89716,-5.29024l3.16901,3.80282l5.28169,4.43662l0.21127,3.38028c0,0 -8.1489,0.94087 -12.95894,0.73173c-4.67169,-0.20312 -11.33683,-1.78807 -11.33683,-1.78807z" data-paper-data="{&quot;origPos&quot;:null}" fill="#382f2a"/><path d="M348.73829,163.70791c0,0 -1.83632,13.32019 0.36889,20.08791c2.57689,7.90837 11.88464,17.51773 11.88464,17.51773l8.66197,-2.74648l8.87324,-7.39437l4.64789,-11.40845l0.42254,-11.61972l-4.43662,-12.46479l-15.63381,5.07042z" data-paper-data="{&quot;origPos&quot;:null}" fill="#382f2a"/></g><g data-paper-data="{&quot;origPos&quot;:null}" stroke="#ff0000" stroke-width="0"><path d="M187.39874,110.73926l46.11111,8.7037c0,0 -4.93595,27.97788 -32.22222,26.2963c-29.85879,-1.84012 -13.88889,-35 -13.88889,-35z" data-paper-data="{&quot;origPos&quot;:null}" fill="url(#color-1)" stroke-linecap="round"/><path d="M204.25059,126.20222c0,5.47171 -3.77242,9.90741 -8.42593,9.90741c-4.65351,0 -8.42593,-4.4357 -8.42593,-9.90741c0,-5.47171 3.77242,-9.90741 8.42593,-9.90741c4.65351,0 8.42593,4.4357 8.42593,9.90741z" data-paper-data="{&quot;origPos&quot;:null}" fill="#000002" stroke-linecap="butt"/><path d="M198.13948,125.1837c0,-2.0455 1.6582,-3.7037 3.7037,-3.7037c2.0455,0 3.7037,1.6582 3.7037,3.7037c0,2.0455 -1.6582,3.7037 -3.7037,3.7037c-2.0455,0 -3.7037,-1.6582 -3.7037,-3.7037z" data-paper-data="{&quot;origPos&quot;:null}" fill="#ffffff" stroke-linecap="butt"/><path d="M182.9543,110.1837l54.25926,10.37037c0,0 -13.42094,-4.44115 -28.14815,-7.40741c-14.72721,-2.96626 -26.11111,-2.96296 -26.11111,-2.96296z" data-paper-data="{&quot;origPos&quot;:null}" fill="#000002" stroke-linecap="round"/></g><g data-paper-data="{&quot;origPos&quot;:null}" stroke="#ff0000" stroke-width="0"><path d="M125.7938,117.96148l27.03704,-9.07407c0,0 15.40575,35.38294 -7.03704,34.44445c-20.51582,-0.85791 -20,-25.37037 -20,-25.37037z" data-paper-data="{&quot;origPos&quot;:null}" fill="url(#color-2)" stroke-linecap="round"/><path d="M145.7938,124.81333c0,4.5001 -2.98477,8.14815 -6.66667,8.14815c-3.6819,0 -6.66667,-3.64805 -6.66667,-8.14815c0,-4.5001 2.98477,-8.14815 6.66667,-8.14815c3.6819,0 6.66667,3.64805 6.66667,8.14815z" data-paper-data="{&quot;origPos&quot;:null}" fill="#000002" stroke-linecap="butt"/><path d="M147.27528,123.33185c0,2.0455 -1.45093,3.7037 -3.24074,3.7037c-1.78981,0 -3.24074,-1.6582 -3.24074,-3.7037c0,-2.0455 1.45093,-3.7037 3.24074,-3.7037c1.78981,0 3.24074,1.6582 3.24074,3.7037z" data-paper-data="{&quot;origPos&quot;:null}" fill="#ffffff" stroke-linecap="butt"/><path d="M122.64565,119.62815c0,0 8.52924,-5.70301 14.07407,-7.59259c5.54483,-1.88958 19.07407,-3.7037 19.07407,-3.7037z" data-paper-data="{&quot;origPos&quot;:null}" fill="#000002" stroke-linecap="round"/></g><g data-paper-data="{&quot;origPos&quot;:null}" fill="none" stroke="#000000" stroke-width="2.5" stroke-linecap="round"><path d="M290.50993,61.62948c0,0 -38.25715,-1.37054 -56.57895,20c-2.47627,2.88832 33.3746,33.74015 41.90264,41.5776c2.84268,2.61248 6.51841,7.45749 6.51841,7.45749c0,0 -3.95674,-1.4105 -6.32082,-1.47112c-1.64125,-0.04208 -3.94234,1.20796 -3.94234,1.20796c0,0 5.19831,10.36787 4.31464,14.98262c-0.96494,5.03912 -9.05148,9.75422 -9.05148,9.75422c0,0 -0.07818,-3.02387 -0.63352,-4.79086c-0.57437,-1.82753 -2.26122,-4.41967 -2.26122,-4.41967c0,0 -3.50168,44.16856 -86.89366,46.19509c-40.97221,0.99568 -61.96599,-41.80912 -61.96599,-41.80912c0,0 -1.24774,1.81574 -1.73158,3.1353c-0.64587,1.76147 -1.16316,4.75944 -1.16316,4.75944c0,0 -6.61778,-3.93683 -7.23354,-8.97484c-0.51395,-4.20506 4.3388,-14.70937 4.3388,-14.70937l-6.84211,-0.26316c0,0 3.39768,-2.80103 6.04441,-4.65164c3.6511,-2.55287 6.38032,-4.05137 8.86883,-7.74664c12.47386,-18.52286 20.37231,-50.36393 46.13703,-64.02475c18.32436,-9.71584 53.59885,3.26514 53.59885,3.26514c0,0 61.24131,-14.24029 73.75866,-0.80264c10.23531,10.98783 -19.02182,58.3465 -19.02182,58.3465" data-paper-data="{&quot;origPos&quot;:null}"/><path d="M116.75635,123.20965c0,0 -26.81483,-42.14699 -18.32319,-55.74509c5.71136,-9.1459 54.71663,-2.5336 54.71663,-2.5336" data-paper-data="{&quot;origPos&quot;:null}"/><path d="M98.55963,68.37358c0,0 11.48259,5.45771 18.04509,10.36743c6.39295,4.78288 15.15164,14.46864 15.15164,14.46864" data-paper-data="{&quot;origPos&quot;:null}"/><path d="M166.78794,146.86253h2.11268" data-paper-data="{&quot;origPos&quot;:null}"/><path d="M161.08372,162.49634l6.33803,-6.12676l9.50704,7.39437" data-paper-data="{&quot;origPos&quot;:null}"/><path d="M191.15415,254.32732c0,0 -16.76053,-11.73239 -21.53836,-24.78583c-4.04432,-11.04942 -1.06728,-36.97473 -1.06728,-36.97473" data-paper-data="{&quot;origPos&quot;:null}"/><path d="M245.30907,242.42591c0,0 -17.79498,65.2602 -54.57747,59.78873c-11.3105,-1.68246 -2.78873,-22.8015 0.16517,-38.76698c2.12882,-11.506 3.42638,-29.19076 3.42638,-29.19076" data-paper-data="{&quot;origPos&quot;:null}"/><path d="M184.66784,295.94703c0,0 -3.49614,1.19705 -6.64566,-0.10378c-9.32965,-3.85339 -6.23424,-60.38917 -6.23424,-60.38917" data-paper-data="{&quot;origPos&quot;:null}"/><path d="M310.94287,251.51042c0,0 -15.94481,10.93782 -26.55597,12.80014c-17.88903,3.13964 -46.4722,0.01676 -46.4722,0.01676" data-paper-data="{&quot;origPos&quot;:null}"/><path d="M269.39358,154.82027c0,0 46.80509,-12.18409 68.48244,26.91657c14.56598,26.27348 9.88712,48.09551 15.10911,68.71724c1.70278,6.72432 9.24286,7.04508 9.71831,15.21127c0.28102,4.82663 -11.9112,41.28913 -27.25352,40.21127c-12.34592,-0.86736 -0.75035,-25.5811 -12.35619,-40.63777c-10.14578,-13.16249 -19.75649,-27.67209 -19.75649,-27.67209" data-paper-data="{&quot;origPos&quot;:null}"/><path d="M317.42175,259.67943c0,0 -3.8607,37.84141 -25.98592,37.1831c-9.00152,-0.26783 -7.25352,-30.35211 -7.25352,-30.35211" data-paper-data="{&quot;origPos&quot;:null}"/><path d="M325.7844,166.09574c0,0 19.0354,-1.07012 30.82447,-3.46477c8.73982,-1.77528 21.77827,-7.22016 21.77827,-7.22016c0,0 12.80277,18.24828 -1.57378,37.10322c-7.40346,9.70969 -30.27554,11.59541 -30.27554,11.59541" data-paper-data="{&quot;origPos&quot;:null}"/><path d="M224.99612,158.70553l35.33898,2.28814" data-paper-data="{&quot;origPos&quot;:null}"/><path d="M223.21646,167.85807l19.83051,12.20339" data-paper-data="{&quot;origPos&quot;:null}"/><path d="M209.23341,177.01061l12.45763,12.20339" data-paper-data="{&quot;origPos&quot;:null}"/><path d="M124.14867,148.79028l-26.69492,2.79661" data-paper-data="{&quot;origPos&quot;:null}"/><path d="M128.21646,160.23095l-18.30509,15" data-paper-data="{&quot;origPos&quot;:null}"/><path d="M139.91138,172.43434l-5.33898,11.44068" data-paper-data="{&quot;origPos&quot;:null}"/></g></g></g></svg>