<svg version="1.1" xmlns="http://www.w3.org/2000/svg" xmlns:xlink="http://www.w3.org/1999/xlink" width="321.10526" height="300.89346" viewBox="0,0,321.10526,300.89346"><defs><linearGradient x1="203.33475" y1="109.70104" x2="203.33475" y2="148.87564" gradientUnits="userSpaceOnUse" id="color-1"><stop offset="0" stop-color="#e6e6e6"/><stop offset="1" stop-color="#ffffff"/></linearGradient><linearGradient x1="197.87098" y1="110.10099" x2="197.87098" y2="144.61712" gradientUnits="userSpaceOnUse" id="color-2"><stop offset="0" stop-color="#053d6c"/><stop offset="1" stop-color="#4785b8"/></linearGradient><linearGradient x1="133.8363" y1="103.79642" x2="133.8363" y2="148.70557" gradientUnits="userSpaceOnUse" id="color-3"><stop offset="0" stop-color="#e6e6e6"/><stop offset="1" stop-color="#ffffff"/></linearGradient><linearGradient x1="133.42019" y1="103.82856" x2="133.42019" y2="140.71922" gradientUnits="userSpaceOnUse" id="color-4"><stop offset="0" stop-color="#053d6c"/><stop offset="1" stop-color="#4785b8"/></linearGradient></defs><g transform="translate(-79.43214,-28.88429)"><g data-paper-data="{&quot;isPaintingLayer&quot;:true}" fill="none" fill-rule="nonzero" stroke="none" stroke-width="none" stroke-linecap="none" stroke-linejoin="miter" stroke-miterlimit="10" stroke-dasharray="" stroke-dashoffset="0" font-family="none" font-weight="none" font-size="none" text-anchor="none" style="mix-blend-mode: normal"><g data-paper-data="{&quot;origPos&quot;:null}" stroke-width="0" stroke-linecap="round"><path d="M93.83035,51.70165l17.26027,5.9589l17.67123,1.64384l20.9589,2.46575l13.56164,-4.72603l15.61644,-1.64384l17.60274,1.43836l6.78082,2.26027l36.64384,-5.75342l15,-3.28767l6.84931,72.94521l15,1.23288l2.87671,-1.0274l-4.31507,9.72603l-6.36986,9.24658l-4.10959,4.10959l-2.05479,7.19178l-9.24658,13.83562l5.47945,-1.64384l17.05479,-4.10959l13.56164,0.20548l14.79452,2.46575l11.71233,5.34247l3.69863,-2.87671l13.9726,-8.83562l6.78082,-9.65753l0.20548,-8.0137l-6.57534,-11.30137l-18.28767,-14.79452l-9.0411,-9.10959l-6.57534,-10.68493v-13.9726l4.10959,-8.48249l10.68493,-10.47945l18.49315,-8.63014l12.94521,-1.84932l21.43836,1.64384l17.67123,8.63014l10.89041,12.12329l2.87671,9.86301l-1.23288,9.0411l-5.13699,6.78082l-8.0137,3.90411l-10.68493,0.82192l-9.0411,-2.05479l-4.93151,-2.05479l3.69863,-5.75342l-1.64384,-8.21918l-6.9863,-4.31507l-9.24658,-1.64384l-6.9863,1.43836l-3.28767,3.28767l2.46575,6.64383l4.10959,6.57534l10.68493,8.42466l10.06849,9.0411l9.45206,11.09589l6.16438,12.53425l1.43836,14.79452l-3.49315,10.34246l-6.36986,9.24658l-6.16438,5.13699l-10.89041,8.0137l11.50685,0.41096l8.63014,-1.84932l-7.60274,9.24658l-14.17808,3.90411l-5.54795,0.41096l3.08219,13.90411l3.28767,26.09589l1.43836,19.17808l2.46575,13.15069l2.26027,3.35616l5.13699,5.13699l0.20548,10.27397l-3.28767,11.78082l-7.80822,15.61644l-7.60274,6.9863l-4.52055,3.90411l-4.52055,0.82192l-3.49315,-1.43836l-1.64384,-4.72603v-16.23288l-0.82192,-11.09589l-6.84931,-10.75342l-12.53425,-17.46575l-9.45205,4.72603l-13.15069,6.78082l-14.38356,2.05479l-9.72603,0.41096l-20.13699,-0.41096l-3.83562,-0.61644l-7.05479,13.28767l-7.19178,12.32877l-7.60274,9.45206l-11.30137,9.0411l-8.83562,3.69863l-6.57534,-1.23288l-3.69863,-2.05479l-2.87671,-4.10959l-0.41096,-9.24658l4.93151,-20.9589l3.08219,-19.52055l-12.12329,-8.08219l-12.12329,-12.12329l-4.93151,-9.45206l-1.84932,-11.71233l0.20548,-17.26027l2.05479,-11.30137l-10.75342,-2.46575l-14.38356,-5.75342l-15.41096,-10.89041l-6.78082,-8.15068l-10.06849,-13.35616l-2.05479,-5.9589l12.53425,1.23288l-10.47945,-5.34247l-8.42466,-8.63014l-5.13699,-11.71233l-1.23288,-6.9863h4.31507l14.38356,-42.05479l-17.05479,-27.53425z" data-paper-data="{&quot;origPos&quot;:null}" fill="#ffffff" stroke="#29ff00"/><path d="M104.88966,154.45781c0,0 15.6548,38.20606 72.12489,36.99849c48.8231,-1.04404 85.64106,-38.27508 85.64106,-38.27508l-10.85106,15l-11.80851,11.48936l-12.12766,8.29787l-9.57447,4.78723l-13.08511,4.78723l-14.04255,2.55319l-13.7234,1.2766l-13.40426,-1.2766l-16.91489,-3.82979l-21.06383,-12.12766l-14.3617,-17.23404l-5.10638,-6.38298z" data-paper-data="{&quot;origPos&quot;:null}" fill="#bbc8d8" stroke="#00b8ff"/><path d="M175.56564,201.19389l5.58139,-0.34884l13.25582,-1.74419l18.13953,-3.83721l15.69768,-6.6279l13.25582,-9.4186l12.2093,-11.86047l18.20574,-4.60099c0,0 -14.37233,26.14967 -46.68768,43.89267c-30.00808,16.47617 -63.73784,17.17116 -63.73784,17.17116l0.31914,-11.17022l2.23405,-12.12766z" data-paper-data="{&quot;origPos&quot;:null}" fill="#bbc8d8" stroke="#00b8ff"/><path d="M167.433,248.33956l8.69566,9.56522l10.21739,8.26087l5.86956,3.69565l-2.3913,20.28985l-4.13044,21.30435l-4.56521,2.82609l-3.26087,2.3913l-6.08695,0.43479l-2.82609,-7.82609l-2.39131,-25.65217v-32.68116z" data-paper-data="{&quot;origPos&quot;:null}" fill="#bbc8d8" stroke="#00b8ff"/><path d="M281.78082,279.49898l9.13044,-2.3913l20.86956,-9.7826l8.26087,12.17391l-2.82609,11.73913l-6.52174,14.78261l-7.6087,9.56522l-6.52174,3.69565l-6.08696,1.30435l-4.13043,-5l-3.47826,-21.73913z" data-paper-data="{&quot;origPos&quot;:null}" fill="#bbc8d8" stroke="#00b8ff"/><path d="M337.28806,183.84683c0,0 12.24142,-3.87804 19.93741,-8.86472c8.93261,-5.78796 22.67129,-18.74398 22.67129,-18.74398l-4.78261,12.17391l-10.86956,11.08695l-12.82609,6.73913l12.3913,0.43479l10.2174,-1.73914l-8.47826,8.69565l-8.04348,2.82609l-10.86956,2.17391l-4.78261,-8.69565l-4.56522,-6.08696z" data-paper-data="{&quot;origPos&quot;:null}" fill="#bbc8d8" stroke="#00b8ff"/><path d="M363.59242,95.0787l1.08695,-5.43478l-3.91304,-6.08696l-6.95653,-2.82609l-9.7826,-0.86956l-8.04348,4.78261l1.52174,3.69565l4.78261,9.13043l11.08695,9.13044c0,0 -22.31697,-2.79054 -21.77835,-17.98855c0.45896,-12.95038 8.8933,-14.23829 16.8427,-15.00099c26.42081,-2.53491 24.28708,18.42022 23.48529,22.3443c-0.99184,4.8542 -4.20181,6.08002 -4.20181,6.08002l-7.17391,-2.6087z" data-paper-data="{&quot;origPos&quot;:null}" fill="#bbc8d8" stroke="#00b8ff"/></g><g data-paper-data="{&quot;origPos&quot;:null}" stroke="#ff0000" stroke-width="0" stroke-linecap="round"><path d="M283.56697,32.87669l-1.8686,15.05925l-43.81633,52.33801l-13.35616,-21.57534l8.9726,-12.39726l11.71233,-10.47945l6.16438,-3.28767l10.47945,-3.49315l10.06849,-4.24657l5.13699,-4.72603z" data-paper-data="{&quot;origPos&quot;:null}" fill="#c57e82"/><path d="M237.60806,100.34245c0,0 -1.43225,-9.31992 5.62437,-23.57881c6.04678,-12.21837 18.08229,-15.91435 27.54453,-25.72852c7.04444,-7.30644 12.8585,-19.59678 12.8585,-19.59678l4.72603,16.23288l1.84932,16.9863l-2.46575,17.39726l-4.31507,12.12329l-5.34247,10.47945l-16.23288,18.0137l-7.39726,-4.31507l-10.47945,-10.27397z" data-paper-data="{&quot;origPos&quot;:null}" fill="#dc9c9d"/></g><g data-paper-data="{&quot;origPos&quot;:null}" stroke="#ff0000" stroke-width="0" stroke-linecap="round"><path d="M118.56697,102.8082l-22.85695,-29.90626l-2.6225,-19.27182l15.82192,13.35616l9.45206,11.0274l6.9863,9.86301z" data-paper-data="{&quot;origPos&quot;:null}" fill="#c57e82"/><path d="M93.70396,54.17806c0,0 6.1869,17.00308 10.27834,24.33495c5.93243,10.63091 15.40659,21.69245 15.40659,21.69245l-8.63014,15.27397l-3.69863,4.72603l-5.75342,2.26027l-6.36986,-0.61644l-9.24658,-24.65753l-4.72603,-17.12329l-0.41096,-18.69863l2.05479,-18.08219l1.23288,-3.90411l5.9589,9.24658z" data-paper-data="{&quot;origPos&quot;:null}" fill="#dc9c9d"/></g><g><path d="M229.71966,119.30777c0,0 0.84014,15.3221 -11.31871,23.03684c-10.46326,6.6389 -36.8754,8.24661 -39.75724,4.68468c-2.16233,-2.67262 -5.98939,-21.46983 15.94937,-34.36709c16.02313,-9.41962 35.12659,6.64557 35.12659,6.64557z" data-paper-data="{&quot;origPos&quot;:null}" fill="url(#color-1)" stroke="#000000" stroke-width="0.5" stroke-linecap="round"/><path d="M213.83872,127.35905c0,9.53137 -7.149,17.25806 -15.96774,17.25806c-8.81874,0 -15.96774,-7.7267 -15.96774,-17.25806c0,-9.53137 7.149,-17.25806 15.96774,-17.25806c8.81874,0 15.96774,7.7267 15.96774,17.25806z" data-paper-data="{&quot;origPos&quot;:null}" fill="url(#color-2)" stroke="#ff0000" stroke-width="0" stroke-linecap="butt"/><path d="M205.61291,125.02034c0,5.9237 -4.29662,10.72581 -9.59677,10.72581c-5.30015,0 -9.59677,-4.80211 -9.59677,-10.72581c0,-5.9237 4.29662,-10.72581 9.59677,-10.72581c5.30015,0 9.59677,4.80211 9.59677,10.72581z" data-paper-data="{&quot;origPos&quot;:null}" fill="#01203c" stroke="#ff0000" stroke-width="0" stroke-linecap="butt"/><path d="M211.41936,125.26228c0,2.67235 -2.34689,4.83871 -5.24194,4.83871c-2.89504,0 -5.24194,-2.16636 -5.24194,-4.83871c0,-2.67235 2.34689,-4.83871 5.24194,-4.83871c2.89504,0 5.24194,2.16636 5.24194,4.83871z" data-paper-data="{&quot;origPos&quot;:null}" fill="#ffffff" stroke="#ff0000" stroke-width="0" stroke-linecap="butt"/><path d="M178.51613,130.58486c0,0 0.54381,-23.61713 27.29217,-24.40494c11.40783,-0.33599 24.68437,5.42347 28.86556,7.42673c3.08385,1.47751 7.82077,1.49434 7.82077,1.49434c0,0 -0.69219,2.95052 -1.75464,4.52929c-1.18261,1.75734 -3.99804,4.0191 -3.99804,4.0191c0,0 1.61909,0.30397 2.65539,0.18883c1.22974,-0.13664 3.15106,-0.83399 3.15106,-0.83399c0,0 -0.4,3.36489 -4.34649,4.71847c-3.53839,1.21361 -9.84706,0.28153 -9.84706,0.28153c0,0 2.30302,-6.91976 -0.46451,-9.19659c-5.4024,-4.44452 -13.36217,-9.10036 -21.97161,-8.70786c-19.04201,0.86811 -27.40259,20.48509 -27.40259,20.48509z" data-paper-data="{&quot;origPos&quot;:null}" fill="#011327" stroke="#ff0000" stroke-width="0" stroke-linecap="round"/></g><g data-paper-data="{&quot;origPos&quot;:null}"><path d="M121.5531,134.14098c-5.21257,-10.01773 -1.90374,-26.33487 2.08861,-28.86076c16.75591,-10.60117 32.76106,38.94245 21.26582,42.91139c-7.67658,2.65049 -18.84746,-5.38895 -23.35443,-14.05063z" data-paper-data="{&quot;origPos&quot;:null}" fill="url(#color-3)" stroke="#000000" stroke-width="0.5" stroke-linecap="round"/><path d="M143.71306,121.20616c1.05495,10.16969 -2.69812,18.89189 -8.38272,19.48157c-5.6846,0.58969 -11.14807,-7.17644 -12.20302,-17.34612c-1.05495,-10.16969 2.69812,-18.89189 8.38272,-19.48157c5.6846,-0.58969 11.14807,7.17644 12.20302,17.34612z" data-paper-data="{&quot;origRot&quot;:0,&quot;origPos&quot;:null}" fill="url(#color-4)" stroke="#ff0000" stroke-width="0" stroke-linecap="butt"/><path d="M139.21132,120.18528c0,5.92483 -2.59278,10.72785 -5.79114,10.72785c-3.19836,0 -5.79114,-4.80302 -5.79114,-10.72785c0,-5.92483 2.59278,-10.72785 5.79114,-10.72785c3.19836,0 5.79114,4.80302 5.79114,10.72785z" data-paper-data="{&quot;origPos&quot;:null}" fill="#01203c" stroke="#ff0000" stroke-width="0" stroke-linecap="butt"/><path d="M142.05943,122.65364c0,2.35944 -1.78519,4.27215 -3.98734,4.27215c-2.20215,0 -3.98734,-1.91271 -3.98734,-4.27215c0,-2.35944 1.78519,-4.27215 3.98734,-4.27215c2.20215,0 3.98734,1.91271 3.98734,4.27215z" data-paper-data="{&quot;origPos&quot;:null}" fill="#ffffff" stroke="#ff0000" stroke-width="0" stroke-linecap="butt"/><path d="M107.12272,118.1916c0,0 2.47281,0.27867 4.05553,-0.02908c1.0849,-0.21095 2.77992,-1.30003 2.77992,-1.30003c0,0 -2.73017,-1.10097 -4.11303,-2.29177c-1.28476,-1.10632 -2.72242,-3.5943 -2.72242,-3.5943c0,0 3.3932,-0.42612 4.87387,-1.3823c5.04257,-3.25637 9.92215,-9.80407 17.14526,-9.49519c18.0459,0.7717 18.04416,29.29521 18.04416,29.29521c0,0 -1.65769,-7.16388 -5.2934,-13.36436c-3.47947,-5.93402 -8.86263,-12.8072 -14.65892,-12.34423c-7.96419,0.63613 -8.52869,16.97441 -8.52869,16.97441c0,0 -3.59825,1.1319 -5.90131,0.64108c-2.21707,-0.47249 -5.68097,-3.10943 -5.68097,-3.10943z" data-paper-data="{&quot;origPos&quot;:null}" fill="#011327" stroke="#ff0000" stroke-width="0" stroke-linecap="round"/></g><g data-paper-data="{&quot;origPos&quot;:null}" fill="none" stroke="#000000" stroke-width="2.5" stroke-linecap="round"><path d="M257.63866,150.48263c0,0 8.95361,-5.47949 12.89819,-10.32629c4.58675,-5.63584 8.96227,-16.53417 8.96227,-16.53417c0,0 -12.66913,2.92078 -21.82528,-3.16821c-18.57363,-12.35177 -33.291,-41.83179 -33.291,-41.83179c0,0 9.10493,-13.33505 18.72821,-20.97706c9.05041,-7.1871 17.82349,-6.32466 27.66346,-12.38594c6.20508,-3.82224 12.91066,-13.73004 12.91066,-13.73004c0,0 10.26574,25.43935 3.4939,51.79896c-6.4685,25.17883 -25.47065,38.54988 -25.47065,38.54988" data-paper-data="{&quot;origPos&quot;:null}"/><path d="M264.96423,148.04076c0,0 -21.05001,55.93942 -94.30261,52.55024c-49.09357,-2.27141 -66.39506,-46.62001 -66.39506,-46.62001c0,0 4.70244,0.54968 7.26569,0.9015c4.3798,0.60115 9.0496,0.06496 9.0496,0.06496c0,0 -12.54883,-2.58681 -18.34817,-8.61681c-8.69773,-9.04367 -10.87409,-24.44266 -10.87409,-24.44266c0,0 13.62498,1.8813 17.54595,-3.55707c16.70614,-23.17137 15.75536,-43.38731 41.2337,-56.3048c25.54257,-12.95005 53.54594,-2.57999 53.54594,-2.57999l54.76744,-9.4186" data-paper-data="{&quot;origPos&quot;:null}"/><path d="M149.03401,61.52913c0,0 -8.66723,-1.13481 -14.64935,-1.7615c-8.8879,-0.93111 -14.59556,-1.09728 -23.38883,-2.69106c-6.93723,-1.25737 -17.77578,-5.66372 -17.77578,-5.66372" data-paper-data="{&quot;origPos&quot;:null}"/><path d="M94.96423,121.18029c0,0 -10.81733,-23.07131 -13.23893,-39.11915c-3.23131,-21.41373 2.07614,-43.55527 2.07614,-43.55527c0,0 5.91321,10.55509 11.00192,16.22671c6.82634,7.60829 12.80116,10.10821 19.38365,17.92843c6.65644,7.90808 10.42839,14.33324 10.42839,14.33324" data-paper-data="{&quot;origPos&quot;:null}"/><path d="M162.66255,153.55034l-2.45902,2.70492l-1.96721,-2.95082z" data-paper-data="{&quot;origPos&quot;:null}"/><path d="M177.66255,164.53395c0,0 -4.70196,3.44262 -7.86885,3.44262c-3.35882,0 -8.85246,-3.44262 -8.85246,-3.44262c0,0 -5.39458,3.76379 -8.37521,3.96935c-2.58541,0.1783 -5.88709,-2.98574 -5.88709,-2.98574" data-paper-data="{&quot;origPos&quot;:null}"/><path d="M115.85927,156.6651l-29.2623,-6.14754" data-paper-data="{&quot;origPos&quot;:null}"/><path d="M100.36747,174.12411l24.09836,-6.63934" data-paper-data="{&quot;origPos&quot;:null}"/><path d="M133.07238,178.30445l-16.96721,12.54098" data-paper-data="{&quot;origPos&quot;:null}"/><path d="M230.44943,198.46838l-16.72131,-10.08197" data-paper-data="{&quot;origPos&quot;:null}"/><path d="M245.69533,180.76346l-27.54098,-4.91803" data-paper-data="{&quot;origPos&quot;:null}"/><path d="M217.66255,165.27166l24.34426,-7.13115" data-paper-data="{&quot;origPos&quot;:null}"/><path d="M179.75048,105.53547c0,0 3.15396,-2.41454 5.87089,-3.43629c6.89814,-2.59417 11.14885,-2.96199 18.17223,-5.19499c3.17209,-1.00853 7.86598,-3.36872 7.86598,-3.36872" data-paper-data="{&quot;origPos&quot;:null}"/><path d="M144.56866,101.99002c0,0 -4.06511,-1.21949 -6.31787,-3.22194c-3.49475,-3.10644 -8.4094,-9.86897 -8.4094,-9.86897" data-paper-data="{&quot;origPos&quot;:null}"/><path d="M191.93229,270.26274c0,0 -22.59685,-14.01513 -27.98289,-27.34951c-5.57679,-13.80662 -0.10802,-42.19594 -0.10802,-42.19594" data-paper-data="{&quot;origPos&quot;:null}"/><path d="M248.38683,258.80819c0,0 -26.99025,78.96273 -57.81818,67.09091c-9.4824,-3.65167 -3.67071,-21.074 -0.58167,-38.28014c2.38589,-13.28953 4.12713,-36.44713 4.12713,-36.44713" data-paper-data="{&quot;origPos&quot;:null}"/><path d="M184.80613,312.26089c0,0 -4.51176,5.83945 -12.81633,4.43414c-8.30457,-1.40531 -5.42115,-68.96846 -5.42115,-68.96846" data-paper-data="{&quot;origPos&quot;:null}"/><path d="M310.11411,267.26274c0,0 -14.64486,9.4357 -24.89112,11.46016c-16.14971,3.19087 -45.00552,1.49252 -45.00552,1.49252" data-paper-data="{&quot;origPos&quot;:null}"/><path d="M254.29593,167.7173c0,0 41.25769,-22.09343 83.1026,16.70189c17.29238,16.03213 12.97623,62.76929 18.98831,85.57083c1.85889,7.05007 7.33098,5.54111 7.82235,12.5579c1.47412,21.05036 -19.0346,48.42002 -29.09508,45.80574c-9.65009,-2.50764 1.11728,-26.50827 -8.15662,-38.89249c-11.63043,-15.53109 -23.38883,-34.74388 -23.38883,-34.74388" data-paper-data="{&quot;origPos&quot;:null}"/><path d="M319.90864,280.35739c0,0 -7.21818,40.75393 -29.24907,39.81445c-7.26345,-0.30974 -8.18182,-39.27273 -8.18182,-39.27273" data-paper-data="{&quot;origPos&quot;:null}"/><path d="M316.09736,168.78586c0,0 24.79791,-11.66661 24.96164,-25.15597c0.26064,-21.47314 -41.73871,-28.43197 -41.13637,-57.25525c0.47651,-22.8019 31.59463,-34.86602 47.70244,-35.36861c36.35261,-1.13427 51.50641,22.10293 51.66234,31.47533c0.34665,20.83605 -19.48424,20.55151 -23.27852,20.83561c-7.35378,0.55061 -15.98846,-3.37725 -15.98846,-3.37725c0,0 4.02702,-3.26066 4.38638,-8.19919c0.41507,-5.70414 -6.66689,-11.57926 -16.29273,-11.83809c-13.08296,-0.35179 -19.47826,13.57574 -19.47826,13.57574" data-paper-data="{&quot;origPos&quot;:null}"/><path d="M336.25121,85.63202c0,0 1.81502,7.56852 5.06271,10.63499c9.74306,9.19941 40.87695,28.08151 38.9766,54.69857c-1.81637,25.44081 -29.11623,35.66644 -29.11623,35.66644c0,0 6.59956,0.11333 10.67591,-0.25725c4.83965,-0.43997 12.17024,-1.81967 12.17024,-1.81967c0,0 -5.54945,8.55739 -12.11074,10.84971c-5.81871,2.03288 -15.3508,2.53491 -15.3508,2.53491" data-paper-data="{&quot;origPos&quot;:null}"/></g></g></g></svg>