<svg version="1.1" xmlns="http://www.w3.org/2000/svg" xmlns:xlink="http://www.w3.org/1999/xlink" width="313.57869" height="260.75718" viewBox="0,0,313.57869,260.75718"><defs><linearGradient x1="186.80613" y1="115.55706" x2="186.80613" y2="151.8747" gradientUnits="userSpaceOnUse" id="color-1"><stop offset="0" stop-color="#e0eceb"/><stop offset="1" stop-color="#ffffff"/></linearGradient><linearGradient x1="178.53754" y1="118.47975" x2="178.53754" y2="145.48118" gradientUnits="userSpaceOnUse" id="color-2"><stop offset="0" stop-color="#092e00"/><stop offset="1" stop-color="#256e12"/></linearGradient><linearGradient x1="126.58559" y1="113.14614" x2="126.58559" y2="151.4815" gradientUnits="userSpaceOnUse" id="color-3"><stop offset="0" stop-color="#e0eceb"/><stop offset="1" stop-color="#ffffff"/></linearGradient><linearGradient x1="126.23929" y1="114.47955" x2="126.23929" y2="140.81426" gradientUnits="userSpaceOnUse" id="color-4"><stop offset="0" stop-color="#092e00"/><stop offset="1" stop-color="#256e12"/></linearGradient></defs><g transform="translate(-83.84354,-49.62142)"><g data-paper-data="{&quot;isPaintingLayer&quot;:true}" fill="none" fill-rule="nonzero" stroke="none" stroke-width="none" stroke-linecap="none" stroke-linejoin="miter" stroke-miterlimit="10" stroke-dasharray="" stroke-dashoffset="0" font-family="none" font-weight="none" font-size="none" text-anchor="none" style="mix-blend-mode: normal"><g data-paper-data="{&quot;origPos&quot;:null}" stroke="#ff0000" stroke-width="0" stroke-linecap="round"><path d="M98.67499,103.00202l4.8226,-5.32423l1.11291,-3.99316l-1.85485,-4.94392l-5.00808,-4.18332l0.37097,-12.48658l3.33872,-13.69087l1.85485,-3.23256l7.79035,6.65528l5.56454,6.84543l4.26615,9.88786l3.15324,8.17649l-5.75002,7.85957l-5.37905,14.83177l-3.70969,9.31739l-2.04033,4.75376l-4.45163,-7.41588l-3.33872,-8.74694z" data-paper-data="{&quot;origPos&quot;:null}" fill="#e2a0a1"/><path d="M111.10246,61.80265l5.75002,7.03558l7.41938,17.49389l-5.00808,7.22574c0,0 -2.58988,-11.734 -5.43474,-18.87925c-2.94617,-7.39969 -9.40402,-18.39033 -9.40402,-18.39033z" data-paper-data="{&quot;origPos&quot;:null}" fill="#b87878"/></g><g data-paper-data="{&quot;origPos&quot;:null}" stroke="#ff0000" stroke-width="0" stroke-linecap="round"><path d="M237.29379,51.59791l3.89518,5.70453l5.37905,12.23304l2.96775,11.2189l0.55646,10.078l-1.11291,9.31739l-1.66937,10.26815l-4.26615,10.07799l-2.41131,3.80302l-10.7581,-12.16966l-10.9436,-11.21889l-7.97583,-6.46514l-3.15324,-5.89468l0.74194,-10.8386l5.00808,-9.44416l8.53229,-9.12725l9.27423,-5.45099z" data-paper-data="{&quot;origPos&quot;:null}" fill="#e2a0a1"/><path d="M227.18822,64.2807c-8.10407,15.35247 -9.92678,35.2986 -9.92678,35.2986l-6.12098,-4.94392l-3.33872,-6.33836l0.92743,-10.64845l5.00808,-9.31739l8.16133,-8.93709l9.08875,-5.32423l6.30648,-2.47196l1.11291,2.09166c0,0 -7.9532,4.40535 -11.21847,10.59115z" data-paper-data="{&quot;origPos&quot;:null}" fill="#b87878"/></g><path d="M123.70535,86.27985l11.0623,-10.26054l10.18434,-7.7404l2.63388,-1.26006l29.79211,-1.74009l6.49691,1.08006l11.94026,3.24018l12.46703,9.72052l-0.35119,10.08053l4.44834,7.08038l13.87177,20.34108l9.89169,3.00015l7.90164,8.82047l6.67249,4.14022l-14.57414,30.1216l17.5592,-3.60019l19.43218,1.08006l18.96394,7.20039l15.21798,-0.90005l9.65756,-0.90005l11.76467,-6.30034l3.68743,-8.52045l0.35119,-13.50071l-1.75592,-16.26086l1.28767,-12.66068l8.07723,-14.76077l9.48197,-7.20039l10.88671,-3.06017h10.00875l-3.80449,32.94174l-3.98008,11.40061l-0.17559,23.58124l-0.87796,14.04074l-3.51184,10.62056l-7.19927,8.46045l-9.7161,5.82031l-24.4073,3.78019l2.80948,7.92042l1.22914,12.96068l-0.70236,23.76126l0.35119,5.58029l2.80948,9.72052l3.51184,5.04027l4.5654,3.24018l0.99501,4.08021l-0.52678,9.72052l-4.3898,10.08053l-6.49691,11.3406l-19.8419,-2.88015l-1.05356,-16.02085l-2.98506,-10.44055l-5.79454,-9.54051l-4.91657,-5.7603l-13.52059,8.22044l-15.2765,6.66035l-17.91039,0.90005l-14.74973,-1.26006l-7.90164,-1.26006l-8.48694,16.38087l-7.72605,11.70062l-7.72605,7.5604l-24.58289,-8.46045l1.93151,-12.06063l2.80948,-14.04074l0.87796,-11.88063l-9.83315,-7.38039l-8.77961,-10.98058l-3.86302,-7.6204l-1.40473,-13.68073l1.75592,-18.18097l-12.64263,-2.46013l-12.64263,-5.58029l-11.94026,-9.18049l-12.46703,-15.30081l-5.97013,-13.68073l-2.98506,-9.3605l10.00875,-12.60066l5.09217,-9.3605l6.84809,-17.28092l3.33626,-8.64045l4.3898,-6.12032z" data-paper-data="{&quot;origPos&quot;:null}" fill="#5e504d" stroke="#29ff00" stroke-width="0" stroke-linecap="round"/><path d="M169.33017,290.26709c0,0 8.77884,-0.10515 13.7687,1.89109c4.92641,1.97086 11.6405,8.27414 11.6405,8.27414l-4.80296,4.28846l-8.98618,4.28846l-7.2819,0.4765l-4.95789,-4.4473l-1.23947,-6.82978z" data-paper-data="{&quot;origPos&quot;:null}" fill="#e3c1a6" stroke="#29ff00" stroke-width="0" stroke-linecap="round"/><path d="M301.2308,290.74358c0,0 4.68645,-2.87471 10.60299,-2.0627c5.03082,0.69046 11.86246,5.71584 11.86246,5.71584l-6.3523,7.9416l-5.57763,4.12963h-6.19736l-3.56348,-3.4943z" data-paper-data="{&quot;origPos&quot;:null}" fill="#e3c1a6" stroke="#29ff00" stroke-width="0" stroke-linecap="round"/><path d="M273.03277,260.93614l13.47927,-8.25926l5.11283,6.72389l-1.85922,12.70656l-6.04243,15.88319l-6.66216,10.32408l-7.2819,3.97079l-5.42269,-0.63532l-3.56348,-4.76496l-0.61974,-5.08262l0.15493,-10.80057l-1.85922,-13.18305z" data-paper-data="{&quot;origPos&quot;:null}" fill="#493534" stroke="#29ff00" stroke-width="0" stroke-linecap="round"/><path d="M168.19399,301.49121l-4.02829,1.11182l-3.87335,-0.95299l-3.56348,-6.67093l-2.63388,-18.74217l0.30987,-23.08358l1.23947,-15.72436l8.83125,10.48291l9.60593,7.62394l-0.61974,12.54773l-4.02829,20.06577l-2.01415,10.32408z" data-paper-data="{&quot;origPos&quot;:null}" fill="#493534" stroke="#29ff00" stroke-width="0" stroke-linecap="round"/><path d="M154.7741,282.45568c0,0 4.78852,-1.72532 7.35018,-1.28196c3.34496,0.57894 7.78481,3.9015 7.78481,3.9015l-2.3587,13.50071l0.39311,3.22405l-3.53804,1.00751l-3.93116,-0.80601l-3.53804,-7.05261z" data-paper-data="{&quot;origPos&quot;:null}" fill="#b68b6b" stroke="#29ff00" stroke-width="0" stroke-linecap="round"/><path d="M260.19484,285.67972c0,0 5.17085,-3.29913 11.41312,-2.29931c5.05913,0.81031 10.99452,5.92637 10.99452,5.92637l-5.50363,9.47064l-6.87954,3.62706l-6.28986,-1.20901l-3.14494,-4.23157l-0.78623,-5.03758z" data-paper-data="{&quot;origPos&quot;:null}" fill="#b68b6b" stroke="#29ff00" stroke-width="0" stroke-linecap="round"/><path d="M162.7098,163.39974c-0.21927,6.55405 -6.07374,11.87412 -13.56608,11.87412c-7.49234,0 -14.35941,-7.75612 -14.35941,-14.31401c0,-6.5579 4.3284,-9.75954 11.82073,-9.75954c7.49234,0 16.42208,2.71367 16.10475,12.19944z" data-paper-data="{&quot;origPos&quot;:null}" fill="#e3c1a6" stroke="#1400ff" stroke-width="0" stroke-linecap="butt"/><path d="M152.36943,197.29629l13.5178,0.6429l15.05074,-1.71439l12.61197,-2.78585l19.44055,-9.64337l15.5385,-12.78638l7.94344,-8.14329l9.82478,-1.92868c0,0 -12.53133,25.72714 -30.57169,36.44347c-21.33487,12.6733 -64.95875,15.05927 -64.95875,15.05927z" data-paper-data="{&quot;origPos&quot;:null}" fill="#493534" stroke="#3dff00" stroke-width="0" stroke-linecap="round"/><g data-paper-data="{&quot;origPos&quot;:null}" stroke="#1400ff" stroke-width="0" stroke-linecap="round"><path d="M103.31528,54.09279l3.49068,-0.48798l9.20272,1.13861l7.61604,2.27723l12.53474,5.85573l9.36138,4.71712l-3.17336,2.76521c0,0 -2.11631,7.93883 -4.01467,12.64844c-1.19775,2.97147 -3.91871,7.03332 -3.91871,7.03332c0,0 -1.92458,-2.17204 -2.70323,-4.11975c-0.7694,-1.92456 -1.26346,-5.80245 -1.26346,-5.80245l-6.50537,6.18106l-6.98137,-17.07921l-6.02936,-7.31967l-7.14004,-6.83169z" data-paper-data="{&quot;origPos&quot;:null}" fill="#2e2321"/><path d="M148.0595,65.69579l1.90401,-2.11457l4.28402,-1.13861l9.83739,-0.16265l14.12141,2.92786c0,0 -9.90115,9.55136 -15.24141,16.96554c-5.4961,7.63055 -12.5254,21.58469 -12.5254,21.58469c0,0 -7.73392,-4.32344 -7.92,-18.81494c-0.07428,-5.7841 6.49199,-17.13275 6.49199,-17.13275z" data-paper-data="{&quot;origPos&quot;:null}" fill="#2e2321"/><path d="M185.50504,66.99707l4.91869,1.78925c0,0 -4.1147,6.42682 -6.83896,9.70408c-3.34409,4.02292 -8.71045,9.00172 -8.71045,9.00172c0,0 -0.48821,-8.08805 0.83074,-13.26482c0.84832,-3.32953 4.72262,-8.53152 4.72262,-8.53152z" data-paper-data="{&quot;origPos&quot;:null}" fill="#2e2321"/><path d="M192.85664,66.78018l8.09204,-6.66904l9.20272,-6.01839l7.14004,-2.43989l9.52005,-0.81329l11.42406,-0.32533l-8.25071,4.06648l-8.09204,4.98822l-7.77471,8.29563l-5.55336,9.59689l-0.58178,9.92221c0,0 -4.47615,-7.9063 -8.42873,-12.2234c-2.67308,-2.91959 -8.54869,-6.31974 -8.54869,-6.31974z" data-paper-data="{&quot;origPos&quot;:null}" fill="#2e2321"/><path d="M106.06549,125.22905l3.01469,-7.15701l5.8707,-13.98869c0,0 -0.35647,4.81082 -0.22208,7.23958c0.40315,7.28628 1.6501,18.56902 1.6501,18.56902c0,0 -4.21029,0.3133 -6.81444,0.14217c-2.22576,-0.14626 -5.56163,-0.95546 -5.56163,-0.95546z" data-paper-data="{&quot;origPos&quot;:null}" fill="#2e2321"/><path d="M93.68944,141.71186c0,0 7.69624,7.03872 13.25668,10.24304c4.90439,2.82627 13.55813,5.20959 13.55813,5.20959c0,0 -4.21281,3.96623 -7.45302,5.38982c-3.69504,1.62344 -10.31774,2.41782 -10.31774,2.41782l-6.3467,-13.82603z" data-paper-data="{&quot;origPos&quot;:null}" fill="#2e2321"/><path d="M111.08997,176.03295c0,0 4.57601,-0.88031 7.32362,-2.00126c3.32076,-1.35477 8.2258,-4.34243 8.2258,-4.34243c0,0 0.82905,4.8539 0.09079,7.1244c-1.24325,3.82356 -5.16815,8.49088 -5.16815,8.49088l-6.50537,-4.55446z" data-paper-data="{&quot;origPos&quot;:null}" fill="#2e2321"/><path d="M220.62346,102.83631l6.66403,6.50637l10.63073,12.03678c0,0 -10.15845,1.54973 -16.47912,3.19204c-7.11643,1.84908 -17.95173,5.75421 -17.95173,5.75421l-4.91869,-5.2051c0,0 5.22212,-11.78201 9.19898,-19.13726c2.02957,-3.75372 6.19177,-9.3281 6.19177,-9.3281z" data-paper-data="{&quot;origPos&quot;:null}" fill="#2e2321"/><path d="M207.87716,155.37523c0,0 16.19991,-7.89875 25.48105,-14.25516c5.4563,-3.73688 12.28182,-11.60765 12.28182,-11.60765l7.45738,4.06648l-5.71203,12.36209l-9.20272,13.66337c0,0 -10.39987,1.19442 -16.24059,0.37934c-5.98638,-0.83539 -14.0649,-4.60849 -14.0649,-4.60849z" data-paper-data="{&quot;origPos&quot;:null}" fill="#2e2321"/><path d="M194.16181,169.30969c0,0 7.2254,3.54896 12.48448,5.26298c5.45344,1.77736 14.965,3.68328 14.965,3.68328c0,0 2.32744,14.95721 1.00741,21.65019c-0.9711,4.92382 -6.87812,8.11643 -6.87812,8.11643c0,0 -2.34709,-7.57128 -4.84633,-12.13854c-1.77337,-3.24076 -6.10172,-7.86854 -6.10172,-7.86854c0,0 -6.42577,-3.25315 -8.45396,-6.82197c-2.12057,-3.73135 -2.17675,-11.88384 -2.17675,-11.88384z" data-paper-data="{&quot;origPos&quot;:null}" fill="#2e2321"/><path d="M235.94082,162.91095l17.27135,-3.54118l3.23838,0.22132c0,0 8.76782,15.89824 8.25788,25.18737c-1.13782,20.72739 -16.02998,27.04489 -16.02998,27.04489c0,0 -5.57011,-16.24074 -9.80961,-26.17478c-2.83789,-6.6498 -8.32531,-16.31926 -8.32531,-16.31926z" data-paper-data="{&quot;origPos&quot;:null}" fill="#2e2321"/><path d="M274.00976,160.4764l16.83956,6.41836l6.47676,3.7625c0,0 0.62852,12.99283 -1.21695,17.27636c-2.62002,6.08137 -10.22533,9.2824 -10.22533,9.2824c0,0 -1.99246,-13.68271 -5.74027,-21.05776c-3.58234,-7.04943 -13.04233,-15.9032 -13.04233,-15.9032z" data-paper-data="{&quot;origPos&quot;:null}" fill="#2e2321"/><path d="M155.43679,237.20202l8.36645,9.52991l7.59178,6.35327c0,0 -6.14715,0.24075 -9.78415,-0.31678c-2.83277,-0.43425 -6.79381,-2.22453 -6.79381,-2.22453z" data-paper-data="{&quot;origPos&quot;:null}" fill="#201718"/><path d="M161.98839,262.60282c3.18733,1.71976 6.92768,6.15379 6.92768,6.15379c0,0 -3.75854,2.486 -6.56087,3.06057c-2.94186,0.60317 -8.15788,-0.04277 -8.15788,-0.04277v-10.9594c0,0 5.23423,0.40825 7.79107,1.78781z" data-paper-data="{&quot;origPos&quot;:null}" fill="#201718"/><path d="M173.61574,267.75067c0,0 5.81333,2.80846 8.84001,4.80936c3.44309,2.27616 7.73795,6.15005 7.73795,6.15005c0,0 -5.43738,3.38235 -8.71925,3.92067c-4.27626,0.70141 -10.64752,-0.74402 -10.64752,-0.74402l1.54934,-7.9416z" data-paper-data="{&quot;origPos&quot;:null}" fill="#2e2321"/><path d="M175.47494,248.1614c0,0 8.34953,1.09138 12.50366,3.1115c5.27841,2.56685 11.66606,8.64205 11.66606,8.64205c0,0 -7.49918,2.81384 -12.59653,3.19159c-4.93985,0.36607 -13.12254,-1.28561 -13.12254,-1.28561l1.54934,-13.65954z" data-paper-data="{&quot;origPos&quot;:null}" fill="#2e2321"/><path d="M258.1065,267.75067l12.54966,-5.40029l6.66216,1.90599c0,0 -3.87574,6.73513 -6.82566,8.77337c-5.22683,3.61145 -11.30163,1.86838 -11.30163,1.86838z" data-paper-data="{&quot;origPos&quot;:null}" fill="#201718"/><path d="M298.5443,272.99214c0,0 5.87327,-2.46257 9.33496,-2.92047c4.03598,-0.53388 9.87688,0.37916 9.87688,0.37916c0,0 -3.19895,5.62337 -6.43644,7.6977c-3.5346,2.2647 -10.91619,3.42054 -10.91619,3.42054l0.30987,-3.01782z" data-paper-data="{&quot;origPos&quot;:null}" fill="#2e2321"/><path d="M286.7693,252.44986c0,0 5.4176,-3.33608 9.57931,-4.65807c4.42433,-1.4054 12.42135,-2.33053 12.42135,-2.33053c0,0 -2.63709,7.1063 -5.31664,10.63807c-2.82278,3.7206 -8.78238,7.94526 -8.78238,7.94526l-2.47894,-4.76496z" data-paper-data="{&quot;origPos&quot;:null}" fill="#2e2321"/><path d="M316.29975,165.63237l7.72605,-3.24018l4.3898,-3.06017l2.2827,-4.32023l1.40473,-4.86026l-0.11706,-12.84067v-5.40029l-1.05356,-12.66068l1.22914,-10.44055l3.51184,-7.5604l5.61895,-7.92042l4.97512,-4.32023l5.26776,-3.42018l7.90164,-2.16011l9.30638,-0.36002l6.49691,0.84004l8.60401,3.06017l5.26776,4.32023l5.79454,10.98058l-7.37487,-3.96021l3.68743,10.08053l-0.87796,6.12032l-2.98506,5.94031l-3.86302,-3.24018l-6.84809,-3.06017l-7.72605,-0.54003l-8.60401,4.14022c0,0 -9.20513,-3.77753 -12.13931,-9.68211c-2.61651,-5.26533 -2.08365,-18.93941 -2.08365,-18.93941l-4.3898,3.78019l-5.79454,8.10043l-3.68743,7.5604l-1.40473,9.90052l0.52678,7.98041c0,0 8.82007,7.51802 14.90899,8.84317c6.17742,1.3444 16.52198,-2.0028 16.52198,-2.0028v18.901c0,0 -9.81328,6.94784 -16.09428,7.30163c-6.19093,0.34872 -15.86349,-5.50154 -15.86349,-5.50154l-2.2827,4.68025l-3.51184,3.24018c0,0 3.34123,10.75936 7.10645,14.76551c5.28036,5.61823 16.07171,9.89579 16.07171,9.89579l-1.46327,0.84004l-2.80948,2.16011l-14.57414,5.22028l-11.00377,2.70015l-5.09217,-11.1606l-4.3898,-5.40029c0,0 -0.92417,-4.79088 -0.92417,-7.55408c0,-2.64612 0.92417,-6.30664 0.92417,-6.30664z" data-paper-data="{&quot;origPos&quot;:null}" fill="#2e2321"/></g><g data-paper-data="{&quot;origPos&quot;:null}" stroke="#ff0000" stroke-width="0"><path d="M165.61201,148.48133c0,0 -9.74287,-20.57954 12.14625,-29.92182c20.3661,-8.69226 32.40212,4.2538 32.40212,4.2538c0,0 0.4028,16.06825 -16.5837,24.83465c-17.43317,8.99691 -27.96466,0.83337 -27.96466,0.83337z" data-paper-data="{&quot;origPos&quot;:null}" fill="url(#color-1)" stroke-linecap="round"/><path d="M190.65015,131.98047c0,7.45623 -5.42299,13.50071 -12.11259,13.50071c-6.6896,0 -12.11259,-6.04447 -12.11259,-13.50071c0,-7.45623 5.42299,-13.50071 12.11259,-13.50071c6.6896,0 12.11259,6.04447 12.11259,13.50071z" data-paper-data="{&quot;origPos&quot;:null}" fill="url(#color-2)" stroke-linecap="butt"/><path d="M183.98414,130.81374c0,4.69468 -2.98447,8.50045 -6.666,8.50045c-3.68153,0 -6.66599,-3.80578 -6.66599,-8.50045c0,-4.69468 2.98447,-8.50044 6.66599,-8.50044c3.68154,0 6.666,3.80578 6.666,8.50044z" data-paper-data="{&quot;origPos&quot;:null}" fill="#021400" stroke-linecap="butt"/><path d="M182.35829,127.6469c0,-2.30131 1.81979,-4.16688 4.06463,-4.16688c2.24483,0 4.06463,1.86557 4.06463,4.16688c0,2.30131 -1.81979,4.16688 -4.06463,4.16688c-2.24483,0 -4.06463,-1.86558 -4.06463,-4.16688z" data-paper-data="{&quot;origPos&quot;:null}" fill="#ffffff" stroke-linecap="butt"/><path d="M163.01065,125.64679c0,0 13.12211,-9.20047 22.9778,-10.60864c8.35473,-1.19372 23.84674,3.10825 23.84674,3.10825c0,0 -14.41105,-1.73966 -23.0871,-0.50002c-8.67605,1.23963 -23.73745,8.00043 -23.73745,8.00043z" data-paper-data="{&quot;origPos&quot;:null}" fill="#000002" stroke-linecap="round"/></g><g data-paper-data="{&quot;origPos&quot;:null}" stroke="#ff0000" stroke-width="0"><path d="M115.42737,113.14614c0,0 14.8197,-3.51147 23.73745,12.74829c3.03901,20.98857 -4.55238,25.58706 -4.55238,25.58706c0,0 -16.07008,-6.6436 -19.79979,-14.09628c-3.75751,-7.50819 0.61474,-24.23908 0.61474,-24.23908z" data-paper-data="{&quot;origPos&quot;:null}" fill="url(#color-3)" stroke-linecap="round"/><path d="M134.77501,126.73019c0,7.77842 -3.82157,14.08408 -8.53573,14.08408c-4.71415,0 -8.53573,-6.30566 -8.53573,-14.08408c0,-7.77843 3.49641,-12.25065 8.21056,-12.25065c4.71415,0 8.8609,4.47222 8.8609,12.25065z" data-paper-data="{&quot;origPos&quot;:null}" fill="url(#color-4)" stroke-linecap="butt"/><path d="M130.54779,126.39684c0,4.55659 -2.00178,8.25044 -4.47109,8.25044c-2.46932,0 -4.4711,-3.69385 -4.4711,-8.25044c0,-4.55659 2.00178,-8.25043 4.4711,-8.25043c2.46932,0 4.47109,3.69385 4.47109,8.25043z" data-paper-data="{&quot;origPos&quot;:null}" fill="#021400" stroke-linecap="butt"/><path d="M134.28725,125.73013c0,1.88708 -1.31025,3.41685 -2.92655,3.41685c-1.61628,0 -2.92654,-1.52978 -2.92654,-3.41685c0,-1.88708 1.31025,-3.41685 2.92654,-3.41685c1.61628,0 2.92655,1.52978 2.92655,3.41685z" data-paper-data="{&quot;origPos&quot;:null}" fill="#ffffff" stroke-linecap="butt"/><path d="M113.47633,113.36836c0,0 2.4453,-2.94903 10.24287,-1.00005c8.76489,2.19076 16.90886,12.00063 16.90886,12.00063c0,0 -8.60245,-7.1831 -14.42064,-9.54035c-4.77811,-1.93586 -12.73109,-1.46022 -12.73109,-1.46022z" data-paper-data="{&quot;origPos&quot;:null}" fill="#000002" stroke-linecap="round"/></g><g data-paper-data="{&quot;origPos&quot;:null}" fill="none" stroke="#000000" stroke-width="2.5" stroke-linecap="round"><path d="M158.37375,79.32592c0,0 -7.2943,7.11422 -9.09038,8.38719c-2.46348,1.74602 -2.74487,-7.41861 -1.49344,-10.20799c1.79097,-3.99196 8.76734,-7.02451 8.76734,-7.02451c0,0 -9.37628,-0.98085 -8.2404,-4.1382c3.44937,-9.588 42.70285,2.4312 42.70285,2.4312c0,0 12.49538,-11.54361 22.35635,-15.29374c8.4523,-3.21441 24.56913,-2.55203 24.56913,-2.55203c0,0 -27.54183,9.03885 -29.80555,33.95958c-0.90898,10.00667 7.96681,12.95658 14.65998,20.29967c7.09572,7.78472 17.7189,19.7619 17.7189,19.7619" data-paper-data="{&quot;origPos&quot;:null}"/><path d="M236.88559,51.54859c0,0 14.98745,18.91311 13.17913,41.44689c-1.97418,24.60061 -9.44878,31.46203 -9.44878,31.46203c0,0 2.55648,3.8936 4.94761,5.61187c2.49173,1.79056 7.36752,3.98358 7.36752,3.98358c0,0 -23.45961,67.09102 -94.38253,63.97245c-54.35409,-2.39001 -64.60901,-55.64442 -64.60901,-55.64442c0,0 9.6097,-10.89416 12.76985,-17.79221c7.21517,-15.74949 7.48322,-24.95409 17.9289,-38.66854c5.72226,-7.51293 23.03847,-18.43976 23.03847,-18.43976" data-paper-data="{&quot;origPos&quot;:null}"/><path d="M106.04933,122.05233c0,0 -3.96657,-6.74045 -5.7273,-11.32058c-1.13394,-2.94967 -1.68994,-7.97354 -1.68994,-7.97354c0,0 4.73859,-3.77767 5.76482,-7.51932c1.37624,-5.01782 -6.82443,-10.48162 -6.82443,-10.48162c0,0 0.15844,-9.88771 1.29728,-15.95045c1.10601,-5.888 4.45486,-14.67186 4.45486,-14.67186c0,0 11.15755,0.05396 17.90993,2.21555c9.13882,2.92556 23.56612,11.59551 23.56612,11.59551" data-paper-data="{&quot;origPos&quot;:null}"/><path d="M103.476,54.91083c0,0 8.61188,7.44971 12.30843,13.14848c4.04229,6.23179 7.52136,17.4221 7.52136,17.4221" data-paper-data="{&quot;origPos&quot;:null}"/><path d="M123.00305,91.32656c0,0 2.69041,0.27881 4.14624,1.18494c4.36746,2.71838 12.80747,9.36733 12.80747,9.36733" data-paper-data="{&quot;origPos&quot;:null}"/><path d="M189.50601,100.48221c0,0 -12.51544,5.29615 -19.9936,8.04924c-3.21443,1.18338 -7.40481,2.0375 -7.40481,2.0375" data-paper-data="{&quot;origPos&quot;:null}"/><path d="M144.69976,152.26081l3.02744,-0.15519" data-paper-data="{&quot;origPos&quot;:null}"/><path d="M166.4974,158.46803c0,0 -5.13647,6.24645 -10.16525,6.2196c-4.13912,-0.0221 -9.66455,-3.27117 -9.66455,-3.27117c0,0 -4.47746,4.13072 -6.89964,4.68251c-2.3629,0.5383 -5.36154,-1.88926 -5.36154,-1.88926" data-paper-data="{&quot;origPos&quot;:null}"/><path d="M85.09354,154.94788l30.03548,3.55282" data-paper-data="{&quot;origPos&quot;:null}"/><path d="M118.82569,169.39601l-20.33171,5.68451" data-paper-data="{&quot;origPos&quot;:null}"/><path d="M125.06383,179.10704l-12.24523,9.94789" data-paper-data="{&quot;origPos&quot;:null}"/><path d="M202.15491,168.13278l21.25588,-5.44766" data-paper-data="{&quot;origPos&quot;:null}"/><path d="M201.92386,177.37012l24.95255,2.84225" data-paper-data="{&quot;origPos&quot;:null}"/><path d="M215.09326,195.13422l-17.32817,-7.34249" data-paper-data="{&quot;origPos&quot;:null}"/><path d="M173.68214,255.78775c0,0 -16.24432,-11.92234 -20.95679,-24.57717c-3.66893,-9.85251 -0.51947,-33.0951 -0.51947,-33.0951" data-paper-data="{&quot;origPos&quot;:null}"/><path d="M223.01441,249.34895c0,0 -17.61405,63.03496 -48.67889,59.64788c-10.25408,-1.11804 -5.61623,-17.86046 -2.68853,-31.70493c3.25763,-15.40461 3.95756,-36.04338 3.95756,-36.04338" data-paper-data="{&quot;origPos&quot;:null}"/><path d="M166.08207,302.24406c0,0 -2.37499,0.5135 -3.84952,0.2077c-11.88094,-2.46394 -6.2808,-63.69567 -6.2808,-63.69567" data-paper-data="{&quot;origPos&quot;:null}"/><path d="M285.01189,254.19537c0,0 -15.59911,11.12363 -26.36744,13.21941c-15.19287,2.95689 -40.15492,-0.27258 -40.15492,-0.27258" data-paper-data="{&quot;origPos&quot;:null}"/><path d="M291.59544,260.8371c0,0 -7.13964,42.73925 -24.21028,41.26849c-8.16858,-0.70377 -6.45153,-7.30007 -6.68947,-15.70012c-0.19699,-6.95414 -1.81998,-17.94783 -1.81998,-17.94783" data-paper-data="{&quot;origPos&quot;:null}"/><path d="M236.38641,163.22134c0,0 43.05229,-15.52939 72.62831,18.31088c22.0629,25.24392 5.67475,51.10061 14.46093,71.41211c4.14466,9.58141 8.22735,7.34167 8.91468,13.88874c1.56884,14.94392 -13.25262,41.01777 -24.82162,40.0497c-10.47174,-0.87626 -3.61002,-17.97061 -8.76025,-34.00238c-3.62919,-11.29702 -21.0904,-30.38563 -21.0904,-30.38563" data-paper-data="{&quot;origPos&quot;:null}"/><path d="M291.52897,167.01657c0,0 22.25998,3.55757 34.58929,-5.99141c17.40261,-13.47824 -9.95227,-47.21487 19.8522,-71.4211c9.88377,-8.02729 26.04771,-7.25966 37.66418,-2.23112c6.2221,2.69342 11.22351,15.25561 11.22351,15.25561c0,0 -2.11806,-1.31349 -3.68985,-2.1542c-1.4592,-0.78048 -4.07671,-1.99988 -4.07671,-1.99988c0,0 4.22905,7.09804 4.34229,10.75486c0.15032,4.85435 -3.66694,11.05397 -3.66694,11.05397c0,0 -8.36102,-5.9034 -13.49636,-6.35836c-5.53907,-0.49073 -13.85548,3.93515 -13.85548,3.93515" data-paper-data="{&quot;origPos&quot;:null}"/><path d="M367.16861,115.7831c0,0 -4.0897,8.8277 -4.30955,15.81118c-0.60869,19.33561 3.67091,33.81151 -7.73181,49.22606c-9.19539,12.43061 -36.24647,15.73626 -36.24647,15.73626" data-paper-data="{&quot;origPos&quot;:null}"/></g></g></g></svg>