<svg version="1.1" xmlns="http://www.w3.org/2000/svg" xmlns:xlink="http://www.w3.org/1999/xlink" width="307.4116" height="283.31352" viewBox="0,0,307.4116,283.31352"><defs><linearGradient x1="180.60903" y1="63.20354" x2="180.60903" y2="173.09601" gradientUnits="userSpaceOnUse" id="color-1"><stop offset="0" stop-color="#bea98e"/><stop offset="1" stop-color="#7b6452"/></linearGradient><linearGradient x1="202.85553" y1="193.81881" x2="340.32388" y2="193.81881" gradientUnits="userSpaceOnUse" id="color-2"><stop offset="0" stop-color="#7b6452"/><stop offset="1" stop-color="#bea98e"/></linearGradient><linearGradient x1="341.37551" y1="57.31546" x2="341.37551" y2="218.72722" gradientUnits="userSpaceOnUse" id="color-3"><stop offset="0" stop-color="#6d5646"/><stop offset="1" stop-color="#ab9176"/></linearGradient><linearGradient x1="131.51074" y1="100.91807" x2="131.51074" y2="139.56867" gradientUnits="userSpaceOnUse" id="color-4"><stop offset="0" stop-color="#e4edf0"/><stop offset="1" stop-color="#ffffff"/></linearGradient><linearGradient x1="135.39661" y1="98.96302" x2="135.39661" y2="132.21603" gradientUnits="userSpaceOnUse" id="color-5"><stop offset="0" stop-color="#2d6a96"/><stop offset="1" stop-color="#6abee3"/></linearGradient><linearGradient x1="196.12054" y1="106.56046" x2="196.12054" y2="143.11581" gradientUnits="userSpaceOnUse" id="color-6"><stop offset="0" stop-color="#e4edf0"/><stop offset="1" stop-color="#ffffff"/></linearGradient><linearGradient x1="191.02548" y1="106.91154" x2="191.02548" y2="134.92687" gradientUnits="userSpaceOnUse" id="color-7"><stop offset="0" stop-color="#2d6a96"/><stop offset="1" stop-color="#6abee3"/></linearGradient></defs><g transform="translate(-86.46944,-37.87852)"><g data-paper-data="{&quot;isPaintingLayer&quot;:true}" fill="none" fill-rule="nonzero" stroke="none" stroke-width="none" stroke-linecap="none" stroke-linejoin="miter" stroke-miterlimit="10" stroke-dasharray="" stroke-dashoffset="0" font-family="none" font-weight="none" font-size="none" text-anchor="none" style="mix-blend-mode: normal"><path d="M95.05362,47.72326l11.38554,9.57831l10.84337,10.48193l7.40964,12.6506l2.89157,5.24096l-5.78313,8.61446l-4.6988,9.93976l-3.07229,9.75904l-9.39759,0.72289l-5.96386,-13.55422l-3.07229,-12.28916l-1.08434,-13.19277l5.24096,0.54217l2.71084,1.62651l-4.87952,-12.22892l-2.16867,-11.74699z" data-paper-data="{&quot;origPos&quot;:null}" fill="#e3a896" stroke="#ff0000" stroke-width="0" stroke-linecap="round"/><g data-paper-data="{&quot;origPos&quot;:null}" stroke="#ff0000" stroke-width="0" stroke-linecap="round"><path d="M160.97697,252.80935l0.6,22.53333l0.8,24.8l2.4,11.2l3.8,1.2l5.8,-0.2l53.06667,-43l43.13333,2.2l2.2,22.4l0.4,13.2l3,5.6h4.6l6.8,-2.2l7.8,-10.6l6.6,-16l5.6,-19.6l-11.8,-8.53333z" data-paper-data="{&quot;origPos&quot;:null}" fill="#d3dae2"/><path d="M102.2863,156.47719l31,-62l33.22222,-28.22222l37.33333,41.66667l38.66666,62.55556l90.22222,15.55555l8,2.33333l-3.33333,8.33333l-3.66667,5.66667l2.33333,23.88889l0.66667,21.33333l2.73926,14.05561l3.31169,7.98701l5.45455,4.87013l1.55844,5.25974l-1.55844,9.22078l-8.18182,16.94805l-8.96104,9.93507l-7.01299,4.09091l-5.64935,-0.38961l-2.72727,-3.7013l1.36364,-15.19481v-11.88312l-4.48052,-8.57143l-9.93507,-13.44156l-4.87013,-6.75325l-7.20779,5.84416l-10.90909,5.06494l-15.97402,1.75325l-37.01299,-0.38961l-9.28571,17.33766l-8.37662,11.03896l-9.74026,9.15584l-10.32468,6.03896l-9.35065,0.58442l-3.7013,-1.16883l-1.94805,-4.28571l2.14286,-12.27273l4.09091,-20.32467l1.55844,-15.19481l-8.57143,-3.76623l-17.72727,-10.90909l-10.32468,-12.27273l-6.03896,-4.67532l3.11688,-3.31169l4.48052,-3.50649l2.92208,-4.28571l-4.67532,-2.79221l-6.42857,-4.67532l8.57143,-5.64935l12.66234,-11.2987l-12.66234,-2.98701l-17.53247,-8.57143l-13.24675,-9.93507l-11.49351,-13.05195z" data-paper-data="{&quot;origPos&quot;:null}" fill="#ffffff"/><path d="M108.30265,165.73958l8.21918,8.83562l13.35616,10.27397l17.73973,8.35616l11.91781,3.08219l-11.09589,10.27397l-9.86301,6.16438c0,0 35.65331,11.36168 83.60335,-5.54432c13.5702,-4.78451 31.32816,-40.07212 31.32816,-40.07212l-10.47945,2.26027l9.65753,-11.71233c0,0 -40.28342,29.68137 -76.56245,30.73988c-41.2751,1.20428 -67.82111,-22.65769 -67.82111,-22.65769z" data-paper-data="{&quot;origPos&quot;:null}" fill="#d3dae2"/></g><path d="M105.34021,162.02074c0,0 5.07495,-9.32726 9.62057,-15.29718c4.89622,-6.43037 14.57298,-16.47702 14.57298,-16.47702l6.45161,-24.4086c0,0 7.22755,-12.00248 13.66991,-19.4252c5.13963,-5.92175 16.00751,-14.76835 16.00751,-14.76835c0,0 9.08651,9.79531 13.60494,16.84324c4.77654,7.45054 10.21226,20.30729 10.21226,20.30729l16.6129,29.19355c0,0 12.48034,6.90662 18.39255,13.14358c7.07557,7.46421 14.88702,21.96395 14.88702,21.96395l10.80645,-11.45161l11.45161,-19.19355l8.06452,-5.05376l-6.45161,-6.29032l-3.06452,-1.93548l-8.54839,-1.45161l9.35484,-5l2.25806,-2.41935l-7.25806,-3.92473l-26.6129,-39.94624l-31.45161,-10.32258l-15.26882,-2.90323l-16.45161,0.32258l-13.60215,2.90323l-10.80645,5.64516l-8.54839,5.96774l-6.93548,8.87097l-8.60215,15.16129l-3.87097,11.93548l-9.67742,0.64516l-4.19355,2.41935l1.93548,2.74194l4.51613,2.25806l-9.24731,2.31183l-5.64516,2.25806l3.3871,7.09677l3.3871,3.87097l-4.83871,-0.48387l3.22581,10.37634l4.83871,9.35484z" data-paper-data="{&quot;origPos&quot;:null}" fill="url(#color-1)" stroke="#00ff14" stroke-width="0" stroke-linecap="round"/><path d="M197.9769,66.46645c0,0 6.4351,4.18496 9.83741,7.43673c4.37999,4.18618 10.10377,11.62209 10.10377,11.62209l0.17647,-3.70588l2.29412,-7.94118l4.58824,-5.47059l9.17647,-9.35294l18.70588,-12.47059l4.05882,-5.82353l-9.52941,5.47059l-15.35294,2.11765l-11.29412,3.35294l-11.29412,6.52941z" data-paper-data="{&quot;origPos&quot;:null}" fill="#695741" stroke="#00ff14" stroke-width="0" stroke-linecap="round"/><path d="M103.03572,54.3488l16.23529,-0.17647l11.29412,2.11765l11.47059,5.47059l9.35294,5.11765l-14.29412,8.47059l-4.41176,3.88235l-5.11765,6.70588l-10.23529,-17.47059z" data-paper-data="{&quot;origPos&quot;:null}" fill="#695741" stroke="#00ff14" stroke-width="0" stroke-linecap="round"/><path d="M257.15493,117.28798l6.12903,-11.77419l3.54839,-11.12903l0.80645,-21.88172l-6.29032,6.93548l0.96774,-15.53763l-1.6129,-11.88172l-3.54839,-11.29032l-5.16129,6.45161l-8.06452,5.80645l-11.12903,7.58065l-8.87097,8.54839l-4.19355,6.98925l-1.77419,7.58065l0.64516,4.08602l5.48387,7.74194l9.19355,9.67742l7.09677,8.22581l5.16129,6.77419l6.45161,-3.3871z" data-paper-data="{&quot;origPos&quot;:null}" fill="#e3a896" stroke="#ff0000" stroke-width="0" stroke-linecap="round"/><path d="M202.85553,193.02888c0,0 9.15325,31.90799 39.29629,31.38361c29.1318,-0.50679 39.38778,-16.69776 65.75001,-29.10549c10.81851,-5.09188 32.42206,-6.64521 32.42206,-6.64521l-7.59494,-3.6076l-8.73418,-0.18987l7.02532,-4.55696l1.89873,-1.89873l-6.77215,0.56962l-7.02532,-1.13924l-14.81013,-8.35443l-16.89873,-5.31646l-11.64557,-0.94937l-14.43038,1.51899l-18.6076,4.74684l-7.02532,7.02532l-14.81013,8.92405z" data-paper-data="{&quot;origPos&quot;:null}" fill="url(#color-2)" stroke="#00ff14" stroke-width="0" stroke-linecap="round"/><path d="M335.37551,217.84487l13.23529,0.88235l10.41176,-0.88235l12,-6l-9,-1.23529l-6.35294,-0.88235l-5.47059,-4.41176l16.94118,-0.41176l9.17647,-3.88235l7.23529,-4.94118l7.76471,-15.35294l0.35294,-6l-10.23529,2.29412l5.47059,-10.23529l1.23529,-12.88235l-2.64706,-8.11765l-6,-7.64706l-9.88235,-9.88235l-3,-7.76471l0.70588,-10.05882l8.29412,-1.47059l13.76471,6l1.76471,-12.70588l-1.58824,-10.47059l-7.76471,-7.23529l-10.76471,-5.11765l-8.29412,-3l12.70588,-0.35294l11.64706,1.23529l-11.29412,-9.41176l-13.41176,-6.52941l-10.76471,-3.35294l-10.76471,-0.70588l-8.47059,1.76471l-11.29412,3.70588l-9,7.05882l-4.41176,9.17647l-1.05882,10.82353l1.94118,7.94118l-5.82353,-9.70588l-2.82353,-13.41176l-5.82353,6.35294l-3,7.94118l1.05882,8.29412l7.23529,14.17647l10.41176,14.11765l9.52941,11.11765l6.35294,12.17647l0.35294,6.52941l-6.35294,8.82353l-9.17647,8.29412l8.52941,5.29412l7.58824,0.88235l6.70588,-1.05882l-2.64706,3l-7.23529,4.58824h9.52941l7.41176,3.52941l-3.35294,7.94118l-3.88235,5.64706z" data-paper-data="{&quot;origPos&quot;:null}" fill="url(#color-3)" stroke="#00ff14" stroke-width="0" stroke-linecap="round"/><path d="M156.83406,150.53843c-4.17303,-0.21517 -5.00174,-2.87405 -4.81651,-6.19266c0.32068,-5.74551 2.05899,-7.50638 3.6927,-13.02405c1.05749,-3.57155 2.77519,-10.37044 2.77519,-10.37044c0,0 9.89802,30.18268 -1.65138,29.58716z" data-paper-data="{&quot;origPos&quot;:null}" fill="#262427" stroke="#00ff14" stroke-width="0" stroke-linecap="round"/><g data-paper-data="{&quot;origPos&quot;:null}"><path d="M144.43276,138.90278c0,0 -25.57958,7.39585 -25.84337,-27.10843c-0.11174,-14.61619 13.91819,-12.73262 20.42169,-4.6988c4.94147,6.10425 5.42169,31.80723 5.42169,31.80723z" data-paper-data="{&quot;origPos&quot;:null}" fill="url(#color-4)" stroke="#000000" stroke-width="0.5" stroke-linecap="round"/><path d="M143.77594,119.78307c2.74194,11.44063 -1.79183,12.43296 -8.37932,12.43296c-6.58749,0 -11.92771,-7.44394 -11.92771,-16.62651c0,-9.18257 3.72731,-16.14264 10.31481,-16.14264c4.65201,0 7.85208,11.4065 9.99223,20.33618z" data-paper-data="{&quot;origPos&quot;:null}" fill="url(#color-5)" stroke="#ff00ff" stroke-width="0" stroke-linecap="butt"/><path d="M142.76156,115.31164c0,5.88882 -2.26929,9.8562 -6.46133,9.8562c-4.19204,0 -7.59036,-4.77383 -7.59036,-10.66265c0,-5.88882 3.39832,-10.66265 7.59036,-10.66265c4.19204,0 6.46133,5.58028 6.46133,11.4691z" data-paper-data="{&quot;origPos&quot;:null}" fill="#07345b" stroke="#ff00ff" stroke-width="0" stroke-linecap="butt"/><path d="M134.493,116.67386c0,1.99621 -1.69916,3.61446 -3.79518,3.61446c-2.09602,0 -3.79518,-1.61825 -3.79518,-3.61446c0,-1.99621 1.69916,-3.61446 3.79518,-3.61446c2.09602,0 3.79518,1.61825 3.79518,3.61446z" data-paper-data="{&quot;origPos&quot;:null}" fill="#ffffff" stroke="#ff00ff" stroke-width="0" stroke-linecap="butt"/><path d="M144.43276,136.37266c0,0 5.68756,-37.7426 -16.72951,-39.75491c-4.77226,-0.42839 -8.93314,4.21274 -8.93314,4.21274l-1.80723,3.25301l-3.07229,10.12048c0,0 1.3939,0.44511 2.1704,0.38299c0.98674,-0.07894 2.34767,-0.74444 2.34767,-0.74444c0,0 -0.72974,-10.33699 8.48031,-12.09265c16.8144,-3.20524 17.54378,34.62277 17.54378,34.62277z" data-paper-data="{&quot;origPos&quot;:null}" fill="#000000" stroke="#ff00ff" stroke-width="0" stroke-linecap="round"/></g><g data-paper-data="{&quot;origPos&quot;:null}"><path d="M174.85444,141.55338c0,0 -4.00743,-22.00516 17.16868,-34.15663c3.2452,-1.86219 25.57921,-1.38433 25.66265,9.57831c0.0223,2.93036 0.19393,16.32702 -11.93537,22.75726c-11.9658,6.34356 -30.89595,1.82106 -30.89595,1.82106z" data-paper-data="{&quot;origPos&quot;:null}" fill="url(#color-6)" stroke="#000000" stroke-width="0.5" stroke-linecap="round"/><path d="M176.48095,124.17386c0.25316,-6.84165 10.35452,-17.47655 18.88554,-17.25904c7.08801,0.18072 10.21084,3.18484 10.21084,12.01807c0,8.83323 -6.91801,15.99398 -15.45181,15.99398c-8.5338,0 -13.87775,-4.45163 -13.64458,-10.75301z" data-paper-data="{&quot;origPos&quot;:null}" fill="url(#color-7)" stroke="#ff00ff" stroke-width="0" stroke-linecap="butt"/><path d="M178.83035,118.75218c-0.18072,-3.30879 7.96483,-10.75301 10.12048,-10.57229c5.56985,0.46696 10.12048,4.73338 10.12048,10.57229c0,5.83891 -4.53109,10.57229 -10.12048,10.57229c-5.58939,0 -9.80204,-4.74207 -10.12048,-10.57229z" data-paper-data="{&quot;origPos&quot;:null}" fill="#07345b" stroke="#ff00ff" stroke-width="0" stroke-linecap="butt"/><path d="M203.95083,120.1076c0,2.19583 -1.82053,3.9759 -4.06627,3.9759c-2.24574,0 -4.06627,-1.78007 -4.06627,-3.9759c0,-2.19583 1.82053,-3.9759 4.06627,-3.9759c2.24574,0 4.06627,1.78007 4.06627,3.9759z" data-paper-data="{&quot;origPos&quot;:null}" fill="#ffffff" stroke="#ff00ff" stroke-width="0" stroke-linecap="butt"/><path d="M174.31228,138.36061c0,0 -2.44931,-19.23103 11.07664,-30.75675c10.6968,-9.11495 32.90965,-7.47653 38.26071,1.84109c0.73523,1.28023 -2.71084,4.15663 -2.71084,4.15663c0,0 5.2091,0.41052 4.87952,2.53012c-0.55451,3.56618 -7.95181,3.9759 -7.95181,3.9759c0,0 0.61202,-5.03651 -1.6709,-7.27966c-6.36639,-6.25548 -14.62761,-7.49375 -23.23908,-4.50305c-19.92202,6.91877 -18.64423,30.03572 -18.64423,30.03572z" data-paper-data="{&quot;origPos&quot;:null}" fill="#000000" stroke="#ff00ff" stroke-width="0" stroke-linecap="round"/></g><g data-paper-data="{&quot;origPos&quot;:null}" fill="none" stroke="#000000" stroke-width="2.5" stroke-linecap="round"><g data-paper-data="{&quot;origPos&quot;:null}"><path d="M367.49907,111.25834c0,0 -1.68466,10.25163 1.47593,15.38388c6.79376,11.03193 18.49472,15.03774 19.18865,27.83332c0.80727,14.88543 -6.54179,22.4716 -6.54179,22.4716c0,0 2.97263,0.01263 5.04581,-0.63367c2.08652,-0.65045 5.61289,-2.68911 5.61289,-2.68911c0,0 -2.4431,17.13278 -12.5662,25.83873c-9.04787,7.78125 -30.82139,5.66707 -30.82139,5.66707c0,0 5.75658,5.05574 9.12981,5.55353c4.73816,0.69921 12.94037,0.51367 12.94037,0.51367c0,0 -7.47733,5.7353 -13.11599,6.95224c-6.84044,1.47632 -22.11254,-0.62071 -22.11254,-0.62071" data-paper-data="{&quot;origPos&quot;:null}"/><path d="M311.35651,172.10366c0,0 18.10298,-14.10802 14.64671,-22.95807c-8.10977,-20.76579 -30.8319,-34.15599 -34.55653,-56.04129c-1.68023,-9.87275 8.36958,-18.65212 8.36958,-18.65212c0,0 1.1334,8.77627 2.88214,13.57554c1.99498,5.47503 6.71069,12.75108 6.71069,12.75108c0,0 -14.73601,-34.25181 25.50906,-42.08129c29.45579,-5.73048 52.03302,19.07742 52.03302,19.07742c0,0 -9.09824,-1.66596 -14.06881,-1.91428c-5.01269,-0.25042 -11.51208,0.6363 -11.51208,0.6363c0,0 23.16649,5.94808 27.63156,15.40738c4.97776,10.54547 0.34754,22.93238 0.34754,22.93238c0,0 -7.28365,-4.35795 -12.96888,-5.0205c-5.44196,-0.63421 -15.54315,1.69771 -15.54315,1.69771" data-paper-data="{&quot;origPos&quot;:null}"/></g><path d="M180.4517,262.78248c0,0 -14.04023,-5.75821 -21.65514,-11.4031c-6.64741,-4.92769 -14.89032,-15.68781 -14.89032,-15.68781c0,0 2.9458,1.16583 4.63534,1.12829c3.10005,-0.06889 7.63738,-1.40101 7.63738,-1.40101c0,0 -6.21394,-0.80808 -10.19119,-1.71717c-3.47323,-0.79388 -8.89972,-2.64647 -8.89972,-2.64647c0,0 5.50299,-2.58895 8.24144,-5.02975c2.15757,-1.92305 4.30401,-6.15207 4.30401,-6.15207c0,0 -4.36126,-1.53358 -6.95676,-3.10295c-1.98122,-1.19795 -4.77051,-3.98796 -4.77051,-3.98796c0,0 5.9082,-3.39436 9.88568,-5.95879c4.1116,-2.6509 11.25255,-10.07608 11.25255,-10.07608" data-paper-data="{&quot;origPos&quot;:null}"/><path d="M232.93749,254.43183c0,0 -18.75242,64.49826 -54.12217,62.07792c-9.50389,-0.65035 -2.44565,-16.44615 0.15546,-30.82784c3.09783,-17.12801 4.20818,-38.99034 4.20818,-38.99034" data-paper-data="{&quot;origPos&quot;:null}"/><path d="M172.63136,311.98285c0,0 -1.58828,0.63124 -6.73469,0c-5.12417,-0.62851 -4.28572,-57.2449 -4.28572,-57.2449" data-paper-data="{&quot;origPos&quot;:null}"/><path d="M296.40687,260.8604c0,0 -10.34464,8.89296 -17.55354,10.07842c-19.67145,3.23486 -51.32401,1.24811 -51.32401,1.24811" data-paper-data="{&quot;origPos&quot;:null}"/><path d="M244.36607,169.12572c0,0 20.47264,-6.0674 36.50187,-5.41552c16.02923,0.65188 28.80202,8.70101 37.00188,13.43936c5.11404,2.95519 15.27177,0.85371 15.27177,0.85371c0,0 -1.7191,2.49545 -3.21129,3.50487c-2.56974,1.73835 -7.19688,3.53594 -7.19688,3.53594c0,0 6.79813,-0.09086 10.36554,0.63471c3.48121,0.70805 7.69568,3.03876 7.69568,3.03876c0,0 -2.40069,5.23149 -3.74132,7.79617c-1.40714,2.69193 -3.2995,5.67323 -3.2995,5.67323c0,0 1.24756,15.23271 1.91803,25.34807c0.92269,13.92057 0.12914,22.54216 4.31308,35.85111c2.45712,7.816 9.04527,8.52627 9.77965,17.57551c0.4033,4.96956 -12.07911,38.20786 -27.64342,38.9804c-14.04728,0.69724 0.37588,-24.35902 -7.47539,-36.0282c-12.23964,-18.19152 -22.83074,-32.84936 -22.83074,-32.84936" data-paper-data="{&quot;origPos&quot;:null}"/><path d="M304.26402,270.86041c0,0 -6.19946,42.48163 -24.79592,42.55102c-7.92134,0.02956 -5.92332,-14.23727 -6.9335,-22.09398c-1.00767,-7.83722 -1.94405,-17.70195 -1.94405,-17.70195" data-paper-data="{&quot;origPos&quot;:null}"/><path d="M257.39641,116.04417c0,0 6.46624,-10.21186 8.38319,-18.28751c2.07052,-8.72262 1.6098,-26.04629 1.6098,-26.04629c0,0 -2.0997,3.08307 -2.88706,4.0824c-1.41848,1.80038 -2.76512,3.09151 -2.76512,3.09151c0,0 0.91752,-12.56155 0.11336,-19.6276c-0.92092,-8.09199 -4.53365,-19.21298 -4.53365,-19.21298c0,0 -6.38238,5.449 -11.61528,6.31913c-8.36972,1.39172 -16.44844,1.81653 -24.20662,5.2516c-10.80535,4.78427 -23.30854,14.95101 -23.30854,14.95101c0,0 -33.63102,-10.30169 -58.15589,6.71308c-18.93921,13.13957 -26.11947,40.67822 -26.11947,40.67822c0,0 -5.46551,-0.08606 -7.96623,0.48229c-3.0987,0.70425 -6.3816,2.77858 -6.3816,2.77858c0,0 2.30828,3.00869 4.03506,4.06161c1.75164,1.06808 4.87798,1.37317 4.87798,1.37317c0,0 -7.00856,0.40102 -10.6216,1.28112c-3.00446,0.73186 -6.33492,2.84932 -6.33492,2.84932c0,0 1.19573,3.69997 2.58449,5.69408c1.91999,2.75691 5.89377,6.47983 5.89377,6.47983l-6.19924,-1.8968c0,0 0.29783,18.43921 26.01198,40.11042c32.5475,27.43016 71.87927,25.60377 108.52454,3.95019c21.85612,-12.91471 32.96705,-38.46816 32.96705,-38.46816" data-paper-data="{&quot;origPos&quot;:null}"/><path d="M248.47635,146.78283c0,0 8.54403,-2.68119 13.66352,-4.92097c3.02512,-1.32349 7.20605,-4.20946 7.20605,-4.20946c0,0 -3.8698,-5.64646 -8.44139,-8.03857c-2.72463,-1.42568 -10.25426,-1.74404 -10.25426,-1.74404c0,0 4.44229,-1.63682 7.28559,-3.3827c1.99257,-1.22351 5.10571,-4.226 5.10571,-4.226c0,0 -5.5712,-3.69648 -9.48617,-3.79315c-2.95705,-0.07301 -8.12253,3.35837 -8.12253,3.35837c0,0 -8.59304,-10.41768 -14.52294,-16.99973c-6.10842,-6.78022 -13.01413,-12.68223 -12.74512,-18.70635c0.82691,-18.51789 21.26002,-26.96304 31.61082,-34.87672c3.45027,-2.63789 7.39637,-7.31575 7.39637,-7.31575" data-paper-data="{&quot;origPos&quot;:null}"/><path d="M250.86765,62.50747c0,0 0.19854,10.99707 -1.94365,15.76648c-2.35431,5.24168 -9.57809,9.88569 -9.57809,9.88569c0,0 11.53885,-5.05168 12.23907,-2.36999c2.37915,9.11164 -15.49994,15.84825 -15.49994,15.84825c0,0 11.7911,-3.64753 11.8736,0.32701c0.11601,5.58838 -9.26491,7.93386 -9.26491,7.93386" data-paper-data="{&quot;origPos&quot;:null}"/><path d="M104.50026,114.07957c0,0 -5.40721,-11.18552 -7.28988,-18.34482c-2.04668,-7.78295 -2.77861,-19.94285 -2.77861,-19.94285c0,0 2.27598,-0.26642 3.60121,0.08913c1.9626,0.52655 4.82345,2.17114 4.82345,2.17114c0,0 -4.38433,-8.93863 -6.00688,-15.05437c-1.50491,-5.67234 -2.00682,-15.15111 -2.00682,-15.15111c0,0 2.8967,2.69798 4.84963,4.33295c5.85879,4.90492 10.3538,8.15575 15.8647,14.47398c5.62863,6.4532 11.54595,18.17937 11.54595,18.17937" data-paper-data="{&quot;origPos&quot;:null}"/><path d="M103.47286,54.01107c0,0 16.82356,-0.01419 26.80239,2.73859c8.62548,2.37944 20.86884,10.41209 20.86884,10.41209" data-paper-data="{&quot;origPos&quot;:null}"/><path d="M105.52766,66.54532c0,0 1.09856,7.51295 2.85383,11.13797c1.93351,3.99313 6.59823,8.38258 6.59823,8.38258c0,0 -6.06065,-0.9857 -6.26179,0.76922c-0.50824,4.43435 8.31658,11.90201 8.31658,11.90201" data-paper-data="{&quot;origPos&quot;:null}"/><path d="M154.70574,147.91518h3.08219" data-paper-data="{&quot;origPos&quot;:null}"/><path d="M142.37697,153.87409c0,0 1.91023,4.93231 4.31652,5.32737c2.9665,0.48704 9.4506,-3.0671 9.4506,-3.0671c0,0 10.00153,3.94952 13.77268,3.32099c3.44605,-0.57434 4.72047,-6.40318 4.72047,-6.40318" data-paper-data="{&quot;origPos&quot;:null}"/><path d="M121.41807,152.64121l-33.69863,-4.93151" data-paper-data="{&quot;origPos&quot;:null}"/><path d="M123.0619,164.96998l-21.36986,6.36986" data-paper-data="{&quot;origPos&quot;:null}"/><path d="M130.45917,174.7645l-13.35617,11.91781" data-paper-data="{&quot;origPos&quot;:null}"/><path d="M206.89752,185.24395l16.64384,9.45206" data-paper-data="{&quot;origPos&quot;:null}"/><path d="M210.80163,172.91519l27.12329,4.31507" data-paper-data="{&quot;origPos&quot;:null}"/><path d="M211.62355,161.81929l33.08219,-10.47945" data-paper-data="{&quot;origPos&quot;:null}"/><path d="M147.10867,87.07579c0,0 -2.49646,-5.304 -4.75191,-6.2c-2.33958,-0.92942 -7.02229,1.52258 -7.02229,1.52258" data-paper-data="{&quot;origPos&quot;:null}"/><path d="M180.17319,89.49515c0,0 4.28175,-4.99705 8.46897,-5.8281c4.05865,-0.80553 12.66006,1.63455 12.66006,1.63455" data-paper-data="{&quot;origPos&quot;:null}"/></g></g></g></svg>