<svg version="1.1" xmlns="http://www.w3.org/2000/svg" xmlns:xlink="http://www.w3.org/1999/xlink" width="309.11374" height="265.01141" viewBox="0,0,309.11374,265.01141"><defs><linearGradient x1="137.5096" y1="128.67656" x2="137.5096" y2="158.4846" gradientUnits="userSpaceOnUse" id="color-1"><stop offset="0" stop-color="#f0dfdf"/><stop offset="1" stop-color="#ffffff"/></linearGradient><linearGradient x1="136.05409" y1="128.72476" x2="136.05409" y2="148.87429" gradientUnits="userSpaceOnUse" id="color-2"><stop offset="0" stop-color="#130303"/><stop offset="1" stop-color="#3c1704"/></linearGradient><linearGradient x1="204.16264" y1="131.21114" x2="204.16264" y2="162.01795" gradientUnits="userSpaceOnUse" id="color-3"><stop offset="0" stop-color="#f0dfdf"/><stop offset="1" stop-color="#ffffff"/></linearGradient><linearGradient x1="194.52387" y1="131.08498" x2="194.52387" y2="153.87429" gradientUnits="userSpaceOnUse" id="color-4"><stop offset="0" stop-color="#130303"/><stop offset="1" stop-color="#3c1704"/></linearGradient></defs><g transform="translate(-85.61441,-46.77391)"><g data-paper-data="{&quot;isPaintingLayer&quot;:true}" fill="none" fill-rule="nonzero" stroke="none" stroke-width="none" stroke-linecap="none" stroke-linejoin="miter" stroke-miterlimit="10" stroke-dasharray="" stroke-dashoffset="0" font-family="none" font-weight="none" font-size="none" text-anchor="none" style="mix-blend-mode: normal"><g data-paper-data="{&quot;origPos&quot;:null}" stroke="#ff0000" stroke-width="0" stroke-linecap="round"><path d="M115.24361,130.77837l7.4026,-8.76623l7.98701,-18.89611l4.48052,-7.20779l-9.93507,-23.76623l-9.35065,-12.46753l-11.2987,-10.71428l-2.72728,9.74026l-0.58441,9.54545l1.16883,9.15584l1.94805,6.62338l-7.5974,-5.45454l-1.55844,7.53247l1.75324,8.57143l4.67533,7.33766l4.67533,5.06493l0.97403,9.09091l4.09091,7.79221z" data-paper-data="{&quot;origPos&quot;:null}" fill="#451c00"/><path d="M126.99686,111.94721c0,0 -4.25567,-5.7398 -5.85735,-10.03699c-1.51535,-4.06558 -2.12966,-11.39158 -2.12966,-11.39158c0,0 2.79841,2.46002 4.71422,3.28645c1.96148,0.84613 5.22084,0.99927 5.22084,0.99927c0,0 -4.72388,-13.12019 -8.49552,-21.01904c-3.75486,-7.86371 -10.79019,-19.37057 -10.79019,-19.37057l6.03896,4.67533l9.93506,13.63636l9.35065,23.37663l-4.09091,7.20779z" data-paper-data="{&quot;origPos&quot;:null}" fill="#341300"/></g><g data-paper-data="{&quot;origPos&quot;:null}" stroke="#ff0000" stroke-width="0" stroke-linecap="round"><path d="M265.69816,51.42772l0.19481,14.80519l-1.55844,14.8052l5.84416,-3.7013l2.72727,-2.92208v6.23377l-0.38961,7.98702l-3.11688,5.25974l-6.23377,3.50649l-0.58441,11.75325l-1.16883,9.74026l-6.23376,12.85714l-6.81818,-4.09091l-13.05194,-11.1039l-12.46753,-14.80519l-3.11689,-7.4026l1.55845,-5.90909l8.18182,-13.24675l10.9091,-9.54546l11.2987,-6.23377z" data-paper-data="{&quot;origPos&quot;:null}" fill="#451c00"/><path d="M238.23062,118.89526c0,0 -0.06963,-10.13374 1.50671,-15.74705c1.54069,-5.48637 6.48031,-12.69451 6.48031,-12.69451c0,0 -3.32864,-0.03952 -5.45913,0.43392c-1.29064,0.28681 -3.3071,1.51413 -3.3071,1.51413c0,0 0.42986,-10.69146 2.57527,-16.28769c2.64418,-6.89725 9.69746,-15.7253 9.69746,-15.7253l-9.15584,4.87013l-11.29871,9.74026l-8.18181,13.05195l-1.16884,6.42857l2.92208,7.92207l7.79221,8.96104l5.25974,5.64935z" data-paper-data="{&quot;origPos&quot;:null}" fill="#341300"/></g><path d="M120.13338,65.25276l5.29411,7.7647l9.52942,22.76471l-3.76471,7.17646l-4.41176,8.64706l-4.41177,10.7647l-7.7647,9.35294l-10.2353,7.94118l-9.17647,3.70588l12.35294,3.29412l-15.88236,2.47059l9.35295,16.11765l5.29411,7.05883l7.94118,5.47059l9.52942,4.23529l-8.47059,2.70588l9.70589,6.52941l16.58823,6.52941l17.29412,4.23529l6.88236,0.88236l14.52941,16.64705l11.47059,39.82353l-1.41177,14.11764l-4.58823,14.29412l-2.11765,10.58823l16.94118,10.05883l10.58823,-7.41177l10.05882,-11.64706l5.29412,-8.82353l6.88235,3.35294l7.58824,-1.41177l1.58823,-1.58823l-5.82353,-2.11764l-3,-5.29412l11,-0.47059l6.17647,-2.11765l55.64706,-12.64706l7.58823,8.64706l4.76471,10.29412l1.58823,13.2353l0.88235,9.35294l17.47059,5.64706l9.17647,-12.17647l4.58824,-14.64706l0.70588,-9.88236l-2.47059,-5.17647l-6.35294,-7.2353l-1.7647,-19.29412l-0.17648,-22.41177l11.05883,1.05883l10.58823,-2.11765l8.11765,-6l-12,0.17647l-7.41176,-2.47058l17.88235,-3.82353l11.47059,-5.82353l2.82353,-4.05882l-1.41177,-17.82353l4.05882,-10.05882l1.76471,-13.05883l-3.52941,-9.88235l-9.52941,-12.52941l-6.52941,-12.52941l-0.70589,-7.76471l-42.23529,-47.82353l-5,2.64706l-5.82353,5.11764l-3,5.82353l-0.35294,3.35294l-1.58824,4.94118l0.35294,6.35294l0.88236,5.64706l-5.82353,-11.29412l-1.58824,-10.94118l-7.05882,6.35294l-3.35294,9.17647l2.64706,10.76471l8.29411,13.29412l11.64706,12.88235l9,12.05882l4.05883,8.29412l-0.52941,7.82353l-6.52942,10.58823l-3.52941,5.11765l-21.88235,-4.05883l-7.94118,-0.35294l-8.82353,1.41177l-7.05882,1.94117h-7.05882l6.52941,-9.52941l4.23529,-9l-11.11764,-0.52941l-12.88236,-4.7647l15.88236,-1.76471l3.52941,-1.58823l-19.2353,-8.11765l-17.64706,-14.11765l-11,-12.23529l-5.47058,-9.70588l1.7647,-7.41177l7.94117,-12.70588l10.2353,-10.47059l-17.47059,0.88235l-10.82353,3.17647l-11.82353,5.11765l-12,-8.11765l-18.88235,-8.47059l6.17647,10.41177l4.76471,4.23529l-17.47059,-1.41176l-8.70588,1.58823l-7.76471,-3.35294l-13.41177,-3.35294z" data-paper-data="{&quot;origPos&quot;:null}" fill="#ca7a00" stroke="#33ff00" stroke-width="0" stroke-linecap="round"/><path d="M165.95691,243.9418l-0.17647,31.94118l2.64706,18.35294l1.41177,5.76471l3.52941,3l9,-3l1.94117,-2.82353l1.58823,-8.47059l4.41177,-15.17647l1.05883,-14.58824l-13.58823,-6.35294z" data-paper-data="{&quot;origPos&quot;:null}" fill="#a15c00" stroke="#33ff00" stroke-width="0" stroke-linecap="round"/><path d="M274.1922,270.88299v16.58823l2.11764,13.23529l4.05883,4.76471l6.35294,-0.70589l8.11764,-7.94117l8.82353,-19.2353l5.11765,-17.11765l-2.11765,-2.11765l-4.41177,4.05883l-9.52941,4.58823l-9.70589,2.82353z" data-paper-data="{&quot;origPos&quot;:null}" fill="#a15c00" stroke="#33ff00" stroke-width="0" stroke-linecap="round"/><path d="M148.36089,105.04205c0,0 0.52617,4.08197 0.43145,7.01827c-0.10261,3.18075 -0.93707,8.6559 -0.93707,8.6559c0,0 -4.71227,-3.91147 -4.55056,-7.2472c0.27622,-5.69746 5.05618,-8.42696 5.05618,-8.42696z" data-paper-data="{&quot;origPos&quot;:null}" fill="#974900" stroke="#0033ff" stroke-width="0" stroke-linecap="round"/><path d="M165.88898,96.10946c0,0 -9.73308,8.72586 -10.44944,18.53932c-0.62105,8.50781 5.73034,19.38202 5.73034,19.38202c0,0 2.39316,-12.29059 3.38554,-20.26508c0.84931,-6.82481 1.33356,-17.65627 1.33356,-17.65627z" data-paper-data="{&quot;origPos&quot;:null}" fill="#974900" stroke="#0033ff" stroke-width="0" stroke-linecap="round"/><path d="M177.34966,103.86227c0,0 -0.98338,5.72132 -1.07343,9.38326c-0.10727,4.36257 0.56781,11.17855 0.56781,11.17855c0,0 6.45732,-5.40688 6.57304,-10.11236c0.11571,-4.70548 -6.06742,-10.44944 -6.06742,-10.44944z" data-paper-data="{&quot;origPos&quot;:null}" fill="#974900" stroke="#0033ff" stroke-width="0" stroke-linecap="round"/><path d="M107.06876,147.51396c0,0 3.98078,2.19036 6.74939,2.70947c3.54576,0.66483 9.43039,0.32423 9.43039,0.32423l-3.53933,-24.26967l-5.39326,6.06742l-8.76404,6.40449l-10.61798,4.04494l11.46067,2.69663z" data-paper-data="{&quot;origPos&quot;:null}" fill="#974900" stroke="#0033ff" stroke-width="0" stroke-linecap="round"/><path d="M91.61932,149.14317c0,0 12.68063,7.58583 21.01758,11.22726c8.83022,3.85688 22.97118,7.98622 22.97118,7.98622c0,0 -11.81777,2.83133 -19.38174,3.98141c-3.68349,0.56007 -9.43848,0.40061 -9.43848,0.40061l-5.56179,-6.74158z" data-paper-data="{&quot;origPos&quot;:null}" fill="#974900" stroke="#0033ff" stroke-width="0" stroke-linecap="round"/><path d="M121.78786,180.77238c0,0 6.37835,-0.67184 9.90906,-1.87432c5.5462,-1.88892 13.34937,-6.04702 13.34937,-6.04702c0,0 -1.95239,8.78894 -5.40908,12.75901c-1.84735,2.12171 -4.38452,1.47299 -6.86973,2.79137c-2.18868,1.16106 -4.74366,4.00018 -4.74366,4.00018l-8.93258,-4.55056l-4.7191,-3.20225l10.78652,-2.02247z" data-paper-data="{&quot;origPos&quot;:null}" fill="#974900" stroke="#0033ff" stroke-width="0" stroke-linecap="round"/><path d="M200.66426,194.76115c0,0 -3.96421,-3.03181 -6.17045,-6.07586c-2.98996,-4.12538 -7.14416,-12.29493 -7.14416,-12.29493c0,0 14.28876,6.50201 24.75853,9.7808c8.0129,2.50938 22.60102,5.05066 22.60102,5.05066l4.55056,-1.34832c0,0 0.02994,5.8457 -0.61301,8.92512c-0.60676,2.90607 -2.58923,6.41196 -2.58923,6.41196l5.89887,-2.86517c0,0 -2.3299,15.56268 -6.24894,21.33015c-5.74983,8.46177 -18.52634,15.13052 -18.52634,15.13052c0,0 3.2806,-5.07703 4.60787,-9.09907c0.84329,-2.55543 0.95394,-7.75486 0.95394,-7.75486l-5.22472,0.16854c0,0 3.79011,-7.68627 4.89173,-13.15764c0.87162,-4.32905 0.16446,-11.95472 0.16446,-11.95472l-6.23596,1.51686c0,0 -5.60453,-1.45237 -8.86066,-3.15444c-2.53205,-1.32357 -5.9708,-4.59838 -5.9708,-4.59838z" data-paper-data="{&quot;origPos&quot;:null}" fill="#974900" stroke="#0033ff" stroke-width="0" stroke-linecap="round"/><path d="M207.63055,173.63755c0,0 14.32593,3.26983 23.49525,4.59021c7.27434,1.04751 18.63959,1.4772 18.63959,1.4772l-5.5618,-2.69663l10.11236,-1.34831c0,0 5.42031,7.30699 8.22746,12.42524c2.65215,4.83564 5.76131,13.08038 5.76131,13.08038l4.7191,-2.69663c0,0 0.95468,7.18282 0.9036,11.89054c-0.08047,7.41673 -1.24068,19.17688 -1.24068,19.17688c0,0 6.44679,-6.81704 9.69023,-12.39418c2.15008,-3.69708 4.12999,-11.36987 4.12999,-11.36987l-5.89887,3.03371c0,0 2.37441,-6.68652 3.34239,-11.84906c0.80794,-4.30901 1.20817,-12.4206 1.20817,-12.4206c0,0 -2.38129,-1.59884 -4.12615,-2.40148c-1.54387,-0.71018 -4.30082,-1.47493 -4.30082,-1.47493c0,0 0.527,-4.40202 0.31254,-7.44025c-0.18019,-2.55262 -1.32377,-6.88559 -1.32377,-6.88559l-8.59551,1.17977l7.52809,-12.19101c0,0 -15.15495,7.62928 -23.30994,9.86392c-10.32768,2.83001 -24.0496,3.11361 -24.0496,3.11361l3.70786,2.52809c0,0 -4.28581,1.48081 -7.58071,1.87683c-5.82584,0.70022 -15.79008,0.93216 -15.79008,0.93216z" data-paper-data="{&quot;origPos&quot;:null}" fill="#974900" stroke="#0033ff" stroke-width="0" stroke-linecap="round"/><path d="M232.34966,134.87351c0,0 5.29402,-1.36935 8.3514,-3.01827c2.79656,-1.50825 6.6486,-5.07162 6.6486,-5.07162l7.92135,5.5618l17.69663,7.58427l-4.04494,1.51686l-15.8427,1.34831l13.14607,5.22472c0,0 -6.12688,3.48791 -10.2691,4.94787c-3.88228,1.36835 -10.2927,2.29932 -10.2927,2.29932l2.35955,-3.53933c0,0 -7.76192,1.26607 -12.50923,1.19359c-3.86917,-0.05907 -9.56942,-1.53067 -9.56942,-1.53067z" data-paper-data="{&quot;origPos&quot;:null}" fill="#974900" stroke="#0033ff" stroke-width="0" stroke-linecap="round"/><g data-paper-data="{&quot;origPos&quot;:null}" stroke="#33ff00" stroke-width="0" stroke-linecap="round"><path d="M119.66279,129.47122c0,0 -1.24399,15.2801 4.84976,24.82687c2.70934,4.2446 9.52878,8.15355 14.56318,8.04432c8.83837,-0.19177 11.6086,-10.76514 11.6086,-10.76514l-28.19801,-22.45899z" data-paper-data="{&quot;origPos&quot;:null}" fill="#e0a338"/><path d="M175.4275,135.76316c0,0 -1.89275,32.70987 25.0624,33.8144c24.12288,0.98847 35.29055,-31.81222 35.29055,-31.81222l-3.88236,-1.05882z" data-paper-data="{&quot;origPos&quot;:null}" fill="#e0a338"/><path d="M141.36867,197.29475l15.17647,4.41177l15.88235,1.58823l21.35294,-0.88235c0,0 -11.81335,-14.55542 -18.24499,-24.66228c-4.46007,-7.00867 -3.89857,-12.44485 -7.65995,-19.85199c-1.4184,-2.7932 -6.21271,-5.95631 -6.21271,-5.95631c0,0 -4.04399,2.68659 -5.07067,5.30211c-2.61927,6.67278 -1.6009,11.84933 -4.52881,18.39256c-3.96712,8.86563 -10.69464,21.65827 -10.69464,21.65827z" data-paper-data="{&quot;origPos&quot;:null}" fill="#e0a338"/><path d="M191.07456,202.70652c0,0 -2.42347,4.52817 -3.52281,7.42644c-1.17336,3.09342 -2.30072,7.9265 -2.30072,7.9265c0,0 3.0541,0.49883 5.00888,0.3663c2.10854,-0.14295 5.40288,-1.07218 5.40288,-1.07218c0,0 -3.39348,8.19379 -4.21008,13.55119c-0.69854,4.58283 0.32773,11.9194 0.32773,11.9194l-0.52941,16.2353l-12.70588,-6l-13.58823,-10.41177l-9.17647,-10.7647l-5.11765,-7.76471l7.41177,-1.29411l18.35295,-6.35294l-17.47059,-0.35294l-8.82353,-3.88235l9.88235,-3.17647l5.64705,-6l7.2353,0.52941z" data-paper-data="{&quot;origPos&quot;:null}" fill="#e0a338"/><path d="M167.36867,287.58887c0,0 4.89078,-0.36965 7.90819,0.52325c3.73185,1.10433 9.38593,4.59439 9.38593,4.59439l-0.70588,4.58824l-2.82353,2.82352l-4.58823,3.17648l-5.29412,-1.41177l-1.76471,-2.29412l-1.41177,-6.88236z" data-paper-data="{&quot;origPos&quot;:null}" fill="#bc7b2b"/><path d="M184.89808,293.4124c0,0 7.01171,-0.1945 10.14415,1.48823c5.20082,2.79383 11.20879,9.98237 11.20879,9.98237l-6.88235,4.41177l-6.52941,1.7647l-6.17647,-3.17647l-2.47058,-3.35295l-0.70588,-5.82353z" data-paper-data="{&quot;origPos&quot;:null}" fill="#e0a338"/><path d="M274.36867,289.05946c0,0 6.83008,-1.47779 9.95923,-0.39054c4.9975,1.73642 10.8643,7.62584 10.8643,7.62584l-8.64706,8.47058l-6.17647,0.88236l-3.88235,-4.7647z" data-paper-data="{&quot;origPos&quot;:null}" fill="#bc7b2b"/><path d="M320.83926,294.70651c0,0 7.073,-1.67206 10.01878,-0.59621c4.97426,1.81669 10.27535,8.00798 10.27535,8.00798l-3.35294,4.41177l-7.41177,3.52941l-4.05882,-0.17647l-3,-2.47059l-1.94118,-6.17647z" data-paper-data="{&quot;origPos&quot;:null}" fill="#e0a338"/><path d="M249.36867,271.53005l17.11765,0.17647l11.47059,-1.2353l10.94117,-1.7647l12.35294,-5.64706l5.47059,-4.58824l-6.70588,-9.35294c0,0 -14.00647,0.92457 -22.29362,3.09765c-7.20858,1.89025 -17.41227,7.31412 -17.41227,7.31412l-2.64706,4.05883l-7.76471,6.88235z" data-paper-data="{&quot;origPos&quot;:null}" fill="#e0a338"/><path d="M313.9569,72.64769c0,0 2.18831,-2.02591 3.81485,-2.75785c1.12826,-0.50772 3.24397,-0.41862 3.24397,-0.41862c0,0 -1.408,8.17903 -0.16313,13.18813c1.64768,6.62992 7.57489,16.6354 7.57489,16.6354c0,0 1.25034,-2.96895 2.38947,-4.30448c0.8581,-1.00605 2.72818,-1.69552 2.72818,-1.69552c0,0 0.23192,5.61667 1.62282,8.98573c1.70825,4.13777 6.31836,10.24957 6.31836,10.24957c0,0 8.73884,-4.27487 14.99772,-5.71945c6.45439,-1.48971 16.29639,-0.57467 16.29639,-0.57467l3,0.35294l7.76471,1.41177l6.70588,3.88235l2.29412,-8.82353l-1.7647,-13.94118l-5.64706,-5.70588l-9.70589,-5.47058l-11.47058,-4.41177l12.35294,-0.52942l11.29411,2.11765l-10.64705,-10.35294l-17.82353,-8.11765l-13.2353,-1.41177l-11.82353,1.7647l-9.88235,4.76471l-7.23529,5.47059z" data-paper-data="{&quot;origPos&quot;:null}" fill="#e0a338"/></g><path d="M287.51819,163.97463c0,0 4.08234,2.41682 5.59171,4.84653c1.18739,1.91141 1.31841,6.27706 1.31841,6.27706c0,0 3.70546,-0.90863 4.86325,0.93759c1.27587,2.03449 1.3727,9.00624 1.3727,9.00624c0,0 8.21937,0.74465 11.05241,3.86976c3.5471,3.91278 5.2959,14.16395 5.2959,14.16395c0,0 5.47484,-11.61846 4.4647,-18.01603c-1.05911,-6.7077 -7.49841,-5.91656 -7.49841,-5.91656c0,0 0.913,-5.14011 0.17313,-7.98862c-0.57562,-2.21613 -3.54392,-4.9889 -3.54392,-4.9889l-12.64045,-2.35955l-6.74158,-0.50562z" data-paper-data="{&quot;origPos&quot;:null}" fill="#974900" stroke="#0033ff" stroke-width="0" stroke-linecap="round"/><path d="M326.54528,158.05418l9.65517,9.65517l2.93104,-2.06896l22.06896,7.58621l-0.17242,-5.34483l13.79311,5.86207l13.10344,-9.65518l-4.65517,10.17242l9.31035,-3.44827l-1.89655,8.62069l-3.44828,8.10344l-4.65517,7.06897l-11.72414,-0.34483l0.17242,-5.17242l-21.55172,1.2069l0.68965,-10.34482l-9.13793,1.03448l-10.68966,-1.20689l7.24138,-2.58621l3.44827,-6.37931l-14.48276,-1.55173l-6.89655,-1.2069z" data-paper-data="{&quot;origPos&quot;:null}" fill="#974900" stroke="#0033ff" stroke-width="0" stroke-linecap="round"/><path d="M316.67006,124.04834c0,0 10.97071,4.81861 18.18646,6.933c5.49734,1.61085 14.3893,2.61246 14.3893,2.61246c0,0 0.21483,-1.97014 0.74024,-3.23113c0.36155,-0.86772 1.53248,-2.22341 1.53248,-2.22341c0,0 1.80458,0.71972 2.66867,1.37433c1.08722,0.82366 2.33133,2.41354 2.33133,2.41354c0,0 4.80329,-3.41616 7.39276,-6.18453c2.83085,-3.02644 6.49613,-8.66396 6.49613,-8.66396l6.81818,11.66667c0,0 -2.3811,13.65811 -9.79021,17.58741c-5.36075,2.84299 -14.75525,-1.22377 -14.75525,-1.22377l-0.30303,3.78788c0,0 -5.21978,-0.05326 -8.56071,-0.57224c-2.74954,-0.42712 -7.04535,-1.852 -7.04535,-1.852c0,0 -2.53093,0.073 -3.37503,0.70159c-1.93504,1.44099 -3.74618,4.60144 -3.74618,4.60144l0.45454,-7.27272l-4.24243,-7.87879z" data-paper-data="{&quot;origPos&quot;:null}" fill="#974900" stroke="#0033ff" stroke-width="0" stroke-linecap="round"/><g data-paper-data="{&quot;origPos&quot;:null}" stroke="#ff0000" stroke-width="0"><path d="M122.5057,128.87429c0,0 9.27334,-0.64317 14.79582,0.39046c6.24836,1.16948 15.36547,5.25471 15.36547,5.25471c0,0 3.4332,25.71028 -15,23.87097c-19.47408,-1.94317 -15.16129,-29.51613 -15.16129,-29.51613z" data-paper-data="{&quot;origPos&quot;:null}" fill="url(#color-1)" stroke-linecap="round"/><path d="M144.92506,137.1001c0,6.50271 -4.11609,11.77419 -9.19354,11.77419c-5.07745,0 -8.54839,-5.43278 -8.54839,-11.93549c0,-9.08336 4.52846,-8.69256 9.51613,-7.74193c5.07745,0.96774 8.2258,1.40052 8.2258,7.90323z" data-paper-data="{&quot;origPos&quot;:null}" fill="url(#color-2)" stroke-linecap="butt"/><path d="M138.15086,137.66461c0,-2.27149 1.84141,-4.1129 4.11291,-4.1129c2.27149,0 4.1129,1.8414 4.1129,4.1129c0,2.2715 -1.84141,4.11291 -4.1129,4.11291c-2.27149,0 -4.11291,-1.84141 -4.11291,-4.11291z" data-paper-data="{&quot;origPos&quot;:null}" fill="#ffffff" stroke-linecap="butt"/><path d="M118.04931,129.848c0,0 7.81456,-4.55135 14.61768,-4.19952c13.82286,0.71485 23.22581,9.83871 23.22581,9.83871c0,0 -13.27688,-4.65303 -21.03301,-6.15534c-6.2178,-1.20435 -16.81048,0.51616 -16.81048,0.51616z" data-paper-data="{&quot;origPos&quot;:null}" fill="#040001" stroke-linecap="round"/></g><g data-paper-data="{&quot;origPos&quot;:null}" stroke="#ff0000" stroke-width="0"><path d="M177.34441,135.48719c0,0 15.86786,-4.3067 26.12734,-4.27589c10.70141,0.03213 27.58234,4.43718 27.58234,4.43718c0,0 -4.61383,28.04628 -30.00001,26.29032c-26.34474,-1.82226 -23.70967,-26.45162 -23.70967,-26.45162z" data-paper-data="{&quot;origPos&quot;:null}" fill="url(#color-3)" stroke-linecap="round"/><path d="M206.21538,140.89042c0.17388,7.16868 -5.23538,12.98387 -11.69355,12.98387c-6.45817,0 -11.69355,-5.81307 -11.69355,-12.98387c0,-7.81596 4.30304,-8.11497 10.7258,-8.79032c6.13559,-0.64516 12.33872,-4.5095 12.6613,8.79032z" data-paper-data="{&quot;origPos&quot;:null}" fill="url(#color-4)" stroke-linecap="butt"/><path d="M199.11861,140.16461c0,-2.40511 1.94973,-4.35484 4.35484,-4.35484c2.40511,0 4.35484,1.94973 4.35484,4.35484c0,2.40511 -1.94973,4.35484 -4.35484,4.35484c-2.40511,0 -4.35484,-1.94973 -4.35484,-4.35484z" data-paper-data="{&quot;origPos&quot;:null}" fill="#ffffff" stroke-linecap="butt"/><path d="M172.55947,137.26138c0,0 4.37888,-7.74162 31.88172,-7.90322c27.16958,-0.15965 36.45162,10.51374 36.45162,10.51374c0,0 -23.30905,-8.12762 -37.09247,-8.35535c-12.88456,-0.21288 -31.24087,5.74483 -31.24087,5.74483z" data-paper-data="{&quot;origPos&quot;:null}" fill="#040001" stroke-linecap="round"/></g><g data-paper-data="{&quot;origPos&quot;:null}" fill="none" stroke="#000000" stroke-width="2.5" stroke-linecap="round"><path d="M206.01695,78.63654c0,0 -11.23915,-8.17804 -19.40912,-12.59878c-6.31606,-3.41759 -17.70953,-7.48597 -17.70953,-7.48597c0,0 3.22738,5.68224 5.29307,8.01738c2.4984,2.82428 6.40185,5.20296 6.40185,5.20296c0,0 -19.38747,-2.92716 -29.43744,1.6645c-5.22047,2.38514 -6.41002,7.74228 -6.41002,7.74228c0,0 10.77247,-0.70644 17.17923,-0.18225c4.50737,0.36879 10.78687,2.47039 10.78687,2.47039c0,0 -4.27905,1.10647 -6.20425,1.97739c-2.24202,1.01425 -4.47371,2.85312 -4.47371,2.85312" data-paper-data="{&quot;origPos&quot;:null}"/><path d="M198.89831,74.06026c0,0 9.81373,-4.73504 17.23408,-6.46391c7.46568,-1.73942 14.25498,-1.74764 19.43776,-2.22871c1.7276,-0.16036 4.42985,-0.88365 4.42985,-0.88365" data-paper-data="{&quot;origPos&quot;:null}"/><path d="M255,131.43315c0,0 4.57754,-7.66942 6.20561,-14.36822c1.54696,-6.36508 1.92999,-19.10635 1.92999,-19.10635c0,0 6.23203,-3.5503 8.26815,-8.42626c1.73422,-4.153 1.58767,-15.09894 1.58767,-15.09894c0,0 -2.80993,2.99828 -4.48373,4.17979c-1.69965,1.19976 -4.35514,2.31151 -4.35514,2.31151c0,0 1.14934,-6.48816 1.39679,-10.64091c0.44708,-7.50264 0.38287,-19.22457 0.38287,-19.22457c0,0 -6.48675,4.16705 -10.85503,6.55495c-7.97307,4.35843 -13.21241,5.91067 -19.81236,12.15618c-8.57006,8.10982 -15.83578,19.76759 -15.09531,24.59396c1.36813,8.91756 17.38143,25.31969 30.6837,35.22002c8.9781,6.68203 22.70613,10.62743 22.70613,10.62743c0,0 -5.25369,1.41132 -8.61632,1.82646c-4.67414,0.57706 -11.9769,0.71592 -11.9769,0.71592c0,0 7.59762,3.54476 12.46048,4.67452c4.95986,1.15229 12.70901,1.17293 12.70901,1.17293c0,0 -7.7849,16.37205 -14.72032,22.13198c-6.72377,5.58415 -20.27968,6.93581 -20.27968,6.93581l10.42373,3.05085c0,0 -26.55487,23.23915 -78.01685,22.63851c-33.20654,-0.38757 -60.71197,-18.40122 -60.71197,-18.40122l10.42373,-2.28814c0,0 -13.08772,-5.20636 -20,-12.11864c-6.18467,-6.18467 -13.55932,-21.44068 -13.55932,-21.44068c0,0 5.13852,-0.57618 8.10198,-0.94497c4.47799,-0.55726 10.96581,-1.42791 10.96581,-1.42791c0,0 -6.01177,-1.15477 -9.85962,-2.05661c-2.5022,-0.58646 -6.41157,-1.75695 -6.41157,-1.75695c0,0 13.98444,-3.31911 22.60975,-13.41703c8.98594,-10.52013 9.26858,-18.85324 16.19825,-30.82821c4.03302,-6.96935 13.31064,-16.77171 13.31064,-16.77171" data-paper-data="{&quot;origPos&quot;:null}"/><path d="M159.40678,152.7541h2.79661" data-paper-data="{&quot;origPos&quot;:null}"/><path d="M154.83051,171.56766l6.1017,-10.42372l5.84746,10.42372" data-paper-data="{&quot;origPos&quot;:null}"/><path d="M122.20339,155.04224l-35.33898,-4.57628" data-paper-data="{&quot;origPos&quot;:null}"/><path d="M127.79661,167.75411l-23.64407,6.86441" data-paper-data="{&quot;origPos&quot;:null}"/><path d="M134.15254,177.9236l-13.47457,12.9661" data-paper-data="{&quot;origPos&quot;:null}"/><path d="M214.0678,165.21173l25.16949,-7.37288" data-paper-data="{&quot;origPos&quot;:null}"/><path d="M212.79661,175.63546l25.67797,3.81356" data-paper-data="{&quot;origPos&quot;:null}"/><path d="M209.74576,186.8219l19.83051,10.42373" data-paper-data="{&quot;origPos&quot;:null}"/><path d="M154.40678,71.56767c0,0 -9.70372,-3.37847 -16.24004,-4.72723c-5.96532,-1.23094 -17.3523,-1.88294 -17.3523,-1.88294" data-paper-data="{&quot;origPos&quot;:null}"/><path d="M134.88994,95.56833c0,0 -5.9999,-17.29127 -12.24298,-26.99126c-5.76247,-8.95326 -18.32493,-19.63652 -18.32493,-19.63652c0,0 -3.27635,10.22279 -3.42068,16.76589c-0.15332,6.95073 2.65797,17.81038 2.65797,17.81038c0,0 -2.61545,-2.05799 -4.28946,-3.21249c-1.20334,-0.82989 -3.08342,-1.87226 -3.08342,-1.87226c0,0 -1.78906,9.60906 0.15763,15.10845c2.02209,5.7124 10.01186,13.62037 10.01186,13.62037c0,0 0.31944,7.01286 1.66298,10.68782c2.02993,5.55244 6.98109,12.95625 6.98109,12.95625" data-paper-data="{&quot;origPos&quot;:null}"/><path d="M165.67797,203.34732c0,0 -3.57531,3.75295 -6.18914,5.17867c-3.93465,2.14617 -10.59052,3.97387 -10.59052,3.97387c0,0 5.74895,3.10885 10.07948,3.79688c6.28595,0.9987 17.12392,0.52516 17.12392,0.52516c0,0 -8.89278,3.47815 -15.07279,5.05344c-3.94037,1.00441 -10.85942,1.55673 -10.85942,1.55673c0,0 8.51729,14.00243 16.08423,20.68655c8.30817,7.33889 24.59374,15.24565 24.59374,15.24565" data-paper-data="{&quot;origPos&quot;:null}"/><path d="M192.37288,242.83885c0,0 -0.27511,19.50298 -2.69375,31.44542c-3.13159,15.46277 -11.52221,31.47906 0.5751,35.67323c15.69059,5.43996 36.44068,-29.32203 36.44068,-29.32203c0,0 5.10321,3.05084 7.88135,3.05084c3.67111,0 8.64407,-3.05084 8.64407,-3.05084c0,0 -3.58902,-0.72781 -5.72344,-2.16999c-1.53669,-1.0383 -3.68334,-4.18595 -3.68334,-4.18595c0,0 9.29201,0.13609 14.1003,-2.38039c5.80819,-3.0398 13.10309,-11.8569 13.10309,-11.8569c0,0 -9.08462,-0.71743 -12.94655,-3.29205c-3.87719,-2.58479 -6.88396,-9.9283 -6.88396,-9.9283" data-paper-data="{&quot;origPos&quot;:null}"/><path d="M166.18644,245.80495c0,0 -1.37924,51.74213 4.8305,55.67797c6.2962,3.99063 12.2034,-3.55932 12.2034,-3.55932" data-paper-data="{&quot;origPos&quot;:null}"/><path d="M250.33898,271.73715c0,0 23.27774,0.36375 36.54943,-2.65793c8.95344,-2.03851 20.39972,-10.30817 20.39972,-10.30817" data-paper-data="{&quot;origPos&quot;:null}"/><path d="M297.88136,244.53376c0,0 3.85195,6.91089 6.7437,10.701c5.26461,6.90015 9.25658,9.61797 12.75784,17.55958c5.5193,12.519 1.41135,37.14846 9.56626,37.67161c15.4396,0.99047 24.66699,-22.96177 26.28787,-38.34796c1.16203,-11.03062 -7.22274,-8.96822 -9.21415,-19.87964c-2.23874,-12.26658 -0.73385,-19.37742 -0.96909,-31.8444c-0.08933,-4.73382 -1.35886,-12.13138 -1.35886,-12.13138c0,0 4.48389,-7.39827 6.21474,-12.94717c1.64261,-5.26602 2.42933,-14.7647 2.42933,-14.7647c0,0 -6.16911,0.55997 -9.62948,0.43021c-4.47718,-0.16789 -10.7095,-1.19292 -10.7095,-1.19292c0,0 4.47932,-1.05453 7.02086,-3.03129c1.92333,-1.49592 4.41981,-5.86702 4.41981,-5.86702c0,0 -11.9802,-0.97706 -18.37174,-2.11784c-12.73312,-2.27265 -17.87784,-5.25777 -30.79323,-5.44948c-5.87587,-0.08721 -11.06848,1.83293 -16.81269,3.07288c-2.92577,0.63155 -7.75115,1.18936 -7.75115,1.18936" data-paper-data="{&quot;origPos&quot;:null}"/><path d="M274.15254,273.26258c0,0 -1.68499,31.63357 7.11865,32.28813c18.17341,1.35122 26.69492,-44.74576 26.69492,-44.74576" data-paper-data="{&quot;origPos&quot;:null}"/><path d="M343.17049,214.70326c0,0 10.58565,1.51928 17.11213,0.05082c5.37985,-1.21046 12.51399,-6.91522 12.51399,-6.91522c0,0 -7.82574,0.18456 -12.34643,-0.51093c-3.21841,-0.49514 -7.48407,-2.53993 -7.48407,-2.53993c0,0 19.54746,-0.8811 28.18005,-8.62091c9.65847,-8.65959 11.98944,-25.70113 11.98944,-25.70113c0,0 -3.36452,2.0278 -5.35527,2.67479c-1.97803,0.64286 -4.81422,0.6303 -4.81422,0.6303c0,0 7.01176,-7.54577 6.24154,-22.35193c-0.66208,-12.72744 -10.19039,-18.84336 -16.67233,-29.81654c-3.01552,-5.10492 -3.04379,-13.17051 -3.04379,-13.17051" data-paper-data="{&quot;origPos&quot;:null}"/><path d="M363.13559,108.68631c0,0 9.63756,-2.3195 14.82975,-1.68867c5.42429,0.65902 12.37364,4.99376 12.37364,4.99376c0,0 4.4177,-12.32095 -0.33159,-22.81026c-4.26013,-9.40893 -26.36333,-15.32533 -26.36333,-15.32533c0,0 6.20108,-0.882 10.9837,-0.63291c4.74243,0.247 13.42308,1.90409 13.42308,1.90409c0,0 -21.54098,-24.67579 -49.64481,-18.97583c-38.39791,7.78778 -24.33825,41.85719 -24.33825,41.85719c0,0 -4.49927,-7.23731 -6.40268,-12.68318c-1.66848,-4.77372 -2.74986,-13.50325 -2.74986,-13.50325c0,0 -11.22415,8.73262 -9.62104,18.55279c3.55368,21.76875 26.86851,33.38249 34.60606,54.03769c3.29763,8.80292 -9.47655,22.40952 -9.47655,22.40952" data-paper-data="{&quot;origPos&quot;:null}"/></g></g></g></svg>