<svg version="1.1" xmlns="http://www.w3.org/2000/svg" xmlns:xlink="http://www.w3.org/1999/xlink" width="361.15554" height="282.56626" viewBox="0,0,361.15554,282.56626"><defs><linearGradient x1="123.80888" y1="109.03486" x2="123.80888" y2="132.51985" gradientUnits="userSpaceOnUse" id="color-1"><stop offset="0" stop-color="#ebe1e2"/><stop offset="1" stop-color="#ffffff"/></linearGradient><linearGradient x1="120.41148" y1="109.18637" x2="120.41148" y2="127.97425" gradientUnits="userSpaceOnUse" id="color-2"><stop offset="0" stop-color="#45481d"/><stop offset="1" stop-color="#686812"/></linearGradient><linearGradient x1="196.13422" y1="110.38762" x2="196.13422" y2="132.51974" gradientUnits="userSpaceOnUse" id="color-3"><stop offset="0" stop-color="#ebe1e2"/><stop offset="1" stop-color="#ffffff"/></linearGradient><linearGradient x1="184.98218" y1="112.36819" x2="184.98218" y2="131.00455" gradientUnits="userSpaceOnUse" id="color-4"><stop offset="0" stop-color="#45481d"/><stop offset="1" stop-color="#686812"/></linearGradient></defs><g transform="translate(-59.54015,-38.70275)"><g data-paper-data="{&quot;isPaintingLayer&quot;:true}" fill="none" fill-rule="nonzero" stroke="none" stroke-width="none" stroke-linecap="none" stroke-linejoin="miter" stroke-miterlimit="10" stroke-dasharray="" stroke-dashoffset="0" font-family="none" font-weight="none" font-size="none" text-anchor="none" style="mix-blend-mode: normal"><g data-paper-data="{&quot;origPos&quot;:null}" fill="#d4b5a0" stroke="#ff0000" stroke-width="0" stroke-linecap="round"><path d="M308.73475,58.13473l-18.33333,6.90476l-14.04762,7.38096l-35.47619,20l12.85714,17.22222l5,6.66667l-91.66666,19.52381l-69.20635,-19.04762l10.2381,-23.09523l-6.42857,-8.88889l-10.71429,-13.57143l-10.95238,-11.19048l-16.19048,-14.04762l10.2381,0.47619l20.2381,4.04762l22.38095,2.38096l19.52381,0.71428l16.42857,-7.9768l-9.04762,-0.2381l11.19048,-4.04762l13.57143,-0.71429l9.04762,0.71429l20.47619,5.95238l12.85715,5.47619l23.33333,1.66667l31.42858,0.23809l20.23809,0.71429l11.90476,0.2381z" data-paper-data="{&quot;origPos&quot;:null}"/><path d="M155.51333,193.22982l-1.52174,17.3913l-0.65217,14.13044l4.13044,13.55073l7.17391,10.65218l10,10.65217l8.47826,7.82609l31.8116,35.14493l9.85507,-13.76812l6.52174,-13.04347l24.13044,1.95652l23.47826,-1.08695l15,-5.86956l17.60869,-39.2029l-81.95652,-55.86957z" data-paper-data="{&quot;origPos&quot;:null}"/><path d="M379.82033,179.62868l25.67797,8.13559l13.22034,-8.8983l-3.81356,-13.98305l-9.91526,-19.83051l-9.40678,-17.0339l-0.50848,-10l1.27119,-6.61017l9.15254,-4.83051l12.20339,-6.10169l-11.18644,-7.37288l-13.22034,-6.1017l-16.27119,-1.52542l-10.93221,2.79661l-7.37288,7.11864l-3.55933,8.89831l-0.76271,4.0678l-5.08474,-12.71187l-3.30509,10.9322l-0.25424,8.38983l2.0339,5.84745l8.8983,15.76272l14.74577,21.61017l6.8644,12.9661z" data-paper-data="{&quot;origPos&quot;:null}"/><path d="M157.02833,239.01647l0.23809,40.2381l22.85715,6.66667l3.80953,-18.33334l-9.76191,-8.80953l-9.28572,-9.28571z" data-paper-data="{&quot;origPos&quot;:null}"/></g><path d="M240.92888,92.30832l9.34783,13.04348l9.13043,12.82609l1.30435,3.04347l18.26087,-9.7826l15.2174,-11.52174l10.65217,-11.30435l3.91305,-10.7971l1.08695,-11.30435l-0.86956,-8.47826l-18.91304,7.17392l-25.86956,13.91304z" data-paper-data="{&quot;origPos&quot;:null}" fill="#674d3e" stroke="#ff0000" stroke-width="0" stroke-linecap="round"/><path d="M63.61004,45.64165l18.04348,15.43478l10.65218,12.17391l16.08695,20.65218l-12.17391,26.5942l-3.69566,8.26087l-13.04348,-14.13044l-11.73913,-17.17391l-6.30434,-14.85507l-0.65217,-15.65217l1.08695,-13.26087z" data-paper-data="{&quot;origPos&quot;:null}" fill="#674d3e" stroke="#ff0000" stroke-width="0" stroke-linecap="round"/><path d="M137.22139,118.33493c0,0 2.60768,-12.53601 6.11796,-20.55969c1.44758,-3.30881 6.58595,-8.47843 6.58595,-8.47843l5.98733,10.1215l5.89344,-12.2796c0,0 6.33302,6.16455 8.67675,10.89928c3.40499,6.87866 6.05363,18.85859 6.05363,18.85859l52.53425,-6.16438l22.80822,-3.49315l7.60274,11.30137l5.13699,10.27398l2.05479,7.80821l-0.61644,10.68493l-4.72603,-11.30137l-4.31507,-4.52055l2.67124,11.50685l0.47945,14.31507l13.21918,-4.45205h14.17809l13.15068,1.78082l15.00001,5.54794l15.20547,9.86301l9.86302,11.09589l5.75342,11.30137l9.79452,3.08219l12.73973,-1.84932l7.19178,-5.34247l3.90411,-8.83561l-2.0548,-8.21918l-6.9863,-12.12329c0,0 7.53129,-0.91394 11.12111,2.31466c4.36845,3.92887 8.23609,18.90852 20.07674,18.10336c8.15665,-0.55465 3.07834,-10.29927 2.3948,-18.44613c-0.31504,-3.75487 4.21558,-7.72532 4.21558,-7.72532l6.36986,12.53425l3.90411,13.9726v11.71233l-2.05479,9.72603l-4.52055,8.83562l-6.16438,7.39726l-7.80822,6.57534l-11.71233,4.72603l-13.56164,3.28767l-20.13698,-1.23288l0.13698,21.91781l2.67124,10.89041l7.19178,6.16438l0.82191,9.0411l-4.31507,15.82192l-10.68493,16.23288l-8.21918,7.39726l-5.34247,1.64384l-4.31507,-1.43836l-2.87671,-5.34247l1.23288,-17.0548l-1.84931,-9.65753l-4.52055,-8.69863l-11.9178,-15.82192l-15.20548,8.0137l-4.52055,2.46576c0,0 3.01918,-10.95094 2.27083,-17.93765c-0.82948,-7.74413 -1.6111,-19.17947 -7.50266,-19.52731c-3.94619,-0.23299 -6.09434,16.29253 -9.14213,18.81c-4.64668,3.83814 -9.0366,7.12126 -18.63818,6.8063c-3.42231,-0.11226 -7.13341,-12.22939 -13.21983,-16.75968c-3.44115,-2.56134 -9.75868,-7.39395 -10.64756,-14.3134c-1.63386,-12.71884 10.58927,-8.72825 6.43393,-12.83381c-7.38856,-7.30004 -1.72929,2.6786 -9.05813,-4.68139c-3.53636,-3.55139 -4.03175,-7.038 -7.66246,-8.1543c-7.94362,-2.44234 -15.59796,-4.90593 -22.99882,-8.68661c-5.18667,-2.64957 -8.25964,-7.44817 -8.25964,-7.44817l-17.87672,4.93151l-13.15068,0.82192h-8.21918l-12.53424,-4.79452l-15.41096,-8.21918l-18.28767,-8.0137l10.06849,-2.26027l-7.80822,-1.23288l-8.21918,1.64383l-4.10959,1.84932l-3.90411,-12.94521l-1.23288,-11.71232l3.69863,-14.17809l-9.45206,7.80822l6.16438,-14.58904l8.28767,-17.94521z" data-paper-data="{&quot;origPos&quot;:null}" fill="#b1957d" stroke="#3dff00" stroke-width="0" stroke-linecap="round"/><path d="M139.49337,95.52904l16.89874,8.54431l15.94937,7.02531l15.31646,6.20253l14.2405,5.50633l15.31645,7.91139l7.78481,6.64557l6.07595,5.88608l-9.49367,-3.79747l-25.06329,-11.3924l-15.7595,-7.21519l-18.41772,-8.16456l-9.49367,-4.49367l-6.26583,-3.98734l-4.93671,-4.36709l-1.70886,-2.46836z" data-paper-data="{&quot;origPos&quot;:null}" fill="#7f5e4d" stroke="#ff0000" stroke-width="0" stroke-linecap="round"/><path d="M157.22969,274.71885c0,0 7.34806,-3.64544 11.64552,-2.59816c4.99079,1.21625 12.15448,8.39817 12.15448,8.39817l-2.2,12.4l-1.4,11.2l-5.8,3.2l-4.8,1l-5,0.2l-3.8,-11z" data-paper-data="{&quot;origPos&quot;:null}" fill="#8b6855" stroke="#3dff00" stroke-width="0" stroke-linecap="round"/><path d="M185.89636,250.45218c0,0 15.5444,-1.94211 23.44485,6.80235c7.39783,8.18815 4.45177,17.12788 5.08613,28.14474c0.34184,5.93662 3.06901,13.51957 3.06901,13.51957l-5.8,7.8l-9,8.4l-9.2,3.8l-7.4,-0.6l-6.2,-3l-2.8,-7l1,-9l3,-18.8l2.6,-14.26666z" data-paper-data="{&quot;origPos&quot;:null}" fill="#b1957d" stroke="#3dff00" stroke-width="0" stroke-linecap="round"/><path d="M233.09636,259.95218c0,3.70031 -2.6863,6.7 -6,6.7c-3.31371,0 -6,-2.99969 -6,-6.7c0,-3.70031 2.68629,-6.7 6,-6.7c3.31371,0 6,2.99969 6,6.7z" data-paper-data="{&quot;origPos&quot;:null}" fill="#b1957d" stroke="#3dff00" stroke-width="0" stroke-linecap="butt"/><path d="M279.82969,276.51885l0.8,19.8l2,12l2.8,6l4,1l8.4,-3.2l7.6,-7.4l7.4,-13.2l6.4,-18.8l-7.6,-10.53333l-12.4,6l-8.8,4.2z" data-paper-data="{&quot;origPos&quot;:null}" fill="#8b6855" stroke="#3dff00" stroke-width="0" stroke-linecap="round"/><path d="M393.51732,152.87973c-1.82226,5.81099 -4.03601,3.63647 -8.70569,2.35541c-4.66968,-1.28107 -9.39318,0.50658 -8.20472,-6.99455c0.70296,-4.43683 5.93742,-6.80548 10.6071,-5.52442c4.66968,1.28107 7.64747,5.8772 6.30331,10.16356z" data-paper-data="{&quot;origRot&quot;:0,&quot;origPos&quot;:null}" fill="#b1957d" stroke="#3dff00" stroke-width="0" stroke-linecap="butt"/><path d="M228.87844,223.65745c-2.36436,3.88806 -6.13767,4.12086 -10.77343,1.30181c-4.63576,-2.81904 -12.60385,-1.49565 -6.01414,-11.51047c2.50131,-3.8014 8.03908,-4.75467 12.67484,-1.93563c4.63576,2.81904 6.4771,8.25623 4.11274,12.14429z" data-paper-data="{&quot;origRot&quot;:0,&quot;origPos&quot;:null}" fill="#b1957d" stroke="#3dff00" stroke-width="0" stroke-linecap="butt"/><g data-paper-data="{&quot;origPos&quot;:null}" stroke="#2900ff" stroke-width="0"><path d="M107.22966,109.03486c0,0 25.11255,1.29948 32.57576,12.72727c1.22255,1.87199 0.79579,10.79963 -2.42425,10.75758c-32.72938,-0.42735 -30.15151,-23.48485 -30.15151,-23.48485z" data-paper-data="{&quot;origPos&quot;:null}" fill="url(#color-1)" stroke-linecap="round"/><path d="M111.01754,118.58031c0,-5.18813 4.20581,-9.39394 9.39394,-9.39394c5.18813,0 9.39394,4.20581 9.39394,9.39394c0,5.18813 -4.20581,9.39394 -9.39394,9.39394c-5.18813,0 -9.39394,-4.20581 -9.39394,-9.39394z" data-paper-data="{&quot;origPos&quot;:null}" fill="url(#color-2)" stroke-linecap="butt"/><path d="M123.29027,120.32274c0,-2.13383 1.7298,-3.86364 3.86364,-3.86364c2.13383,0 3.86364,1.72981 3.86364,3.86364c0,2.13383 -1.7298,3.86364 -3.86364,3.86364c-2.13383,0 -3.86364,-1.7298 -3.86364,-3.86364z" data-paper-data="{&quot;origPos&quot;:null}" fill="#ffffff" stroke-linecap="butt"/><path d="M96.77511,102.36819c0,0 0.86092,5.36319 2.47871,7.05031c2.52137,2.62942 8.12735,4.0103 8.12735,4.0103l0.15152,-4.39394c0,0 16.79182,1.4106 24.43,5.82269c6.58934,3.80624 10.41848,8.72276 10.41848,8.72276c0,0 -6.72727,-9.11137 -13.19739,-13.11279c-11.04538,-6.83097 -14.74776,-5.00487 -21.34222,-6.29106c-3.04566,-0.59403 -5.00585,-3.92949 -5.00585,-3.92949l0.45454,4.09091c0,0 -2.10825,0.01448 -3.36066,-0.36415c-1.29021,-0.39007 -3.15449,-1.60555 -3.15449,-1.60555z" data-paper-data="{&quot;origPos&quot;:null}" fill="#030000" stroke-linecap="round"/></g><g data-paper-data="{&quot;origPos&quot;:null}" fill="none" stroke="#000000" stroke-linecap="round"><g data-paper-data="{&quot;origPos&quot;:null}" stroke-width="2.5"><path d="M182.92977,266.65196c0,0 -20.53824,-16.46411 -26.16326,-29.79849c-5.82423,-13.80662 -1.80112,-41.91764 -1.80112,-41.91764" data-paper-data="{&quot;origPos&quot;:null}"/><path d="M242.80754,250.29945c0,0 -28.18779,78.96273 -60.38354,67.09091c-9.90313,-3.65167 -3.83357,-21.074 -0.60747,-38.28014c2.49175,-13.28953 4.31025,-36.44713 4.31025,-36.44713" data-paper-data="{&quot;origPos&quot;:null}"/><path d="M176.40579,303.75215c0,0 -4.71194,5.83945 -13.38498,4.43414c-8.67304,-1.40531 -5.66169,-68.96846 -5.66169,-68.96846" data-paper-data="{&quot;origPos&quot;:null}"/><path d="M309.72261,262.73359c0,0 -19.27424,11.27243 -29.97512,13.29689c-16.86626,3.19087 -46.69627,0.57416 -46.69627,0.57416" data-paper-data="{&quot;origPos&quot;:null}"/><path d="M260.34246,156.93584c0,0 41.628,-16.99696 75.42619,18.97462c23.50014,25.01131 13.55197,62.76929 19.83081,85.57083c1.94137,7.05007 7.65625,5.54111 8.16942,12.5579c1.53953,21.05036 -19.87915,48.42002 -30.38601,45.80574c-10.07826,-2.50764 1.16685,-26.50827 -8.51853,-38.89249c-12.14646,-15.53109 -24.42658,-34.74388 -24.42658,-34.74388" data-paper-data="{&quot;origPos&quot;:null}"/><path d="M318.11498,273.99151c0,0 -8.15069,41.36618 -31.15908,40.42669c-7.58573,-0.30974 -6.70811,-37.12987 -6.70811,-37.12987" data-paper-data="{&quot;origPos&quot;:null}"/></g><path d="M346.90527,192.91947c0,0 13.24256,4.17266 21.42005,1.15277c5.50207,-2.03188 10.91927,-9.34138 11.10044,-15.20384c0.54318,-17.57623 -34.70797,-48.23386 -34.05638,-70.19767c0.17106,-5.76639 4.46272,-14.4098 4.46272,-14.4098c0,0 0.54381,4.40498 1.36021,6.99023c0.89695,2.84036 3.03004,6.91221 3.03004,6.91221c0,0 2.43417,-21.05115 23.43743,-22.36149c20.17012,-1.25836 40.58696,15.04442 40.58696,15.04442c0,0 -11.77712,4.77526 -18.14425,8.53417c-5.48354,3.23727 -12.22161,9.39266 -12.22161,9.39266" data-paper-data="{&quot;origPos&quot;:null}" stroke-width="2.5"/><path d="M395.56381,113.65118c0,0 -1.57236,6.37083 -0.86372,11.34677c1.60893,11.29763 25.60479,36.81099 24.47746,62.27674c-1.67857,37.91799 -34.91887,44.55878 -51.9798,44.82058c-13.29129,0.20396 -14.07296,-1.49286 -14.07296,-1.49286" data-paper-data="{&quot;origPos&quot;:null}" stroke-width="2.5"/><path d="M221.02403,68.15333c0,0 14.15923,17.92232 24.4453,30.37018c8.65052,10.46856 15.85667,21.48348 20.19925,34.35066c2.17358,6.44039 -0.07933,13.46757 -0.07933,13.46757c0,0 -2.42212,-5.96233 -4.3489,-9.21377c-2.14553,-3.62058 -6.08588,-8.39492 -6.08588,-8.39492c0,0 3.33953,9.08326 4.3475,15.08525c0.8585,5.11201 0.43511,13.39301 0.43511,13.39301c0,0 -1.54908,-4.3262 -2.91708,-6.34219c-1.85592,-2.73504 -5.34379,-5.83172 -5.34379,-5.83172c0,0 5.72839,9.25057 6.1946,15.17142c0.38219,4.8538 -4.02069,12.43728 -4.02069,12.43728c0,0 -4.50198,-4.27583 -8.32472,-6.82432c-3.55831,-2.37221 -10.58832,-5.78437 -10.58832,-5.78437c0,0 3.15,4.11209 4.9779,6.93229c1.14148,1.76114 2.6308,4.80684 2.6308,4.80684c0,0 -22.51376,7.12516 -36.50201,11.46868c-18.15962,5.63879 -27.1392,10.31227 -46.15386,10.41444c-13.47367,0.0724 -18.73797,-6.29914 -31.60547,-11.86733c-8.02602,-3.47312 -20.59374,-9.29116 -20.59374,-9.29116l11.08696,-2.39131c0,0 -6.52442,-1.1156 -12.2427,-0.7312c-4.4677,0.30033 -9.27904,3.12251 -9.27904,3.12251c0,0 -4.36173,-13.49923 -4.51796,-21.95117c-0.12657,-6.84749 3.79332,-17.25173 3.79332,-17.25173l-10.21739,8.47827c0,0 9.27447,-19.68498 15.39439,-33.09218c7.60173,-16.65346 11.01247,-27.90893 21.42932,-42.96261c8.19084,-11.83681 29.04585,-19.57 29.04585,-19.57" data-paper-data="{&quot;origPos&quot;:null}" stroke-width="2.5"/><path d="M262.03852,120.73764c0,0 24.33823,-11.20167 37.86633,-26.23977c12.50378,-13.89946 9.74237,-36.29646 9.74237,-36.29646c0,0 -14.35028,-2.31812 -24.28819,-2.86058c-19.71596,-1.0762 -32.28995,-0.48836 -52.02708,-1.05699c-9.6467,-0.27792 -23.24995,-1.51722 -23.24995,-1.51722c0,0 -26.29256,-11.32772 -37.47362,-12.55403c-15.11926,-1.65824 -29.91769,5.16273 -29.91769,5.16273c0,0 6.32652,-0.04817 10.37582,0.2975c2.90757,0.2482 7.45027,1.22423 7.45027,1.22423c0,0 -11.59608,3.50734 -16.15899,9.61116c-5.7137,7.64322 -7.31927,18.86711 -7.31927,18.86711c0,0 2.99563,-5.15716 5.85424,-7.89326c3.08017,-2.94817 9.36316,-6.67196 9.36316,-6.67196c0,0 -4.76008,10.75021 -4.33589,19.98383c0.39497,8.59761 8.46632,19.58139 8.46632,19.58139c0,0 5.03782,-13.19302 9.01529,-20.69596c3.48843,-6.58045 10.11514,-15.391 10.11514,-15.391" data-paper-data="{&quot;origPos&quot;:null}" stroke-width="2.5"/><path d="M174.3411,102.33184c0,0 8.04604,-2.26791 12.99998,-4.50323c8.95978,-4.04282 22.6522,-11.58373 22.6522,-11.58373" data-paper-data="{&quot;origPos&quot;:null}" stroke-width="2.5"/><path d="M137.6907,102.54923c0,0 -4.89752,-1.97178 -8.03218,-4.01756c-4.92512,-3.21429 -12.62,-9.4607 -12.62,-9.4607" data-paper-data="{&quot;origPos&quot;:null}" stroke-width="2.5"/><path d="M240.58925,92.33184c0,0 9.67754,-5.05198 15.91388,-8.58837c11.43474,-6.48419 17.8513,-10.76367 29.63391,-16.5919c8.8674,-4.38623 22.13337,-8.29799 22.13337,-8.29799" data-paper-data="{&quot;origPos&quot;:null}" stroke-width="2.5"/><path d="M135.2994,53.4188c0,0 -17.64448,-0.12806 -28.7496,-1.33953c-11.65467,-1.27142 -18.16527,-3.24023 -29.73648,-5.1257c-5.17749,-0.84365 -13.25305,-1.36086 -13.25305,-1.36086c0,0 -5.42756,20.7332 -1.08811,37.29733c6.50653,24.83604 29.78376,46.32586 29.78376,46.32586" data-paper-data="{&quot;origPos&quot;:null}" stroke-width="2.5"/><path d="M64.42983,46.53474c0,0 15.30702,12.54672 23.59829,21.51851c8.59184,9.29703 19.66258,25.29308 19.66258,25.29308" data-paper-data="{&quot;origPos&quot;:null}" stroke-width="2.5"/><path d="M138.82418,95.12674c0,0 16.2608,8.79301 27.3728,13.62746c18.23638,7.93402 29.77764,10.78902 47.37753,20.04956c8.99479,4.7328 17.53781,14.8823 17.53781,14.8823c0,0 -44.46998,-19.70245 -72.71187,-32.79661c-18.05913,-8.373 -19.57627,-15.76271 -19.57627,-15.76271z" data-paper-data="{&quot;origPos&quot;:null}" stroke-width="1.5"/><path d="M148.40218,142.62096h3.67347" data-paper-data="{&quot;origPos&quot;:null}" stroke-width="2.5"/><path d="M143.50422,162.51892l7.34694,-7.34694l7.04082,7.95918" data-paper-data="{&quot;origPos&quot;:null}" stroke-width="2.5"/><path d="M109.83076,147.51892l-37.65306,-4.59183" data-paper-data="{&quot;origPos&quot;:null}" stroke-width="2.5"/><path d="M112.27973,159.45769l-23.87755,6.12245" data-paper-data="{&quot;origPos&quot;:null}" stroke-width="2.5"/><path d="M119.01443,171.09035l-13.77551,12.2449" data-paper-data="{&quot;origPos&quot;:null}" stroke-width="2.5"/><path d="M206.05524,180.27402l17.7551,10.40816" data-paper-data="{&quot;origPos&quot;:null}" stroke-width="2.5"/><path d="M211.56545,168.02912l17.44898,4.28572" data-paper-data="{&quot;origPos&quot;:null}" stroke-width="2.5"/><path d="M211.56545,157.00872l25.10204,-6.12245" data-paper-data="{&quot;origPos&quot;:null}" stroke-width="2.5"/></g><g data-paper-data="{&quot;origPos&quot;:null}" stroke="#2900ff" stroke-width="0"><path d="M170.81552,122.06516c6.52996,-12.48177 51.06061,-11.66666 51.06061,-11.66666c0,0 5.08342,20.093 -48.78788,22.12122c-0.46221,0.0174 -4.20821,-6.75494 -2.27273,-10.45455z" data-paper-data="{&quot;origPos&quot;:null}" fill="url(#color-3)" stroke-linecap="round"/><path d="M175.664,121.68637c0,-5.14629 4.17189,-9.31818 9.31818,-9.31818c5.14629,0 9.31819,4.1719 9.31819,9.31819c0,5.14629 -4.1719,9.31818 -9.31818,9.31818c-5.14629,0 -9.31818,-4.17189 -9.31818,-9.31818z" data-paper-data="{&quot;origPos&quot;:null}" fill="url(#color-4)" stroke-linecap="butt"/><path d="M189.30037,120.77728c0,-1.88279 1.5263,-3.40909 3.40909,-3.40909c1.88279,0 3.40909,1.5263 3.40909,3.40909c0,1.88279 -1.5263,3.40909 -3.40909,3.40909c-1.88279,0 -3.40909,-1.5263 -3.40909,-3.40909z" data-paper-data="{&quot;origPos&quot;:null}" fill="#ffffff" stroke-linecap="butt"/><path d="M166.57309,123.58031c0,0 7.85939,-7.89445 23.48124,-10.92402c9.83398,-1.90712 31.72078,-2.40931 31.72078,-2.40931l-0.15151,4.24243c0,0 6.02572,-1.09229 8.62178,-2.76119c2.37092,-1.52416 4.10549,-5.42063 4.10549,-5.42063c0,0 -3.37589,0.71002 -5.73058,0.87354c-1.90272,0.13214 -5.17851,-0.11597 -5.17851,-0.11597c0,0 1.35485,-0.89298 1.93109,-1.94943c0.48811,-0.89487 0.79618,-3.05057 0.79618,-3.05057c0,0 -4.26891,1.76247 -6.71058,2.93188c-3.28409,1.57287 -22.23131,1.12113 -29.10682,3.55697c-13.83102,4.90003 -23.77856,15.0263 -23.77856,15.0263z" data-paper-data="{&quot;origPos&quot;:null}" fill="#030000" stroke-linecap="round"/></g></g></g></svg>