<svg version="1.1" xmlns="http://www.w3.org/2000/svg" xmlns:xlink="http://www.w3.org/1999/xlink" width="310.00146" height="287.29968" viewBox="0,0,310.00146,287.29968"><defs><linearGradient x1="132.32107" y1="99.87747" x2="132.32107" y2="141.78531" gradientUnits="userSpaceOnUse" id="color-1"><stop offset="0" stop-color="#f0dbf3"/><stop offset="1" stop-color="#ffffff"/></linearGradient><linearGradient x1="132.17281" y1="103.4073" x2="132.17281" y2="133.46902" gradientUnits="userSpaceOnUse" id="color-2"><stop offset="0" stop-color="#310060"/><stop offset="1" stop-color="#f100d9"/></linearGradient><linearGradient x1="203.45696" y1="105.6734" x2="203.45696" y2="145.71586" gradientUnits="userSpaceOnUse" id="color-3"><stop offset="0" stop-color="#f0dbf3"/><stop offset="1" stop-color="#ffffff"/></linearGradient><linearGradient x1="196.45286" y1="108.32817" x2="196.45286" y2="140.01831" gradientUnits="userSpaceOnUse" id="color-4"><stop offset="0" stop-color="#310060"/><stop offset="1" stop-color="#f100d9"/></linearGradient></defs><g transform="translate(-84.77214,-36.51722)"><g data-paper-data="{&quot;isPaintingLayer&quot;:true}" fill="none" fill-rule="nonzero" stroke="none" stroke-width="none" stroke-linecap="none" stroke-linejoin="miter" stroke-miterlimit="10" stroke-dasharray="" stroke-dashoffset="0" font-family="none" font-weight="none" font-size="none" text-anchor="none" style="mix-blend-mode: normal"><path d="M131.72436,74.2348l8.02817,-8.87324l12.46479,-8.23943l12.04225,-4.64788l13.94367,-1.47888l14.3662,1.2676l4.22535,1.2676l60.6338,105.49296l-2.74648,4.29577l43.94366,38.4507l47.04226,-58.16901l-26.83099,-23.02817l-20.07042,-29.3662l7.1831,-21.83099l19.22535,-9.0845l16.69014,-2.32395l13.52113,1.47888l19.43662,6.97183l14.78873,12.88732l4.01408,7.39437l0.35212,7.11267l-5.70423,10.35211l-8.23944,5.49296l-5.49295,1.05633l-7.81691,-0.6338l-12.67605,-4.22536l3.80282,-5.91549l-0.6338,-5.91549l-6.76056,-6.76056l-7.8169,-0.42254l-11.19718,3.59155l-0.84507,2.74648l4.43662,7.60563l8.87324,8.23944l7.60564,6.33803l12.04226,12.25352l8.66197,15l2.74648,12.04225l-2.53521,10.63381l-4.64789,8.23943l-33.16901,15.42254l4.22535,64.22535l13.52113,13.80282l7.39436,8.87324l1.90141,6.97183l-1.26761,10.14085l-6.12676,12.95774l-5.70423,9.08451l-6.97183,5.70423l-5.49295,1.9014l-6.76057,-1.9014l-3.59155,-4.64789v-14.15493l-2.32394,-14.92957l-11.83099,-21.33803l-3.16901,-3.23943l-8.23944,5.28169l-15.84508,6.97183l-11.61971,1.47888l-17.74648,0.42253l-19.22536,-1.47887l-8.4507,17.32395l-10.14085,15.21126l-8.87324,7.1831l-7.8169,5.49296l-8.02817,1.05633l-5.91549,-0.84507l-5.07042,-3.38028l0.42253,-8.23944l2.95775,-17.53521l4.3662,-25l-10.35211,-5.91549l-13.52113,-16.05634l-4.43662,-12.67605l-0.84507,-15l1.90141,-21.12676l-22.39436,-7.67606l-14.78873,-8.4507l-12.74648,-11.54929l-8.23944,-13.30986l-2.95775,-12.04226l1.69014,-10.77465l8.23944,-16.97183l9.15493,-21.61971l6.76057,-12.04226z" data-paper-data="{&quot;origPos&quot;:null}" fill="#ffffff" stroke="#ff0000" stroke-width="0" stroke-linecap="round"/><path d="M165.86341,244.71574l11.42858,14.52381l12.38095,6.66666l-7.14285,37.22222l-0.71428,9.76191l-4.28572,1.42857l-5.23809,1.66667l-4.04762,-1.66667l-3.33333,-11.42857l-1.19048,-28.4127l0.71429,-19.28572z" data-paper-data="{&quot;origPos&quot;:null}" fill="#e5d3e3" stroke="#00ffeb" stroke-width="0" stroke-linecap="round"/><path d="M285.38721,274.71573l14.28572,-6.19048l9.04762,-5.95238l9.04762,13.33333l-3.33333,12.85715l-6.42858,15.47619l-8.33333,8.09524l-9.76191,4.04762l-5,-1.19047l-2.61905,-2.85714l-2.14286,-8.33333l-0.23809,-14.52381l-2.85714,-13.33333z" data-paper-data="{&quot;origPos&quot;:null}" fill="#e5d3e3" stroke="#00ffeb" stroke-width="0" stroke-linecap="round"/><g data-paper-data="{&quot;origPos&quot;:null}" stroke="#ff0000" stroke-width="0" stroke-linecap="round"><path d="M103.74184,45.99462l9.04762,7.38096l6.19047,5.71429l11.19047,17.14285l-5.47619,8.25397l-5,8.80953l-5.2381,13.33333l-3.80952,8.09524l-7.14286,-20l-4.7619,-20.47619l-0.95238,-10l0.47619,-7.85714l1.66666,-8.01587z" data-paper-data="{&quot;origPos&quot;:null}" fill="#f7a5bc"/><path d="M111.59899,52.42319l7.14285,5.95239l10.95238,17.38095l-3.80952,6.19048c0,0 -5.74268,-10.84153 -9.87546,-17.32347c-2.84428,-4.46104 -5.53475,-6.16568 -8.61444,-10.46758c-1.95971,-2.73744 -4.12915,-7.68515 -4.12915,-7.68515z" data-paper-data="{&quot;origPos&quot;:null}" fill="#db85a0"/></g><g data-paper-data="{&quot;origPos&quot;:null}" stroke="#ff0000" stroke-width="0" stroke-linecap="round"><path d="M264.53549,40.99462l5,10.71429l4.28571,20.47619v18.65079l-2.85715,12.14286l-3.57142,8.09524l-5.47619,6.19048l-5,-6.42857l-11.42857,-10.95238l-17.14285,-16.19047l-3.57143,-6.50794l1.66666,-9.28571l5.47619,-9.52381l7.61905,-5.95239l9.76191,-5.95238z" data-paper-data="{&quot;origPos&quot;:null}" fill="#f7a5bc"/><path d="M264.53549,40.99462c0,0 -18.24714,12.60761 -25.04967,21.28669c-6.67084,8.51107 -9.47414,22.76093 -9.47414,22.76093l-2.85715,-3.33333l-2.14285,-4.7619l1.66666,-9.04762l5.71429,-9.7619l9.28571,-6.90477l8.33334,-5z" data-paper-data="{&quot;origPos&quot;:null}" fill="#db85a0"/></g><g data-paper-data="{&quot;origPos&quot;:null}" fill="#3c3638" stroke="#29ff00" stroke-width="0" stroke-linecap="round"><path d="M264.11738,40.24208l-15,6.42857l-9.76191,6.19047l-7.38095,5.47619l-5.47619,9.52381l-1.90476,9.04762l3.33334,6.66667l20.23809,19.28571l7.85715,7.14286l7.61905,9.52381l0.71429,11.42857l-15,24.84127l-24.28572,2.85715l-31.50794,-0.79366l-16.90476,-8.09524c0,0 -16.00499,-18.47879 -7.62906,-56.99903c5.20961,-23.9586 26.27985,-39.19144 26.27985,-39.19144l10.95239,3.09524l17.61905,-13.09524l14.28571,-5.23809l8.80953,-0.95238l10,1.19047z" data-paper-data="{&quot;origPos&quot;:null}"/><path d="M213.72056,280.877l-17.61905,-13.57143c0,0 4.83472,-12.01858 20.55084,-12.25151c14.9671,-0.22184 22.06821,12.4896 22.06821,12.4896l-2.61905,6.42858l-9.52381,19.52381c0,0 -12.13637,2.79181 -16.80553,1.35827c-7.41986,-2.27808 -5.09923,-7.54875 -5.09923,-7.54875z" data-paper-data="{&quot;origPos&quot;:null}"/><path d="M318.00629,276.8294l-6.42857,-10.47619l-2.85715,-3.80953l-8.33333,5.71429l-15.2381,6.19048l-11.90476,1.66667c0,0 -7.47661,-4.41629 -7.38544,-9.68124c0.16796,-9.69959 10.74717,-16.51731 12.70729,-26.01827c1.68012,-8.1438 -4.36947,-19.30049 -4.36947,-19.30049l-6.19048,-24.76191c0,0 -9.39295,-3.50824 -16.01449,-3.92498c-6.66598,-0.41953 -18.03313,1.78213 -18.03313,1.78213l3.80953,-12.14286l16.50793,-18.49206l14.52381,-4.04762l14.52381,-1.66667l13.09524,0.71429l13.09524,4.28571l8.41269,5.07937l12.38095,-9.28572l3.09524,-6.90476l0.2381,-10.2381l-4.28571,-5.71429l-16.42858,-13.4127l-10,-8.80952l-6.66667,-8.49207l-2.14286,-8.57143l5.71429,-1.90476l11.42857,8.57142l8.1746,12.69841l7.38096,7.85714l10.95238,-2.38095l5.47619,11.90476l8.57143,2.61905l5.95238,-2.14285l4.52381,-7.38096l6.66667,10.47619l3.57143,8.4127l-5.2381,2.14285l-10.23809,8.57143l1.66667,19.52381l-4.28572,10.87302l-13.25396,8.09524l6.19047,13.33334l2.14286,15l0.47619,30.71429l1.90476,12.69841c0,0 -0.73286,4.78311 -0.71726,7.69502c0.04174,7.79218 3.70512,14.25193 -2.42627,19.06087c-5.79755,4.5471 -10.8109,-0.57033 -17.70605,-3.16735c-2.78982,-1.05077 -7.48376,-1.36633 -7.48376,-1.36633z" data-paper-data="{&quot;origPos&quot;:null}"/></g><g data-paper-data="{&quot;origPos&quot;:null}" stroke="#001fff" stroke-width="0"><path d="M103.14913,45.98559l4.04762,-2.14286l7.14286,0.23809l9.7619,1.90477l15,4.7619l13.80953,5.95238l-4.52381,3.09524l-9.04762,5.2381l-8.33334,9.92063l6.66667,0.95238l4.28571,2.85714l3.33334,6.66667c0,0 19.75537,50.02359 4.2075,59.18737c-24.81773,14.62736 -44.6837,-15.85404 -44.6837,-15.85404l7.85714,-17.46032l7.38096,-19.52381l10.2381,-15.87302l-11.66667,-17.53968z" data-paper-data="{&quot;origPos&quot;:null}" fill="#c3853a" stroke-linecap="round"/><path d="M224.05389,102.89035l-47.14286,40.00001c0,0 -5.7459,-33.09562 14.28571,-42.85714c22.90358,-11.16105 32.85715,2.85714 32.85715,2.85714z" data-paper-data="{&quot;origPos&quot;:null}" fill="#c3853a" stroke-linecap="round"/><path d="M263.57768,119.39828l3.09524,8.80952v10.47619l-3.80953,11.19048l-5,9.04762c0,0 -26.1548,5.69385 -41.96489,4.88773c-26.24908,-1.33839 -38.7494,-14.17344 -38.7494,-14.17344c0,0 41.48852,16.22316 75.64671,-5.14755c10.50853,-6.57455 10.78187,-25.09055 10.78187,-25.09055z" data-paper-data="{&quot;origPos&quot;:null}" fill="#c3853a" stroke-linecap="round"/><path d="M164.292,257.65225l2.14285,-11.66667l5.71428,7.85715c0,0 0.10007,2.39129 -0.75023,3.92183c-0.54349,0.97829 -2.8212,2.50674 -2.8212,2.50674c0,0 8.80672,5.60291 7.6546,11.4989c-1.31586,6.73393 -12.6546,7.31063 -12.6546,7.31063z" data-paper-data="{&quot;origPos&quot;:null}" fill="#945627" stroke-linecap="round"/><path d="M225.95865,264.31892c0,0 -4.69782,1.02488 -6.09108,3.64947c-1.24708,2.34921 -1.40122,7.18566 0.31144,9.22055c3.78867,4.50149 14.58917,-0.72716 14.58917,-0.72716c0,0 -8.63265,10.28125 -15.27417,11.94761c-22.40772,5.62212 -12.10679,-4.56666 -12.10679,-4.56666c0,0 -13.15253,-1.501 -11.90909,-14.48263c0.72438,-7.5625 9.28704,-8.49799 15.02759,-9.01303c6.66061,-0.59759 15.45292,3.97185 15.45292,3.97185z" data-paper-data="{&quot;origPos&quot;:null}" fill="#c3853a" stroke-linecap="round"/><path d="M277.00627,276.38241l10,-1.90476c0,0 2.42226,3.95494 2.14391,5.26717c-0.37208,1.75413 -3.81057,2.58997 -3.81057,2.58997c0,0 1.73345,5.34515 0.86183,6.78521c-1.26554,2.0909 -6.33802,2.26241 -6.33802,2.26241z" data-paper-data="{&quot;origPos&quot;:null}" fill="#945627" stroke-linecap="round"/><path d="M314.81579,271.14432c0,0 18.20073,-3.2783 18.33333,4.04762c0.22169,12.24764 -10.47619,11.42857 -10.47619,11.42857z" data-paper-data="{&quot;origPos&quot;:null}" fill="#c3853a" stroke-linecap="round"/><path d="M349.57771,222.25543l0.23809,30.47619l1.66666,12.38095c0,0 -5.0897,0.54088 -7.62343,-2.17981c-1.53728,-1.65071 0.24248,-8.29638 0.24248,-8.29638c0,0 -10.80149,4.49617 -15.96202,-6.22676c-4.80959,-9.99372 20.00964,-37.34467 20.00964,-37.34467z" data-paper-data="{&quot;origPos&quot;:null}" fill="#c3853a" stroke-linecap="round"/><path d="M196.0539,195.11259l16.19047,-5l8.33334,-3.33334l16.42857,-8.33334l12.61905,-10c0,0 -1.73977,13.01757 -5.59639,18.45401c-3.85572,5.43517 -14.16552,9.40313 -14.16552,9.40313c0,0 -11.66722,18.64229 -27.28553,18.55556c-15.61831,-0.08672 -12.71448,-19.03175 -12.71448,-19.03175z" data-paper-data="{&quot;origPos&quot;:null}" fill="#c3853a" stroke-linecap="round"/><path d="M329.53007,178.684c0,0 -21.79865,0.21336 -30.50317,8.3384c-12.59492,11.75646 -11.9352,41.01304 -27.894,34.51973c-21.30546,-8.66875 4.8268,-34.01704 1.31504,-47.7765c-1.12606,-4.41205 -3.5127,-2.26409 -6.06113,-5.85859c-2.68771,-3.79095 -2.09484,-7.08018 -2.09484,-7.08018l9.52381,-1.90476l9.52381,-1.19047l13.57143,0.95238l12.85714,4.52381l8.80953,4.52381l6.90476,6.19047z" data-paper-data="{&quot;origPos&quot;:null}" fill="#c3853a" stroke-linecap="round"/><path d="M256.72056,219.04114c0,5.4571 -6.23603,9.88096 -13.92857,9.88096c-7.69254,0 -13.92858,-4.42386 -13.92858,-9.88095c0,-5.4571 5.52175,-7.7381 13.21429,-7.7381c7.69254,0 14.64286,2.281 14.64286,7.7381z" data-paper-data="{&quot;origPos&quot;:null}" fill="#c3853a" stroke-linecap="butt"/><path d="M257.57613,197.58264c-1.87088,2.54157 -4.88987,3.49604 -6.7431,2.13186c-1.85323,-1.36418 -1.83893,-4.53043 0.03195,-7.072c1.87088,-2.54157 4.88987,-3.49603 6.7431,-2.13185c1.85323,1.36418 1.83892,4.53042 -0.03196,7.07199z" data-paper-data="{&quot;origRot&quot;:0,&quot;origPos&quot;:null}" fill="#c3853a" stroke-linecap="butt"/><path d="M360.5301,181.06497l-7.85714,5.23809c0,0 3.4513,-4.84806 4.42185,-10.5511c0.70845,-4.16293 -5.41282,-5.35937 -5.70575,-9.47517c-0.57048,-8.01537 8.19591,-17.83629 8.63911,-25.64966c0.4479,-7.89601 -11.12736,-0.32315 -18.19635,-3.86954c-3.11439,-1.56243 -3.3467,-6.56912 -6.55403,-9.23374c-4.55171,-3.78153 -9.68097,0.27906 -14.47663,-3.18788c-7.04001,-5.08946 -8.73427,-14.44016 -14.75158,-20.70565c-4.12947,-4.29978 -11.94806,-5.58124 -11.94806,-5.58124l-1.19047,-5.95238l2.38095,-10.23809l5.71429,-8.33334l7.14285,-6.19047l16.42858,-6.90476l8.80952,-0.95238c0,0 -2.81613,4.47014 -6.04526,6.40098c-3.72482,2.22724 -8.32784,1.66352 -11.4408,4.68748c-3.83738,3.72767 -1.42702,6.49785 -4.82622,10.62899c-2.80388,3.40763 -6.46571,0.20222 -7.68854,7.59481c-0.84024,5.07958 5.24119,6.7225 8.95926,10.28398c4.24208,4.06341 5.04279,7.16343 8.37981,11.99776c2.43142,3.5224 3.26339,10.08718 7.82731,10.02503c8.92903,-0.12158 3.32402,-4.86107 9.27037,-3.84334c4.67266,0.79973 4.83584,16.2252 12.3313,15.69236c9.09559,-0.64659 10.13752,-8.30933 10.13752,-8.30933l1.90476,2.14286c0,0 -1.41762,7.63933 0.15148,10.31209c3.32077,5.65652 8.89614,4.21172 8.89614,4.21172l2.61905,7.61905c0,0 -10.45784,3.79334 -12.59179,12.26906c-1.85922,7.38453 2.59179,16.30236 2.59179,16.30236z" data-paper-data="{&quot;origPos&quot;:null}" fill="#c3853a" stroke-linecap="round"/></g><g data-paper-data="{&quot;origPos&quot;:null}" stroke-width="0"><path d="M147.40361,141.07464c0,0 -17.58877,3.9981 -25.35211,-6.97183c-7.76334,-10.96993 -3.80282,-34.22535 -3.80282,-34.22535c0,0 13.99683,1.03044 21.97496,12.52433c5.85859,8.44033 7.17997,28.67286 7.17997,28.67286z" data-paper-data="{&quot;origPos&quot;:null}" fill="url(#color-1)" stroke="#000000" stroke-linecap="round"/><path d="M143.03741,121.5324c-0.42254,5.54573 -2.41166,11.93662 -9.29577,11.93662c-6.88411,0 -12.46479,-7.23596 -12.46479,-16.16197c0,-8.92601 4.16605,-14.55765 7.8169,-13.83803c4.12653,0.81338 14.62178,9.16317 13.94366,18.06338z" data-paper-data="{&quot;origPos&quot;:null}" fill="url(#color-2)" stroke="#52ff00" stroke-linecap="butt"/><path d="M139.23459,116.56761c0,5.13391 -2.69575,9.29577 -6.02113,9.29577c-3.32538,0 -6.02113,-4.16186 -6.02113,-9.29577c0,-5.13391 2.69575,-9.29577 6.02113,-9.29577c3.32538,0 6.02113,4.16186 6.02113,9.29577z" data-paper-data="{&quot;origPos&quot;:null}" fill="#35005e" stroke="#52ff00" stroke-linecap="butt"/><path d="M133.67284,112.20959c0,2.10024 -1.65529,3.80282 -3.69718,3.80282c-2.0419,0 -3.69718,-1.70258 -3.69718,-3.80282c0,-2.10024 1.65529,-3.80282 3.69718,-3.80282c2.0419,0 3.69718,1.70258 3.69718,3.80282z" data-paper-data="{&quot;origPos&quot;:null}" fill="#ffffff" stroke="#52ff00" stroke-linecap="butt"/><path d="M147.26276,140.86338c0,0 -1.98411,-22.80208 -8.15622,-30.01177c-8.601,-10.0469 -20.78744,-10.76288 -20.78744,-10.76288l-0.84507,8.4507c0,0 -3.34987,-1.15308 -5.08829,-2.29678c-1.39467,-0.91755 -2.93988,-2.98491 -2.93988,-2.98491l6.5493,-0.84507c0,0 -4.01443,-1.16998 -5.22675,-2.91431c-1.68073,-2.41829 -0.90001,-6.804 -0.90001,-6.804c0,0 3.7965,2.73199 6.04376,3.43452c6.74178,2.10759 15.49701,3.51464 22.07425,11.38639c11.87409,14.2111 9.27635,33.3481 9.27635,33.3481z" data-paper-data="{&quot;origPos&quot;:null}" fill="#000200" stroke="#52ff00" stroke-linecap="round"/></g><g data-paper-data="{&quot;origPos&quot;:null}" stroke-width="0"><path d="M177.54446,144.87747c0,0 0.32579,-23.85733 15.6338,-33.80282c14.92245,-9.69499 36.12676,-3.38028 36.12676,-3.38028c0,0 1.82237,19.79176 -13.91343,32.36604c-10.79728,8.62796 -37.84714,4.81706 -37.84714,4.81706z" data-paper-data="{&quot;origPos&quot;:null}" fill="url(#color-3)" stroke="#000000" stroke-linecap="round"/><g data-paper-data="{&quot;origPos&quot;:null}" stroke="#52ff00"><path d="M212.4036,123.64507c0,9.04269 -7.33055,16.37324 -16.37324,16.37324c-9.04269,0 -15.48709,-5.00384 -15.52817,-12.78169c-0.03435,-6.50414 10.71083,-18.90845 19.75352,-18.90845c6.71875,0 12.14789,6.27421 12.14789,15.3169z" data-paper-data="{&quot;origPos&quot;:null}" fill="url(#color-4)" stroke-linecap="butt"/><path d="M187.26276,123.75071c0,-4.20048 3.26328,-7.60563 7.28873,-7.60563c4.02546,0 7.28873,3.40516 7.28873,7.60563c0,4.20048 -3.26328,7.60563 -7.28873,7.60563c-4.02546,0 -7.28873,-3.40516 -7.28873,-7.60563z" data-paper-data="{&quot;origPos&quot;:null}" fill="#35005e" stroke-linecap="butt"/><path d="M194.00858,119.61133c0,2.6253 -1.98634,4.75352 -4.43662,4.75352c-2.45028,0 -4.43662,-2.12822 -4.43662,-4.75352c0,-2.6253 1.98634,-4.75352 4.43662,-4.75352c2.45028,0 4.43662,2.12822 4.43662,4.75352z" data-paper-data="{&quot;origPos&quot;:null}" fill="#ffffff" stroke-linecap="butt"/><path d="M177.61488,144.87745c0,0 -2.37291,-18.27055 10.82971,-32.50329c10.46409,-11.28054 38.25851,-9.98721 41.18938,-10.33218c2.93086,-0.34497 11.22034,-2.37579 11.22034,-2.37579c0,0 -0.73614,3.01553 -1.47775,4.53995c-0.74249,1.52623 -2.32507,3.27696 -2.32507,3.27696l6.97183,0.21127c0,0 -2.80184,5.16392 -5.54171,6.30553c-3.19652,1.33188 -9.66956,0.0325 -9.66956,0.0325c0,0 0.90623,-5.6517 0.51241,-5.92745c-5.30901,-3.71733 -26.05259,-3.73414 -36.92374,3.62123c-14.84888,10.04667 -14.78585,33.15129 -14.78585,33.15129z" data-paper-data="{&quot;origPos&quot;:null}" fill="#000200" stroke-linecap="round"/></g></g><path d="M254.62389,162.76898l-9.71831,9.08451l-10.98592,8.02817l-16.69015,8.66197l-12.95774,3.80282l-12.67605,3.16902l-12.67606,1.47887l-16.90141,-1.69015l-21.97183,-6.76056l-15.9155,-9.29577l-12.25352,-11.19718l-7.7536,-12.5412c0,0 26.986,28.90518 76.73947,29.1314c37.50645,0.17054 74.54258,-23.74679 74.54258,-23.74679z" data-paper-data="{&quot;origPos&quot;:null}" fill="#e5d3e3" stroke="#8a0000" stroke-width="0" stroke-linecap="round"/><g data-paper-data="{&quot;origPos&quot;:null}" fill="none" stroke="#000000" stroke-width="2.5" stroke-linecap="round"><g data-paper-data="{&quot;origPos&quot;:null}"><path d="M261.79031,117.10203c0,0 12.45459,-7.97514 12.09429,-36.61078c-0.30597,-24.31727 -9.13655,-39.72724 -9.13655,-39.72724c0,0 -40.21119,9.4436 -39.71831,35.79055c0.23615,12.6234 42.08984,34.46058 42.04225,55.42253c-0.08724,38.42714 -53.25175,65.12261 -91.67835,64.90108c-26.29103,-0.15157 -73.79865,-21.41879 -74.16672,-55.11235c-0.12202,-11.17001 4.74468,-12.25484 8.3727,-22.81996c10.88404,-31.69535 26.38935,-67.02701 69.1581,-68.00513c14.92168,-0.34126 27.82132,5.5434 27.82132,5.5434c0,0 19.67224,-16.79867 34.74637,-18.42082c12.93524,-1.39197 23.63391,2.57575 23.63391,2.57575" data-paper-data="{&quot;origPos&quot;:null}"/><path d="M110.52884,115.37294c0,0 -22.22068,-58.53063 -7.60869,-69.71015c9.27171,-7.09372 49.56521,10.65217 49.56521,10.65217" data-paper-data="{&quot;origPos&quot;:null}"/><path d="M103.13754,45.68193c0,0 9.23375,6.73838 14.03069,12.16443c5.55352,6.28184 12.49105,17.83557 12.49105,17.83557" data-paper-data="{&quot;origPos&quot;:null}"/><path d="M131.90566,74.66744c0,0 5.47328,0.81533 7.72418,2.7286c2.83948,2.41356 5.31931,8.35836 5.31931,8.35836" data-paper-data="{&quot;origPos&quot;:null}"/><path d="M174.73175,102.9283c0,0 6.30397,-6.49495 11.45196,-9.67806c5.96601,-3.68891 17.0263,-7.93063 17.0263,-7.93063" data-paper-data="{&quot;origPos&quot;:null}"/><path d="M156.25348,146.47903h4.34783" data-paper-data="{&quot;origPos&quot;:null}"/><path d="M175.38392,154.52251c0,0 -0.21018,5.06136 -7.6145,5.37892c-3.49167,0.14975 -9.12463,-3.63979 -9.12463,-3.63979c0,0 -4.37179,3.79005 -7.33409,3.50536c-2.75837,-0.2651 -5.05722,-5.24449 -5.05722,-5.24449" data-paper-data="{&quot;origPos&quot;:null}"/><path d="M254.44645,163.48525c0,0 42.63523,-19.31346 73.4989,12.76449c30.73682,31.94611 17.74156,60.60638 23.33783,88.15388c1.86865,9.1984 9.49177,8.36873 9.69933,17.75272c0.36913,16.68955 -13.52666,40.42376 -24.69933,40.41055c-16.62068,-0.01965 -7.16296,-18.52304 -12.82082,-34.1511c-5.20519,-14.37769 -23.30163,-37.78768 -23.30163,-37.78768" data-paper-data="{&quot;origPos&quot;:null}"/><path d="M306.89543,263.17913c0,0 -12.75808,9.82011 -22.49137,11.59901c-17.06741,3.1193 -46.1821,0.95201 -46.1821,0.95201" data-paper-data="{&quot;origPos&quot;:null}"/><path d="M316.69133,276.95463c0,0 -4.80454,38.43932 -28.46939,38.87756c-7.29524,0.1351 -7.64223,-9.25113 -8.01689,-18.68334c-0.30915,-7.78278 -2.6974,-20.50033 -2.6974,-20.50033" data-paper-data="{&quot;origPos&quot;:null}"/><path d="M243.83421,251.54648c0,0 -20.28191,73.67207 -54.48979,69.4898c-14.04659,-1.71735 -4.86838,-20.94333 -2.06268,-41.43759c2.09928,-15.33416 3.28717,-35.70527 3.28717,-35.70527" data-paper-data="{&quot;origPos&quot;:null}"/><path d="M180.46686,313.38321c0,0 -10.44741,5.33082 -12.76243,-0.74776c-6.97835,-18.32316 -2.23757,-67.82367 -2.23757,-67.82367" data-paper-data="{&quot;origPos&quot;:null}"/><path d="M187.60972,265.93423c0,0 -20.43134,-10.40766 -25.5052,-29.7251c-3.84798,-14.6502 -0.51521,-40.07082 -0.51521,-40.07082" data-paper-data="{&quot;origPos&quot;:null}"/><path d="M318.42604,167.15872c0,0 15.61626,-8.05088 15.6103,-22.55013c-0.00558,-13.57565 -43.00176,-27.97527 -40.46125,-53.68694c2.62805,-26.59757 36.42975,-32.62936 47.67642,-32.86579c30.84094,-0.64835 52.69435,21.85844 52.2659,31.9711c-0.59164,13.96445 -13.98388,20.64848 -19.54188,20.78472c-9.22283,0.22607 -20.34542,-4.67337 -20.34542,-4.67337c0,0 4.78062,-3.19164 4.62219,-9.31622c-0.11892,-4.59746 -6.69856,-10.23918 -15.27674,-9.87153c-11.8288,0.50697 -19.65158,11.84081 -19.65158,11.84081" data-paper-data="{&quot;origPos&quot;:null}"/><path d="M330.67094,92.97505c0,0 1.08561,4.81458 2.9127,6.57073c5.48127,5.26843 42.75774,30.01131 40.50719,58.74079c-1.48882,19.00556 -32.39948,35.70888 -32.39948,35.70888" data-paper-data="{&quot;origPos&quot;:null}"/></g><path d="M215.30786,160.32144l24.52381,-6.19047" data-paper-data="{&quot;origPos&quot;:null}"/><path d="M217.21262,171.75001l27.85715,4.04762" data-paper-data="{&quot;origPos&quot;:null}"/><path d="M229.59357,194.52779l-18.33333,-10" data-paper-data="{&quot;origPos&quot;:null}"/><path d="M121.97453,150.48017l-35.95239,-5.71429" data-paper-data="{&quot;origPos&quot;:null}"/><path d="M123.40309,162.62303l-22.14285,5.71429" data-paper-data="{&quot;origPos&quot;:null}"/><path d="M116.26023,186.19445l14.04762,-11.66666" data-paper-data="{&quot;origPos&quot;:null}"/></g></g></g></svg>